<svg width="32" height="34" viewBox="0 0 32 34" fill="none" xmlns="http://www.w3.org/2000/svg">
<rect x="14" y="13" width="4" height="21" fill="#AAAAAA"/>
<path d="M13.4171 1.44089C14.565 -0.480296 17.435 -0.480297 18.5829 1.44089L29.596 19.8717C30.7439 21.7929 29.309 24.1944 27.013 24.1944H4.98698C2.69103 24.1944 1.25606 21.7929 2.40403 19.8717L13.4171 1.44089Z" fill="#FFC700"/>
<path fill-rule="evenodd" clip-rule="evenodd" d="M27.797 20.2926L17.25 2.64173C16.676 1.68114 15.241 1.68114 14.667 2.64173L4.12004 20.2926C3.54605 21.2532 4.26353 22.454 5.41151 22.454H26.5055C27.6535 22.454 28.371 21.2532 27.797 20.2926ZM18.111 2.16143C17.1543 0.560445 14.7627 0.560447 13.8061 2.16144L3.25906 19.8123C2.30241 21.4133 3.49822 23.4146 5.41151 23.4146H26.5055C28.4188 23.4146 29.6146 21.4133 28.658 19.8123L18.111 2.16143Z" fill="#FFF7D9"/>
<path d="M14.9749 15.4546C15.0041 15.9994 15.4544 16.4262 16 16.4262C16.5456 16.4262 16.9959 15.9994 17.0251 15.4546L17.3986 8.49955L17.4436 7.3046C17.4744 6.48604 16.8191 5.80566 16 5.80566C15.1809 5.80566 14.5256 6.48604 14.5564 7.3046L14.6014 8.49955L14.9749 15.4546ZM14.5405 19.4301C14.5405 20.1901 15.1566 20.8062 15.9166 20.8062H16.124C16.8839 20.8062 17.5 20.1901 17.5 19.4301C17.5 18.6702 16.8839 18.0541 16.124 18.0541H15.9166C15.1566 18.0541 14.5405 18.6702 14.5405 19.4301Z" fill="#FFF7D9"/>
</svg>
