<svg width="322" height="508" viewBox="0 0 322 508" fill="none" xmlns="http://www.w3.org/2000/svg">
<rect x="251.578" y="4.02344" width="19.8789" height="19.8609" rx="6" fill="#EAEAEA"/>
<path d="M261.3 15.7897C262.278 15.7897 263.07 14.9977 263.07 14.0208C263.07 13.0439 262.278 12.252 261.3 12.252C260.322 12.252 259.529 13.0439 259.529 14.0208C259.529 14.9977 260.322 15.7897 261.3 15.7897Z" fill="#61DAFB"/>
<path d="M268.024 11.1037C267.683 10.9796 267.325 10.8555 266.953 10.7469C267.046 10.3745 267.124 10.0021 267.186 9.6452C267.512 7.59704 267.155 6.15402 266.161 5.59543C265.866 5.42475 265.539 5.34717 265.167 5.34717C264.08 5.34717 262.697 6.15402 261.3 7.50394C259.902 6.15402 258.52 5.34717 257.433 5.34717C257.06 5.34717 256.734 5.42475 256.439 5.59543C255.445 6.16953 255.088 7.61256 255.414 9.6452C255.476 10.0021 255.553 10.3745 255.647 10.7469C255.274 10.8555 254.917 10.9641 254.575 11.1037C252.634 11.8485 251.578 12.8726 251.578 14.0208C251.578 15.169 252.649 16.1931 254.575 16.9379C254.917 17.062 255.274 17.1861 255.647 17.2948C255.553 17.6672 255.476 18.0395 255.414 18.3964C255.088 20.4446 255.445 21.8876 256.439 22.4462C256.734 22.6169 257.06 22.6944 257.433 22.6944C258.535 22.6944 259.917 21.8876 261.3 20.5377C262.697 21.8876 264.08 22.6944 265.167 22.6944C265.539 22.6944 265.866 22.6169 266.161 22.4462C267.155 21.8721 267.512 20.4291 267.186 18.3964C267.124 18.0395 267.046 17.6672 266.953 17.2948C267.325 17.1861 267.683 17.0775 268.024 16.9379C269.966 16.1931 271.022 15.169 271.022 14.0208C271.022 12.8726 269.966 11.8485 268.024 11.1037ZM265.726 6.37125C266.363 6.74364 266.58 7.89185 266.316 9.52107C266.269 9.84691 266.192 10.1883 266.099 10.5451C265.291 10.3589 264.437 10.2348 263.536 10.1572C263.008 9.41245 262.464 8.74525 261.921 8.14011C263.07 7.00742 264.235 6.2316 265.182 6.2316C265.384 6.2316 265.571 6.27815 265.726 6.37125ZM263.986 15.5724C263.707 16.069 263.381 16.5655 263.039 17.062C262.464 17.1086 261.89 17.1241 261.3 17.1241C260.694 17.1241 260.119 17.1086 259.56 17.062C259.219 16.5655 258.908 16.069 258.628 15.5724C258.333 15.0604 258.054 14.5328 257.805 14.0208C258.054 13.5088 258.333 12.9812 258.628 12.4692C258.908 11.9727 259.234 11.4761 259.576 10.9796C260.15 10.9331 260.725 10.9175 261.315 10.9175C261.921 10.9175 262.496 10.9331 263.055 10.9796C263.396 11.4761 263.707 11.9727 263.986 12.4692C264.282 12.9812 264.561 13.5088 264.81 14.0208C264.546 14.5328 264.282 15.0449 263.986 15.5724ZM265.275 15.0604C265.508 15.6035 265.695 16.131 265.866 16.6586C265.338 16.7827 264.778 16.8758 264.188 16.9534C264.375 16.6586 264.577 16.3483 264.747 16.0224C264.934 15.6966 265.105 15.3707 265.275 15.0604ZM261.3 19.2653C260.927 18.8619 260.57 18.4275 260.228 17.9775C260.585 17.993 260.942 18.0085 261.3 18.0085C261.657 18.0085 262.014 17.993 262.371 17.9775C262.03 18.4275 261.672 18.8619 261.3 19.2653ZM258.411 16.9379C257.821 16.8603 257.262 16.7672 256.734 16.6431C256.905 16.131 257.091 15.588 257.324 15.0449C257.495 15.3552 257.666 15.6811 257.852 15.9914C258.038 16.3327 258.225 16.6276 258.411 16.9379ZM257.324 12.9812C257.091 12.4381 256.905 11.9106 256.734 11.383C257.262 11.2589 257.821 11.1658 258.411 11.0882C258.225 11.383 258.023 11.6934 257.852 12.0192C257.666 12.345 257.495 12.6709 257.324 12.9812ZM261.3 8.77628C261.672 9.17971 262.03 9.61416 262.371 10.0641C262.014 10.0486 261.657 10.0331 261.3 10.0331C260.942 10.0331 260.585 10.0486 260.228 10.0641C260.57 9.61416 260.927 9.17971 261.3 8.77628ZM264.747 12.0347L264.188 11.1037C264.778 11.1813 265.338 11.2744 265.866 11.3985C265.695 11.9106 265.508 12.4537 265.275 12.9967C265.105 12.6709 264.934 12.345 264.747 12.0347ZM256.283 9.52107C256.019 7.89185 256.237 6.74364 256.874 6.37125C257.029 6.27815 257.215 6.2316 257.417 6.2316C258.349 6.2316 259.514 6.9919 260.678 8.14011C260.135 8.72973 259.591 9.41245 259.063 10.1572C258.163 10.2348 257.308 10.3745 256.501 10.5451C256.408 10.1883 256.345 9.84691 256.283 9.52107ZM252.447 14.0208C252.447 13.2915 253.333 12.5157 254.886 11.9416C255.196 11.8175 255.538 11.7089 255.88 11.6158C256.128 12.3916 256.439 13.214 256.811 14.0363C256.439 14.8587 256.113 15.6655 255.88 16.4414C253.736 15.8207 252.447 14.8897 252.447 14.0208ZM256.874 21.6704C256.237 21.298 256.019 20.1498 256.283 18.5206C256.33 18.1947 256.408 17.8533 256.501 17.4965C257.308 17.6827 258.163 17.8068 259.063 17.8844C259.591 18.6292 260.135 19.2964 260.678 19.9015C259.529 21.0342 258.364 21.81 257.417 21.81C257.215 21.81 257.029 21.7635 256.874 21.6704ZM266.316 18.5206C266.58 20.1498 266.363 21.298 265.726 21.6704C265.571 21.7635 265.384 21.81 265.182 21.81C264.25 21.81 263.086 21.0497 261.921 19.9015C262.464 19.3119 263.008 18.6292 263.536 17.8844C264.437 17.8068 265.291 17.6672 266.099 17.4965C266.192 17.8533 266.254 18.1947 266.316 18.5206ZM267.714 16.1C267.403 16.2241 267.061 16.3327 266.72 16.4258C266.471 15.65 266.161 14.8277 265.788 14.0053C266.161 13.1829 266.487 12.3761 266.72 11.6003C268.863 12.2209 270.152 13.1519 270.152 14.0208C270.152 14.7501 269.251 15.5259 267.714 16.1Z" fill="#61DAFB"/>
<rect x="297.961" y="4.02344" width="19.8789" height="19.8609" rx="6" fill="#EAEAEA"/>
<path d="M307.9 6.67139C306.943 6.67139 305.995 6.86443 305.11 7.23948C304.226 7.61454 303.423 8.16427 302.746 8.85729C301.379 10.2569 300.611 12.1552 300.611 14.1345C300.611 17.4332 302.703 20.2319 305.596 21.2245C305.961 21.2842 306.078 21.0529 306.078 20.8514V19.5901C304.059 20.0379 303.628 18.59 303.628 18.59C303.293 17.7243 302.819 17.4929 302.819 17.4929C302.156 17.0302 302.87 17.0452 302.87 17.0452C303.599 17.0974 303.986 17.8139 303.986 17.8139C304.62 18.9483 305.691 18.6124 306.107 18.4333C306.172 17.9482 306.362 17.6198 306.566 17.4332C304.948 17.2467 303.249 16.6048 303.249 13.7614C303.249 12.933 303.526 12.2687 304 11.7389C303.927 11.5523 303.672 10.7761 304.073 9.76859C304.073 9.76859 304.685 9.56708 306.078 10.5298C306.653 10.3656 307.28 10.2835 307.9 10.2835C308.519 10.2835 309.146 10.3656 309.722 10.5298C311.114 9.56708 311.726 9.76859 311.726 9.76859C312.127 10.7761 311.872 11.5523 311.799 11.7389C312.273 12.2687 312.55 12.933 312.55 13.7614C312.55 16.6123 310.845 17.2392 309.219 17.4258C309.481 17.6571 309.722 18.1124 309.722 18.8065V20.8514C309.722 21.0529 309.839 21.2917 310.21 21.2245C313.104 20.2244 315.189 17.4332 315.189 14.1345C315.189 13.1545 315 12.184 314.634 11.2785C314.268 10.373 313.731 9.55031 313.054 8.85729C312.377 8.16427 311.573 7.61454 310.689 7.23948C309.805 6.86443 308.857 6.67139 307.9 6.67139Z" fill="black"/>
<rect x="274.769" y="4.02344" width="19.8789" height="19.8609" rx="6" fill="#EAEAEA"/>
<path d="M286.181 12.6247C285.79 12.6247 285.499 12.8249 285.499 13.3066C285.499 13.6695 285.691 13.9216 286.16 13.9216C286.558 13.9216 286.828 13.6772 286.828 13.2915C286.828 12.8545 286.586 12.6247 286.181 12.6247ZM285.4 16.0262C285.307 16.1446 285.215 16.2704 285.215 16.4188C285.215 16.715 285.577 16.8042 286.075 16.8042C286.487 16.8042 287.048 16.774 287.048 16.3744C287.048 16.1369 286.778 16.1223 286.437 16.1L285.4 16.0262ZM287.502 12.6471C287.63 12.8175 287.765 13.0547 287.765 13.3955C287.765 14.218 287.147 14.6996 286.252 14.6996C286.025 14.6996 285.819 14.67 285.691 14.633L285.457 15.0256L286.153 15.07C287.382 15.1518 288.106 15.1889 288.106 16.174C288.106 17.0263 287.389 17.5077 286.153 17.5077C284.867 17.5077 284.377 17.1668 284.377 16.5815C284.377 16.2481 284.519 16.0706 284.768 15.8256C284.533 15.7223 284.455 15.5371 284.455 15.3369C284.455 15.1737 284.533 15.0257 284.661 14.8847C284.789 14.7442 284.931 14.6032 285.102 14.4402C284.754 14.2624 284.491 13.8771 284.491 13.3286C284.491 12.4766 285.031 11.8915 286.117 11.8915C286.423 11.8915 286.607 11.9208 286.771 11.9656H288.156V12.5951L287.502 12.6471ZM289.406 11.3006C289.001 11.3006 288.766 11.0558 288.766 10.6333C288.766 10.2114 289.001 9.98145 289.406 9.98145C289.817 9.98145 290.052 10.2114 290.052 10.6333C290.052 11.0558 289.818 11.3006 289.406 11.3006ZM288.489 15.7535V15.1684L288.851 15.1167C288.951 15.1018 288.965 15.0796 288.965 14.9683V12.7898C288.965 12.7085 288.944 12.6563 288.873 12.6343L288.489 12.4934L288.567 11.8934H290.038V14.9683C290.038 15.087 290.044 15.1018 290.151 15.1168L290.514 15.1685V15.7535H288.489ZM293.322 15.4663C293.017 15.6218 292.569 15.7626 292.164 15.7626C291.319 15.7626 291 15.4073 291 14.5695V12.6284C291 12.5839 291 12.5543 290.943 12.5543H290.446V11.8946C291.071 11.8203 291.319 11.4943 291.397 10.6866H292.072V11.7391C292.072 11.7908 292.072 11.8132 292.129 11.8132H293.131V12.5541H292.072V14.325C292.072 14.7622 292.172 14.9324 292.555 14.9324C292.754 14.9324 292.96 14.8807 293.13 14.814L293.322 15.4663Z" fill="#2F2707"/>
<path d="M282.823 13.4094L279.534 10.1234C279.489 10.0784 279.435 10.0427 279.376 10.0183C279.317 9.99399 279.254 9.98145 279.191 9.98145C279.127 9.98145 279.064 9.99399 279.005 10.0183C278.946 10.0427 278.893 10.0784 278.847 10.1234L278.165 10.8059L279.031 11.6714C279.133 11.6368 279.242 11.6314 279.347 11.6558C279.452 11.6802 279.548 11.7334 279.624 11.8094C279.7 11.8859 279.753 11.9823 279.778 12.0877C279.802 12.193 279.796 12.3031 279.761 12.4052L280.595 13.2395C280.797 13.1699 281.031 13.2149 281.192 13.3764C281.245 13.4299 281.288 13.4935 281.317 13.5634C281.346 13.6334 281.361 13.7084 281.361 13.7842C281.361 13.8599 281.346 13.9349 281.317 14.0049C281.288 14.0748 281.245 14.1384 281.192 14.192C281.097 14.2863 280.973 14.3451 280.84 14.3582C280.708 14.3714 280.574 14.3382 280.463 14.2643C280.352 14.1903 280.27 14.0802 280.231 13.9526C280.192 13.825 280.199 13.6879 280.25 13.5646L279.471 12.7867L279.471 14.834C279.527 14.8619 279.579 14.8987 279.624 14.9431C279.677 14.9966 279.72 15.0602 279.749 15.1302C279.778 15.2002 279.793 15.2752 279.793 15.3509C279.793 15.4267 279.778 15.5017 279.749 15.5717C279.72 15.6416 279.677 15.7052 279.624 15.7588C279.398 15.9841 279.033 15.9841 278.807 15.7588C278.74 15.6916 278.69 15.6089 278.663 15.5179C278.635 15.427 278.631 15.3306 278.649 15.2375C278.668 15.1443 278.71 15.0572 278.77 14.9839C278.831 14.9105 278.908 14.8533 278.996 14.8172V12.7509C278.925 12.722 278.861 12.6792 278.807 12.625C278.636 12.4545 278.595 12.2041 278.683 11.9945L277.829 11.1411L275.574 13.3941C275.529 13.4391 275.493 13.4926 275.469 13.5514C275.444 13.6102 275.432 13.6733 275.432 13.7369C275.432 13.8006 275.444 13.8637 275.469 13.9225C275.493 13.9813 275.529 14.0348 275.574 14.0798L278.863 17.3658C278.954 17.4566 279.077 17.5077 279.206 17.5077C279.335 17.5077 279.458 17.4566 279.549 17.3658L282.823 14.0951C282.914 14.0041 282.965 13.8808 282.965 13.7522C282.965 13.6236 282.914 13.5003 282.823 13.4094Z" fill="#DE4C36"/>
<rect x="182" y="4.02344" width="19.8789" height="19.8609" rx="6" fill="#EAEAEA"/>
<path d="M186.52 20.186L185.313 6.67139H198.566L197.358 20.1839L191.932 21.6871L186.52 20.186Z" fill="#E44F26"/>
<path d="M191.94 20.5386L196.326 19.3239L197.357 7.77686H191.94V20.5386Z" fill="#F1662A"/>
<path d="M191.94 12.789H189.745L189.593 11.0917H191.94V9.43408H187.78L187.82 9.87919L188.227 14.4466H191.94V12.789ZM191.94 17.0937L191.933 17.0958L190.085 16.5976L189.967 15.2757H188.301L188.534 17.8777L191.933 18.8205L191.94 18.8184V17.0937Z" fill="#EAEAEA"/>
<path d="M191.935 12.789V14.4466H193.977L193.785 16.5966L191.935 17.0953V18.82L195.336 17.8777L195.361 17.5978L195.75 13.2341L195.791 12.789H195.344H191.935ZM191.935 9.43408V11.0917H195.942L195.975 10.7195L196.051 9.87919L196.091 9.43408H191.935Z" fill="white"/>
<rect x="205.192" y="4.02344" width="19.8789" height="19.8609" rx="6" fill="#EAEAEA"/>
<path d="M219.005 6.67139H211.261C209.374 6.67139 207.844 8.19971 207.844 10.085V17.8225C207.844 19.7077 209.374 21.2361 211.261 21.2361H219.005C220.892 21.2361 222.422 19.7077 222.422 17.8225V10.085C222.422 8.19971 220.892 6.67139 219.005 6.67139Z" fill="#0277BD"/>
<path d="M210.905 12.5112L211.068 14.3285H215.138V12.5112H210.905ZM215.138 8.83301H210.577L210.743 10.6503H215.138V8.83301ZM215.138 19.1216V17.2309L215.13 17.233L213.104 16.6866L212.975 15.2371H211.149L211.404 18.0906L215.13 19.124L215.138 19.1216Z" fill="#EAEAEA"/>
<path d="M217.372 14.3285L217.161 16.6854L215.132 17.2324V19.1231L218.861 18.0906L218.889 17.7835L219.316 12.9992L219.36 12.5112L219.689 8.83301H215.132V10.6503H217.695L217.53 12.5112H215.132V14.3285H217.372Z" fill="white"/>
<rect x="228.384" y="4.02344" width="19.8789" height="19.8609" rx="6" fill="#EAEAEA"/>
<path d="M231.034 12.6714C231.034 9.35768 233.72 6.67139 237.034 6.67139H239.612C242.926 6.67139 245.612 9.35768 245.612 12.6714V15.2361C245.612 18.5498 242.926 21.2361 239.612 21.2361H237.034C233.72 21.2361 231.034 18.5498 231.034 15.2361V12.6714Z" fill="#F0DB4F"/>
<path d="M244.419 17.7618C244.312 17.0973 243.879 16.5394 242.594 16.0188C242.148 15.8139 241.65 15.6671 241.502 15.3294C241.449 15.1327 241.442 15.022 241.476 14.9029C241.571 14.5167 242.033 14.3961 242.398 14.5068C242.634 14.5856 242.857 14.7671 242.992 15.0564C243.621 14.6494 243.619 14.6521 244.059 14.3725C243.898 14.1232 243.812 14.0083 243.707 13.9017C243.328 13.4795 242.813 13.2621 241.988 13.2787C241.846 13.2967 241.702 13.3161 241.559 13.3341C241.147 13.4379 240.755 13.6539 240.525 13.9433C239.835 14.7255 240.032 16.0947 240.871 16.6581C241.699 17.2784 242.914 17.4196 243.069 17.9997C243.22 18.7099 242.547 18.9397 241.878 18.858C241.384 18.7556 241.11 18.505 240.813 18.0495C240.267 18.3652 240.267 18.3652 239.706 18.6877C239.839 18.9785 239.979 19.11 240.202 19.362C241.258 20.4322 243.901 20.3796 244.375 18.7598C244.394 18.7047 244.522 18.3337 244.419 17.7618ZM238.959 13.3648H237.596C237.596 14.5416 237.59 15.7101 237.59 16.8869C237.59 17.6359 237.629 18.3226 237.507 18.533C237.307 18.9469 236.79 18.8957 236.555 18.8155C236.315 18.6978 236.193 18.53 236.052 18.2935C236.013 18.2256 235.984 18.173 235.974 18.1689C235.604 18.3946 235.235 18.6207 234.866 18.8473C235.05 19.2252 235.322 19.5534 235.669 19.7666C236.189 20.0781 236.887 20.1736 237.618 20.0063C238.093 19.8678 238.503 19.5813 238.718 19.1451C239.028 18.5733 238.962 17.8809 238.959 17.1155C238.966 15.8667 238.959 14.6179 238.959 13.3649L238.959 13.3648Z" fill="#323330"/>
<path d="M0.22 52.64H1.42L2.11 56.47L2.5 58.83H2.54C2.7 58.03 2.87 57.27 3.04 56.47L3.99 52.64H5.01L5.97 56.47C6.14 57.24 6.3 58.03 6.47 58.83H6.52C6.64 58.03 6.77 57.24 6.89 56.47L7.59 52.64H8.7L7.25 60H5.82L4.83 55.91C4.7 55.31 4.6 54.78 4.49 54.22H4.44C4.33 54.78 4.22 55.31 4.1 55.91L3.13 60H1.73L0.22 52.64ZM9.90555 52.64H14.2555V53.61H11.0655V55.66H13.7655V56.64H11.0655V59.02H14.3655V60H9.90555V52.64ZM15.9016 52.64H20.2516V53.61H17.0616V55.66H19.7616V56.64H17.0616V59.02H20.3616V60H15.9016V52.64ZM21.8877 52.64H23.0477V56.12H23.0777L25.8777 52.64H27.1677L24.8877 55.48L27.5477 60H26.2577L24.1777 56.4L23.0477 57.78V60H21.8877V52.64ZM31.3749 55.04L30.7649 54.3L32.7649 52.59H33.6649V59.04H35.0549V60H31.0249V59.04H32.5649V54.53C32.5649 54.37 32.5649 54.2 32.5749 54.03L31.3749 55.04Z" fill="#F48096"/>
<path d="M0.22 131.64H1.42L2.11 135.47L2.5 137.83H2.54C2.7 137.03 2.87 136.27 3.04 135.47L3.99 131.64H5.01L5.97 135.47C6.14 136.24 6.3 137.03 6.47 137.83H6.52C6.64 137.03 6.77 136.24 6.89 135.47L7.59 131.64H8.7L7.25 139H5.82L4.83 134.91C4.7 134.31 4.6 133.78 4.49 133.22H4.44C4.33 133.78 4.22 134.31 4.1 134.91L3.13 139H1.73L0.22 131.64ZM9.90555 131.64H14.2555V132.61H11.0655V134.66H13.7655V135.64H11.0655V138.02H14.3655V139H9.90555V131.64ZM15.9016 131.64H20.2516V132.61H17.0616V134.66H19.7616V135.64H17.0616V138.02H20.3616V139H15.9016V131.64ZM21.8877 131.64H23.0477V135.12H23.0777L25.8777 131.64H27.1677L24.8877 134.48L27.5477 139H26.2577L24.1777 135.4L23.0477 136.78V139H21.8877V131.64ZM31.2249 136.74C31.3149 137.5 32.0249 138.15 32.7849 138.15C33.5349 138.15 34.1949 137.65 34.1949 136.88C34.1949 135.75 33.3049 135.62 32.4049 135.62V134.82C33.2349 134.82 34.0649 134.6 34.0649 133.62C34.0649 132.91 33.6149 132.47 32.8849 132.47C32.1249 132.47 31.5049 133.05 31.5649 133.84L30.4749 133.65C30.6649 132.34 31.5749 131.53 32.9449 131.53C34.0649 131.53 35.1349 132.18 35.1349 133.43C35.1349 134.28 34.7649 134.84 33.9149 135.11C34.7949 135.36 35.2949 135.92 35.2949 136.85C35.2949 138.26 34.1649 139.09 32.7949 139.09C31.4449 139.09 30.6549 138.48 30.2549 137.14L31.2249 136.74Z" fill="#F48096"/>
<path d="M0.22 210.64H1.42L2.11 214.47L2.5 216.83H2.54C2.7 216.03 2.87 215.27 3.04 214.47L3.99 210.64H5.01L5.97 214.47C6.14 215.24 6.3 216.03 6.47 216.83H6.52C6.64 216.03 6.77 215.24 6.89 214.47L7.59 210.64H8.7L7.25 218H5.82L4.83 213.91C4.7 213.31 4.6 212.78 4.49 212.22H4.44C4.33 212.78 4.22 213.31 4.1 213.91L3.13 218H1.73L0.22 210.64ZM9.90555 210.64H14.2555V211.61H11.0655V213.66H13.7655V214.64H11.0655V217.02H14.3655V218H9.90555V210.64ZM15.9016 210.64H20.2516V211.61H17.0616V213.66H19.7616V214.64H17.0616V217.02H20.3616V218H15.9016V210.64ZM21.8877 210.64H23.0477V214.12H23.0777L25.8777 210.64H27.1677L24.8877 213.48L27.5477 218H26.2577L24.1777 214.4L23.0477 215.78V218H21.8877V210.64ZM30.9349 216.45C31.3549 216.85 31.9549 217.14 32.5449 217.14C33.5149 217.14 34.0849 216.44 34.0849 215.53C34.0849 214.62 33.5049 214.14 32.5849 214.14C32.1949 214.14 31.8149 214.22 31.4449 214.33L30.7649 214.14L31.3649 210.61H34.9449V211.62H32.1349L31.8349 213.34C32.1549 213.27 32.4949 213.23 32.8149 213.23C34.1649 213.23 35.1849 214.01 35.1849 215.47C35.1849 217.03 34.0549 218.08 32.4749 218.08C31.9049 218.08 31.2449 217.91 30.7749 217.56C30.6149 217.46 30.4849 217.36 30.3649 217.25L30.9349 216.45Z" fill="#F48096"/>
<path d="M0.22 289.64H1.42L2.11 293.47L2.5 295.83H2.54C2.7 295.03 2.87 294.27 3.04 293.47L3.99 289.64H5.01L5.97 293.47C6.14 294.24 6.3 295.03 6.47 295.83H6.52C6.64 295.03 6.77 294.24 6.89 293.47L7.59 289.64H8.7L7.25 297H5.82L4.83 292.91C4.7 292.31 4.6 291.78 4.49 291.22H4.44C4.33 291.78 4.22 292.31 4.1 292.91L3.13 297H1.73L0.22 289.64ZM9.90555 289.64H14.2555V290.61H11.0655V292.66H13.7655V293.64H11.0655V296.02H14.3655V297H9.90555V289.64ZM15.9016 289.64H20.2516V290.61H17.0616V292.66H19.7616V293.64H17.0616V296.02H20.3616V297H15.9016V289.64ZM21.8877 289.64H23.0477V293.12H23.0777L25.8777 289.64H27.1677L24.8877 292.48L27.5477 297H26.2577L24.1777 293.4L23.0477 294.78V297H21.8877V289.64ZM35.3449 290.39L32.0949 297H30.8949L33.8749 291.15C33.9649 290.96 34.0849 290.78 34.2249 290.62H30.2749V289.61H35.3449V290.39Z" fill="#F48096"/>
<path d="M0.22 368.64H1.42L2.11 372.47L2.5 374.83H2.54C2.7 374.03 2.87 373.27 3.04 372.47L3.99 368.64H5.01L5.97 372.47C6.14 373.24 6.3 374.03 6.47 374.83H6.52C6.64 374.03 6.77 373.24 6.89 372.47L7.59 368.64H8.7L7.25 376H5.82L4.83 371.91C4.7 371.31 4.6 370.78 4.49 370.22H4.44C4.33 370.78 4.22 371.31 4.1 371.91L3.13 376H1.73L0.22 368.64ZM9.90555 368.64H14.2555V369.61H11.0655V371.66H13.7655V372.64H11.0655V375.02H14.3655V376H9.90555V368.64ZM15.9016 368.64H20.2516V369.61H17.0616V371.66H19.7616V372.64H17.0616V375.02H20.3616V376H15.9016V368.64ZM21.8877 368.64H23.0477V372.12H23.0777L25.8777 368.64H27.1677L24.8877 371.48L27.5477 376H26.2577L24.1777 372.4L23.0477 373.78V376H21.8877V368.64ZM31.0549 376L33.3249 373.1L33.6749 372.62C33.2949 372.89 32.8549 373.01 32.3849 373.01C31.1649 373.01 30.3249 372.13 30.3249 370.89C30.3249 369.5 31.4249 368.53 32.8149 368.53C34.2349 368.53 35.2249 369.46 35.2249 370.94C35.2249 371.85 34.8749 372.52 34.3749 373.25L32.4549 376H31.0549ZM31.4249 370.81C31.4249 371.65 31.9149 372.17 32.7649 372.17C33.5849 372.17 34.1649 371.62 34.1649 370.82C34.1649 370.01 33.6449 369.44 32.7949 369.44C32.0049 369.44 31.4249 369.99 31.4249 370.81Z" fill="#F48096"/>
<path d="M0.22 447.64H1.42L2.11 451.47L2.5 453.83H2.54C2.7 453.03 2.87 452.27 3.04 451.47L3.99 447.64H5.01L5.97 451.47C6.14 452.24 6.3 453.03 6.47 453.83H6.52C6.64 453.03 6.77 452.24 6.89 451.47L7.59 447.64H8.7L7.25 455H5.82L4.83 450.91C4.7 450.31 4.6 449.78 4.49 449.22H4.44C4.33 449.78 4.22 450.31 4.1 450.91L3.13 455H1.73L0.22 447.64ZM9.90555 447.64H14.2555V448.61H11.0655V450.66H13.7655V451.64H11.0655V454.02H14.3655V455H9.90555V447.64ZM15.9016 447.64H20.2516V448.61H17.0616V450.66H19.7616V451.64H17.0616V454.02H20.3616V455H15.9016V447.64ZM21.8877 447.64H23.0477V451.12H23.0777L25.8777 447.64H27.1677L24.8877 450.48L27.5477 455H26.2577L24.1777 451.4L23.0477 452.78V455H21.8877V447.64ZM31.3749 450.04L30.7649 449.3L32.7649 447.59H33.6649V454.04H35.0549V455H31.0249V454.04H32.5649V449.53C32.5649 449.37 32.5649 449.2 32.5749 449.03L31.3749 450.04ZM37.332 450.04L36.722 449.3L38.722 447.59H39.622V454.04H41.012V455H36.982V454.04H38.522V449.53C38.522 449.37 38.522 449.2 38.532 449.03L37.332 450.04Z" fill="#F48096"/>
<path d="M166.22 52.64H167.42L168.11 56.47L168.5 58.83H168.54C168.7 58.03 168.87 57.27 169.04 56.47L169.99 52.64H171.01L171.97 56.47C172.14 57.24 172.3 58.03 172.47 58.83H172.52C172.64 58.03 172.77 57.24 172.89 56.47L173.59 52.64H174.7L173.25 60H171.82L170.83 55.91C170.7 55.31 170.6 54.78 170.49 54.22H170.44C170.33 54.78 170.22 55.31 170.1 55.91L169.13 60H167.73L166.22 52.64ZM175.906 52.64H180.256V53.61H177.066V55.66H179.766V56.64H177.066V59.02H180.366V60H175.906V52.64ZM181.902 52.64H186.252V53.61H183.062V55.66H185.762V56.64H183.062V59.02H186.362V60H181.902V52.64ZM187.888 52.64H189.048V56.12H189.078L191.878 52.64H193.168L190.888 55.48L193.548 60H192.258L190.178 56.4L189.048 57.78V60H187.888V52.64ZM201.265 60H196.265V59.36L198.755 56.86C199.095 56.52 199.415 56.18 199.675 55.77C200.175 54.87 200.235 53.47 198.815 53.47C198.025 53.47 197.435 54.05 197.495 54.84L196.395 54.64C196.585 53.32 197.505 52.53 198.875 52.53C200.115 52.53 201.135 53.27 201.135 54.61C201.135 55.73 200.365 56.52 199.625 57.26L197.745 59.16C198.055 59.08 198.385 59.02 198.705 59.02H201.265V60Z" fill="#F48096"/>
<path d="M166.22 131.64H167.42L168.11 135.47L168.5 137.83H168.54C168.7 137.03 168.87 136.27 169.04 135.47L169.99 131.64H171.01L171.97 135.47C172.14 136.24 172.3 137.03 172.47 137.83H172.52C172.64 137.03 172.77 136.24 172.89 135.47L173.59 131.64H174.7L173.25 139H171.82L170.83 134.91C170.7 134.31 170.6 133.78 170.49 133.22H170.44C170.33 133.78 170.22 134.31 170.1 134.91L169.13 139H167.73L166.22 131.64ZM175.906 131.64H180.256V132.61H177.066V134.66H179.766V135.64H177.066V138.02H180.366V139H175.906V131.64ZM181.902 131.64H186.252V132.61H183.062V134.66H185.762V135.64H183.062V138.02H186.362V139H181.902V131.64ZM187.888 131.64H189.048V135.12H189.078L191.878 131.64H193.168L190.888 134.48L193.548 139H192.258L190.178 135.4L189.048 136.78V139H187.888V131.64ZM201.575 137.13H200.555V139H199.595V137.13H195.975V136.33L199.525 131.6H200.555V136.27H201.575V137.13ZM199.595 136.27V133.57C199.595 133.35 199.615 133.12 199.645 132.86L197.165 136.27H199.595Z" fill="#F48096"/>
<path d="M166.22 210.64H167.42L168.11 214.47L168.5 216.83H168.54C168.7 216.03 168.87 215.27 169.04 214.47L169.99 210.64H171.01L171.97 214.47C172.14 215.24 172.3 216.03 172.47 216.83H172.52C172.64 216.03 172.77 215.24 172.89 214.47L173.59 210.64H174.7L173.25 218H171.82L170.83 213.91C170.7 213.31 170.6 212.78 170.49 212.22H170.44C170.33 212.78 170.22 213.31 170.1 213.91L169.13 218H167.73L166.22 210.64ZM175.906 210.64H180.256V211.61H177.066V213.66H179.766V214.64H177.066V217.02H180.366V218H175.906V210.64ZM181.902 210.64H186.252V211.61H183.062V213.66H185.762V214.64H183.062V217.02H186.362V218H181.902V210.64ZM187.888 210.64H189.048V214.12H189.078L191.878 210.64H193.168L190.888 213.48L193.548 218H192.258L190.178 214.4L189.048 215.78V218H187.888V210.64ZM200.545 210.61L198.045 213.71C198.385 213.52 198.775 213.42 199.165 213.42C200.505 213.42 201.355 214.35 201.355 215.63C201.355 217.07 200.205 218.08 198.775 218.08C197.245 218.08 196.275 217.08 196.275 215.51C196.275 214.72 196.695 213.93 197.155 213.31L199.175 210.61H200.545ZM198.755 217.17C199.585 217.17 200.255 216.58 200.255 215.71C200.255 214.83 199.675 214.26 198.795 214.26C197.955 214.26 197.335 214.87 197.335 215.69C197.335 216.55 197.835 217.17 198.755 217.17Z" fill="#F48096"/>
<path d="M166.22 289.64H167.42L168.11 293.47L168.5 295.83H168.54C168.7 295.03 168.87 294.27 169.04 293.47L169.99 289.64H171.01L171.97 293.47C172.14 294.24 172.3 295.03 172.47 295.83H172.52C172.64 295.03 172.77 294.24 172.89 293.47L173.59 289.64H174.7L173.25 297H171.82L170.83 292.91C170.7 292.31 170.6 291.78 170.49 291.22H170.44C170.33 291.78 170.22 292.31 170.1 292.91L169.13 297H167.73L166.22 289.64ZM175.906 289.64H180.256V290.61H177.066V292.66H179.766V293.64H177.066V296.02H180.366V297H175.906V289.64ZM181.902 289.64H186.252V290.61H183.062V292.66H185.762V293.64H183.062V296.02H186.362V297H181.902V289.64ZM187.888 289.64H189.048V293.12H189.078L191.878 289.64H193.168L190.888 292.48L193.548 297H192.258L190.178 293.4L189.048 294.78V297H187.888V289.64ZM199.945 293.14C200.815 293.41 201.305 294.02 201.305 294.94C201.305 296.41 200.075 297.08 198.775 297.08C197.415 297.08 196.245 296.38 196.245 294.94C196.245 294.01 196.735 293.41 197.615 293.14C196.875 292.86 196.495 292.27 196.495 291.49C196.495 290.24 197.595 289.53 198.775 289.53C199.955 289.53 201.055 290.24 201.055 291.49C201.055 292.27 200.675 292.86 199.945 293.14ZM198.775 290.37C198.065 290.37 197.565 290.8 197.565 291.51C197.565 292.29 198.025 292.73 198.775 292.73C199.515 292.73 199.985 292.28 199.985 291.51C199.985 290.78 199.455 290.37 198.775 290.37ZM198.775 296.21C199.545 296.21 200.175 295.77 200.175 294.92C200.175 294.05 199.575 293.61 198.775 293.61C197.975 293.61 197.375 294.04 197.375 294.92C197.375 295.73 197.965 296.21 198.775 296.21Z" fill="#F48096"/>
<path d="M166.22 368.64H167.42L168.11 372.47L168.5 374.83H168.54C168.7 374.03 168.87 373.27 169.04 372.47L169.99 368.64H171.01L171.97 372.47C172.14 373.24 172.3 374.03 172.47 374.83H172.52C172.64 374.03 172.77 373.24 172.89 372.47L173.59 368.64H174.7L173.25 376H171.82L170.83 371.91C170.7 371.31 170.6 370.78 170.49 370.22H170.44C170.33 370.78 170.22 371.31 170.1 371.91L169.13 376H167.73L166.22 368.64ZM175.906 368.64H180.256V369.61H177.066V371.66H179.766V372.64H177.066V375.02H180.366V376H175.906V368.64ZM181.902 368.64H186.252V369.61H183.062V371.66H185.762V372.64H183.062V375.02H186.362V376H181.902V368.64ZM187.888 368.64H189.048V372.12H189.078L191.878 368.64H193.168L190.888 371.48L193.548 376H192.258L190.178 372.4L189.048 373.78V376H187.888V368.64ZM197.375 371.04L196.765 370.3L198.765 368.59H199.665V375.04H201.055V376H197.025V375.04H198.565V370.53C198.565 370.37 198.565 370.2 198.575 370.03L197.375 371.04ZM207.422 372.31C207.422 374.07 206.782 376.08 204.722 376.08C202.662 376.08 202.032 374.07 202.032 372.31C202.032 370.55 202.662 368.53 204.722 368.53C206.812 368.53 207.422 370.61 207.422 372.31ZM206.282 372.31C206.282 371.28 206.102 369.46 204.722 369.46C203.342 369.46 203.162 371.28 203.162 372.31C203.162 373.34 203.352 375.16 204.722 375.16C206.102 375.16 206.282 373.34 206.282 372.31Z" fill="#F48096"/>
<path d="M0 32.3604L318 32.3604" stroke="#F48096" stroke-width="2"/>
<path d="M0 507L318 507" stroke="#F48096" stroke-width="2"/>
<path d="M5.42 163.2H4.39V166H2.91V158.6H5.49C7.05 158.6 8.27 159.13 8.27 160.84C8.27 161.97 7.71 162.64 6.86 162.97L8.59 166H6.94L5.42 163.2ZM5.35 162.03C6.31 162.03 6.82 161.64 6.82 160.84C6.82 160.04 6.31 159.77 5.35 159.77H4.39V162.03H5.35ZM12.0364 166.14C10.4764 166.14 9.25641 165.05 9.25641 163.21C9.25641 161.4 10.5364 160.26 11.8664 160.26C13.4064 160.26 14.2064 161.39 14.2064 162.94C14.2064 163.21 14.1764 163.48 14.1364 163.61H10.6864C10.8064 164.53 11.3964 165.01 12.2364 165.01C12.7064 165.01 13.0964 164.87 13.4964 164.62L13.9964 165.52C13.4364 165.91 12.7564 166.14 12.0364 166.14ZM12.9464 162.64C12.9464 161.88 12.6064 161.4 11.8864 161.4C11.2964 161.4 10.7764 161.83 10.6664 162.64H12.9464ZM16.797 166.1C15.797 166.1 15.137 165.45 15.137 164.48C15.067 163.11 16.037 162.48 18.357 162.41C18.387 162.17 18.337 161.93 18.227 161.7C18.107 161.53 17.837 161.44 17.407 161.44C16.887 161.44 16.297 161.64 15.787 161.97L15.347 160.92C15.957 160.55 16.797 160.26 17.677 160.26C19.107 160.26 19.827 161.08 19.827 162.73V166H18.627L18.517 165.43H18.487C18.007 165.84 17.437 166.1 16.797 166.1ZM17.247 164.98C17.677 164.97 18.007 164.79 18.357 164.44V163.31C18.007 163.34 17.667 163.37 17.347 163.42C16.707 163.51 16.477 163.83 16.487 164.23C16.497 164.7 16.817 164.98 17.247 164.98ZM23.7052 166.14C22.1552 166.14 20.9752 165.05 20.9752 163.21C20.9752 161.34 22.3152 160.26 23.8352 160.26C24.5252 160.26 25.0552 160.53 25.4652 160.88L24.7652 161.83C24.4852 161.59 24.2252 161.46 23.9052 161.46C23.0552 161.46 22.4752 162.13 22.4752 163.21C22.4752 164.06 22.8952 164.94 23.8652 164.94C24.2652 164.94 24.6452 164.76 24.9552 164.49L25.5352 165.46C25.0052 165.93 24.3452 166.14 23.7052 166.14ZM28.6486 166.14C27.3186 166.14 26.8086 165.3 26.8086 164.04V161.56H26.0186V160.47L26.8786 160.4L27.0486 158.9H28.2786V160.4H29.6586V161.56H28.2786V164.04C28.2786 164.67 28.5286 164.98 29.0386 164.98C29.2286 164.98 29.4386 164.93 29.5886 164.86L29.8286 165.93C29.5186 166.04 29.1386 166.14 28.6486 166.14ZM40.3734 166.85H39.0434V157.64H40.3734V166.85ZM37.6334 158.6C37.6334 161.41 36.6834 163.73 33.4134 165.3L32.7234 164.26C35.0734 163.14 36.0934 161.69 36.2834 159.65H33.2134V158.6H37.6334ZM42.1727 162.24C44.2727 162 45.2827 160.95 45.3927 159.95H42.6227V158.9H45.4127V157.77H46.7327V158.9H49.5227V159.95H46.7527C46.8627 160.95 47.8727 162 49.9727 162.24L49.5027 163.28C47.7727 163.05 46.6827 162.4 46.0727 161.44C45.4627 162.4 44.3727 163.05 42.6427 163.28L42.1727 162.24ZM50.2427 165.81H41.9027V164.74H45.4127V162.96H46.7327V164.74H50.2427V165.81Z" fill="#D5D5D5"/>
<path d="M169.42 163.2H168.39V166H166.91V158.6H169.49C171.05 158.6 172.27 159.13 172.27 160.84C172.27 161.97 171.71 162.64 170.86 162.97L172.59 166H170.94L169.42 163.2ZM169.35 162.03C170.31 162.03 170.82 161.64 170.82 160.84C170.82 160.04 170.31 159.77 169.35 159.77H168.39V162.03H169.35ZM176.036 166.14C174.476 166.14 173.256 165.05 173.256 163.21C173.256 161.4 174.536 160.26 175.866 160.26C177.406 160.26 178.206 161.39 178.206 162.94C178.206 163.21 178.176 163.48 178.136 163.61H174.686C174.806 164.53 175.396 165.01 176.236 165.01C176.706 165.01 177.096 164.87 177.496 164.62L177.996 165.52C177.436 165.91 176.756 166.14 176.036 166.14ZM176.946 162.64C176.946 161.88 176.606 161.4 175.886 161.4C175.296 161.4 174.776 161.83 174.666 162.64H176.946ZM180.797 166.1C179.797 166.1 179.137 165.45 179.137 164.48C179.067 163.11 180.037 162.48 182.357 162.41C182.387 162.17 182.337 161.93 182.227 161.7C182.107 161.53 181.837 161.44 181.407 161.44C180.887 161.44 180.297 161.64 179.787 161.97L179.347 160.92C179.957 160.55 180.797 160.26 181.677 160.26C183.107 160.26 183.827 161.08 183.827 162.73V166H182.627L182.517 165.43H182.487C182.007 165.84 181.437 166.1 180.797 166.1ZM181.247 164.98C181.677 164.97 182.007 164.79 182.357 164.44V163.31C182.007 163.34 181.667 163.37 181.347 163.42C180.707 163.51 180.477 163.83 180.487 164.23C180.497 164.7 180.817 164.98 181.247 164.98ZM187.705 166.14C186.155 166.14 184.975 165.05 184.975 163.21C184.975 161.34 186.315 160.26 187.835 160.26C188.525 160.26 189.055 160.53 189.465 160.88L188.765 161.83C188.485 161.59 188.225 161.46 187.905 161.46C187.055 161.46 186.475 162.13 186.475 163.21C186.475 164.06 186.895 164.94 187.865 164.94C188.265 164.94 188.645 164.76 188.955 164.49L189.535 165.46C189.005 165.93 188.345 166.14 187.705 166.14ZM192.649 166.14C191.319 166.14 190.809 165.3 190.809 164.04V161.56H190.019V160.47L190.879 160.4L191.049 158.9H192.279V160.4H193.659V161.56H192.279V164.04C192.279 164.67 192.529 164.98 193.039 164.98C193.229 164.98 193.439 164.93 193.589 164.86L193.829 165.93C193.519 166.04 193.139 166.14 192.649 166.14ZM198.663 158.6V161.51H201.463V158.6H202.933V166H201.463V162.8H198.663V166H197.183V158.6H198.663ZM206.972 166.14C205.572 166.14 204.282 165.05 204.282 163.21C204.282 161.34 205.572 160.26 206.972 160.26C208.372 160.26 209.662 161.34 209.662 163.21C209.662 165.05 208.372 166.14 206.972 166.14ZM206.972 164.94C207.732 164.94 208.162 164.26 208.162 163.21C208.162 162.13 207.732 161.46 206.972 161.46C206.212 161.46 205.782 162.13 205.782 163.21C205.782 164.26 206.212 164.94 206.972 164.94ZM213.232 166.14C211.832 166.14 210.542 165.05 210.542 163.21C210.542 161.34 211.832 160.26 213.232 160.26C214.632 160.26 215.922 161.34 215.922 163.21C215.922 165.05 214.632 166.14 213.232 166.14ZM213.232 164.94C213.992 164.94 214.422 164.26 214.422 163.21C214.422 162.13 213.992 161.46 213.232 161.46C212.472 161.46 212.042 162.13 212.042 163.21C212.042 164.26 212.472 164.94 213.232 164.94ZM218.581 158.02V162.82H218.621L220.561 160.4H222.161L220.221 162.69L222.341 166H220.751L219.391 163.68L218.581 164.6V166H217.151V158.02H218.581ZM224.806 166.14C224.046 166.14 223.236 165.82 222.676 165.35L223.346 164.43C223.856 164.82 224.326 165.04 224.846 165.04C225.406 165.04 225.656 164.8 225.656 164.45C225.656 164.03 225.076 163.85 224.486 163.61C223.776 163.35 222.956 162.91 222.956 161.98C222.956 160.97 223.786 160.26 225.036 160.26C225.876 160.26 226.476 160.6 226.946 160.95L226.286 161.84C225.886 161.56 225.506 161.36 225.076 161.36C224.566 161.36 224.336 161.58 224.336 161.9C224.336 162.3 224.886 162.47 225.476 162.68C226.216 162.97 227.036 163.32 227.036 164.37C227.036 165.35 226.266 166.14 224.806 166.14Z" fill="#D5D5D5"/>
<path d="M10.13 241.9H8.81V240.02H7.2V238.95H8.81V236.65H10.13V241.9ZM7.26 237.1C7.26 239.62 6.08 241.31 3.09 242.22L2.58 241.18C3.83 240.82 4.65 240.35 5.17 239.75L2.77 239.93L2.59 238.91L5.72 238.8C5.79 238.59 5.83 238.38 5.86 238.15H3.05V237.1H7.26ZM10.13 242.32V245.76H4.07V242.32H10.13ZM8.83 244.72V243.35H5.37V244.72H8.83ZM19.9692 244.82H11.6292V243.76H15.1192V242.12H12.3292V241.07H13.5292V238.46H12.2792V237.41H19.2792V238.46H18.0292V241.07H19.2492V242.12H16.4392V243.76H19.9692V244.82ZM16.7192 241.07V238.46H14.8392V241.07H16.7192ZM24.9684 239.52V238.45H27.2084V236.66H28.5284V243.24H27.2084V239.52H24.9684ZM26.2884 241.61C24.8384 241.9 23.4684 241.97 22.0984 241.97H21.3284V237.28H22.6384V240.87C23.8084 240.84 24.9084 240.75 26.1184 240.52L26.2884 241.61ZM28.7384 245.7H22.4584V242.72H23.7784V244.65H28.7384V245.7ZM31.0077 242.44V237.32H37.4077V238.38H32.3477V239.35H37.1977V240.37H32.3477V241.4H37.4777V242.44H31.0077ZM38.3677 244.8H30.0277V243.73H38.3677V244.8ZM48.9825 242.09C47.3725 241.77 46.2125 240.88 45.6125 239.71C45.0125 240.88 43.8625 241.78 42.2525 242.09L41.6925 240.99C43.7725 240.64 44.9125 239.16 44.9125 237.85V237.19H46.3225V237.85C46.3225 239.18 47.4625 240.64 49.5425 240.99L48.9825 242.09ZM49.8325 244.74H41.4925V243.67H49.8325V244.74ZM57.9017 241.23V245.87H56.5817V236.65H57.9017V240.14H59.2417V241.23H57.9017ZM52.3717 242.72C53.6617 242.72 54.7317 242.67 55.9317 242.48L56.0517 243.53C54.6417 243.74 53.4317 243.78 51.8317 243.78H51.0517V237.41H55.3817V238.48H52.3717V239.98H55.2517V241.01H52.3717V242.72ZM66.2109 241.26V236.65H67.5409V241.26H66.2109ZM64.9409 239.02C64.9409 240.26 63.8909 241.13 62.4909 241.13C61.0909 241.13 60.0209 240.26 60.0209 239.02C60.0209 237.79 61.0909 236.92 62.4909 236.92C63.8909 236.92 64.9409 237.79 64.9409 239.02ZM61.3009 239.02C61.3009 239.7 61.8109 240.06 62.4909 240.06C63.1709 240.06 63.6609 239.7 63.6609 239.02C63.6609 238.37 63.1709 237.98 62.4909 237.98C61.8109 237.98 61.3009 238.37 61.3009 239.02ZM67.7709 245.76H61.4109V243.21H66.2309V242.65H61.4009V241.64H67.5409V244.15H62.7209V244.73H67.7709V245.76ZM75.4102 242.24V236.65H76.7402V242.24H75.4102ZM74.8002 241.6C73.4302 241.84 72.2102 241.87 70.3702 241.87H69.5602V239.02H72.4902V238.24H69.5502V237.19H73.7902V240H70.8602V240.81C72.3802 240.81 73.4502 240.76 74.6502 240.55L74.8002 241.6ZM73.6402 242.41C75.6002 242.41 76.8002 243.05 76.8002 244.14C76.8002 245.23 75.6002 245.87 73.6402 245.87C71.6902 245.87 70.4902 245.23 70.4902 244.14C70.4902 243.05 71.6902 242.41 73.6402 242.41ZM73.6402 244.85C74.8702 244.85 75.4802 244.61 75.4802 244.14C75.4802 243.67 74.8702 243.44 73.6402 243.44C72.4202 243.44 71.8102 243.67 71.8102 244.14C71.8102 244.61 72.4202 244.85 73.6402 244.85Z" fill="#D5D5D5"/>
<path d="M10.06 317.88H8.74V308.64H10.06V317.88ZM4.19 311.61H6.11V309.38H7.42V315.73H2.88V309.38H4.19V311.61ZM6.11 314.68V312.64H4.19V314.68H6.11ZM19.9692 314.03H11.6392V312.98H15.1392V312.22H12.6492V309.04H18.9692V310.09H13.9592V311.17H19.0192V312.22H16.4592V312.98H19.9692V314.03ZM15.7692 314.48C17.7592 314.48 18.9692 315.09 18.9692 316.18C18.9692 317.26 17.7592 317.87 15.7692 317.87C13.7792 317.87 12.5792 317.26 12.5792 316.18C12.5792 315.09 13.7792 314.48 15.7692 314.48ZM15.7692 316.87C17.0192 316.87 17.6292 316.66 17.6292 316.18C17.6292 315.71 17.0092 315.48 15.7692 315.48C14.5292 315.48 13.9092 315.71 13.9092 316.18C13.9092 316.66 14.5192 316.87 15.7692 316.87ZM28.4984 317.85H27.1684V308.64H28.4984V317.85ZM25.7584 309.6C25.7584 312.41 24.8084 314.73 21.5384 316.3L20.8484 315.26C23.1984 314.14 24.2184 312.69 24.4084 310.65H21.3384V309.6H25.7584ZM40.6133 314.43H32.2833V313.4H35.7833V312.83H33.3233V308.89H39.6633V309.89H34.6333V310.37H39.4533V311.33H34.6333V311.83H39.7333V312.83H37.1033V313.4H40.6133V314.43ZM36.4333 314.84C38.5433 314.84 39.6333 315.35 39.6333 316.35C39.6333 317.35 38.5433 317.86 36.4333 317.86C34.3433 317.86 33.2433 317.35 33.2433 316.35C33.2433 315.35 34.3433 314.84 36.4333 314.84ZM36.4333 316.9C37.7233 316.9 38.3033 316.74 38.3033 316.35C38.3033 315.96 37.7233 315.81 36.4333 315.81C35.1433 315.81 34.5733 315.96 34.5733 316.35C34.5733 316.74 35.1433 316.9 36.4333 316.9ZM47.8125 315.37V308.66H49.1425V315.37H47.8125ZM46.4625 313.98C45.4225 313.63 44.7425 312.97 44.3425 312.09C43.9125 313.02 43.2125 313.77 42.1325 314.14L41.4625 313.09C42.9925 312.58 43.6525 311.26 43.6525 310.06V309.16H44.9925V310.06C44.9925 311.27 45.6425 312.45 47.1325 312.93L46.4625 313.98ZM49.3725 317.7H43.0125V314.73H44.3325V316.65H49.3725V317.7ZM54.8673 318.62C53.9173 317.07 53.3773 315.45 53.3773 313.44C53.3773 311.44 53.9173 309.82 54.8673 308.27L55.7873 308.66C54.9473 310.15 54.5673 311.73 54.5673 313.44C54.5673 315.17 54.9473 316.74 55.7873 318.23L54.8673 318.62ZM59.6466 309.6C61.2766 309.6 62.5466 310.16 62.5466 311.92C62.5466 313.61 61.2766 314.37 59.6866 314.37H58.6966V317H57.2166V309.6H59.6466ZM59.5866 313.2C60.5966 313.2 61.0966 312.77 61.0966 311.92C61.0966 311.05 60.5666 310.77 59.5366 310.77H58.6966V313.2H59.5866ZM64.9666 311.4L65.0666 312.39H65.1066C65.5166 311.66 66.0966 311.26 66.6966 311.26C67.0066 311.26 67.1866 311.31 67.3566 311.38L67.0966 312.65C66.9066 312.58 66.7466 312.56 66.5166 312.56C66.0766 312.56 65.5466 312.85 65.2266 313.66V317H63.7666V311.4H64.9666ZM70.462 317.14C69.062 317.14 67.772 316.05 67.772 314.21C67.772 312.34 69.062 311.26 70.462 311.26C71.862 311.26 73.152 312.34 73.152 314.21C73.152 316.05 71.862 317.14 70.462 317.14ZM70.462 315.94C71.222 315.94 71.652 315.26 71.652 314.21C71.652 313.13 71.222 312.46 70.462 312.46C69.702 312.46 69.272 313.13 69.272 314.21C69.272 315.26 69.702 315.94 70.462 315.94ZM75.5818 311.4L75.6818 312.15H75.7218C76.1918 311.66 76.7118 311.26 77.4418 311.26C78.2418 311.26 78.7118 311.6 78.9818 312.24C79.4918 311.68 80.0318 311.26 80.7618 311.26C81.9618 311.26 82.5018 312.1 82.5018 313.51V317H81.0318V313.69C81.0318 312.81 80.7818 312.52 80.2518 312.52C79.9318 312.52 79.5718 312.73 79.1718 313.15V317H77.7018V313.69C77.7018 312.81 77.4518 312.52 76.9218 312.52C76.6018 312.52 76.2418 312.73 75.8418 313.15V317H74.3818V311.4H75.5818ZM83.8905 310.5V309.08H85.3505V310.5H83.8905ZM83.8805 311.4H85.3405V317H83.8805V311.4ZM88.3841 317.14C87.6241 317.14 86.8141 316.82 86.2541 316.35L86.9241 315.43C87.4341 315.82 87.9041 316.04 88.4241 316.04C88.9841 316.04 89.2341 315.8 89.2341 315.45C89.2341 315.03 88.6541 314.85 88.0641 314.61C87.3541 314.35 86.5341 313.91 86.5341 312.98C86.5341 311.97 87.3641 311.26 88.6141 311.26C89.4541 311.26 90.0541 311.6 90.5241 311.95L89.8641 312.84C89.4641 312.56 89.0841 312.36 88.6541 312.36C88.1441 312.36 87.9141 312.58 87.9141 312.9C87.9141 313.3 88.4641 313.47 89.0541 313.68C89.7941 313.97 90.6141 314.32 90.6141 315.37C90.6141 316.35 89.8441 317.14 88.3841 317.14ZM94.1653 317.14C92.6053 317.14 91.3853 316.05 91.3853 314.21C91.3853 312.4 92.6653 311.26 93.9953 311.26C95.5353 311.26 96.3353 312.39 96.3353 313.94C96.3353 314.21 96.3053 314.48 96.2653 314.61H92.8153C92.9353 315.53 93.5253 316.01 94.3653 316.01C94.8353 316.01 95.2253 315.87 95.6253 315.62L96.1253 316.52C95.5653 316.91 94.8853 317.14 94.1653 317.14ZM95.0753 313.64C95.0753 312.88 94.7353 312.4 94.0153 312.4C93.4253 312.4 92.9053 312.83 92.7953 313.64H95.0753ZM98.8159 315.73L98.0759 317.82H96.9459L97.3559 315.73H98.8159ZM7.47 325.6V326.83H4.39V328.76H7.02V330H4.39V333H2.91V325.6H7.47ZM10.8841 333.14C9.32406 333.14 8.10406 332.05 8.10406 330.21C8.10406 328.4 9.38406 327.26 10.7141 327.26C12.2541 327.26 13.0541 328.39 13.0541 329.94C13.0541 330.21 13.0241 330.48 12.9841 330.61H9.53406C9.65406 331.53 10.2441 332.01 11.0841 332.01C11.5541 332.01 11.9441 331.87 12.3441 331.62L12.8441 332.52C12.2841 332.91 11.6041 333.14 10.8841 333.14ZM11.7941 329.64C11.7941 328.88 11.4541 328.4 10.7341 328.4C10.1441 328.4 9.62406 328.83 9.51406 329.64H11.7941ZM16.3146 333.14C14.9846 333.14 14.4746 332.3 14.4746 331.04V328.56H13.6846V327.47L14.5446 327.4L14.7146 325.9H15.9446V327.4H17.3246V328.56H15.9446V331.04C15.9446 331.67 16.1946 331.98 16.7046 331.98C16.8946 331.98 17.1046 331.93 17.2546 331.86L17.4946 332.93C17.1846 333.04 16.8046 333.14 16.3146 333.14ZM20.6583 333.14C19.1083 333.14 17.9283 332.05 17.9283 330.21C17.9283 328.34 19.2683 327.26 20.7883 327.26C21.4783 327.26 22.0083 327.53 22.4183 327.88L21.7183 328.83C21.4383 328.59 21.1783 328.46 20.8583 328.46C20.0083 328.46 19.4283 329.13 19.4283 330.21C19.4283 331.06 19.8483 331.94 20.8183 331.94C21.2183 331.94 21.5983 331.76 21.9083 331.49L22.4883 332.46C21.9583 332.93 21.2983 333.14 20.6583 333.14ZM25.0117 325.02V327.03L24.9517 328.08C25.4017 327.65 25.9517 327.26 26.7117 327.26C27.9217 327.26 28.4417 328.1 28.4417 329.51V333H26.9717V329.69C26.9717 328.82 26.7417 328.52 26.1817 328.52C25.7117 328.52 25.4417 328.74 25.0117 329.15V333H23.5517V325.02H25.0117ZM31.2182 331.73L30.4782 333.82H29.3482L29.7582 331.73H31.2182ZM35.855 331.1L35.335 333H33.835L36.205 325.6H37.945L40.325 333H38.775L38.255 331.1H35.855ZM37.715 329.14C37.485 328.37 37.295 327.52 37.065 326.72H37.025C36.835 327.53 36.625 328.37 36.395 329.14L36.175 329.95H37.935L37.715 329.14ZM40.5513 327.4H42.1313L42.6913 328.4C42.8613 328.72 43.0213 329.03 43.1913 329.34H43.2313C43.3613 329.03 43.5113 328.71 43.6413 328.4L44.1113 327.4H45.6313L43.9913 330.25L45.7413 333H44.1613L43.5413 331.98C43.3513 331.65 43.1913 331.31 43.0013 330.99H42.9513C42.7913 331.31 42.6413 331.63 42.4813 331.98L41.9613 333H40.4413L42.1913 330.08L40.5513 327.4ZM46.5565 326.5V325.08H48.0165V326.5H46.5565ZM46.5465 327.4H48.0065V333H46.5465V327.4ZM51.7902 333.14C50.3902 333.14 49.1002 332.05 49.1002 330.21C49.1002 328.34 50.3902 327.26 51.7902 327.26C53.1902 327.26 54.4802 328.34 54.4802 330.21C54.4802 332.05 53.1902 333.14 51.7902 333.14ZM51.7902 331.94C52.5502 331.94 52.9802 331.26 52.9802 330.21C52.9802 329.13 52.5502 328.46 51.7902 328.46C51.0302 328.46 50.6002 329.13 50.6002 330.21C50.6002 331.26 51.0302 331.94 51.7902 331.94ZM57.3099 333.14C56.5499 333.14 55.7399 332.82 55.1799 332.35L55.8499 331.43C56.3599 331.82 56.8299 332.04 57.3499 332.04C57.9099 332.04 58.1599 331.8 58.1599 331.45C58.1599 331.03 57.5799 330.85 56.9899 330.61C56.2799 330.35 55.4599 329.91 55.4599 328.98C55.4599 327.97 56.2899 327.26 57.5399 327.26C58.3799 327.26 58.9799 327.6 59.4499 327.95L58.7899 328.84C58.3899 328.56 58.0099 328.36 57.5799 328.36C57.0699 328.36 56.8399 328.58 56.8399 328.9C56.8399 329.3 57.3899 329.47 57.9799 329.68C58.7199 329.97 59.5399 330.32 59.5399 331.37C59.5399 332.35 58.7699 333.14 57.3099 333.14ZM60.3911 334.23C61.2311 332.74 61.6111 331.17 61.6111 329.44C61.6111 327.73 61.2311 326.15 60.3911 324.66L61.3011 324.27C62.2611 325.82 62.8011 327.44 62.8011 329.44C62.8011 331.45 62.2511 333.07 61.3011 334.62L60.3911 334.23Z" fill="#D5D5D5"/>
<path d="M10.33 403.85H9.08V399.22H8.31V403.45H7.08V394.79H8.31V398.16H9.08V394.64H10.33V403.85ZM6.32 395.46V401.68H2.69V395.46H3.93V397.54H5.11V395.46H6.32ZM3.93 398.57V400.63H5.11V398.57H3.93ZM19.9692 402.82H11.6292V401.76H15.1192V400.12H12.3292V399.07H13.5292V396.46H12.2792V395.41H19.2792V396.46H18.0292V399.07H19.2492V400.12H16.4392V401.76H19.9692V402.82ZM16.7192 399.07V396.46H14.8392V399.07H16.7192Z" fill="#D5D5D5"/>
<path d="M168.52 80.14C167.44 80.14 166.73 79.72 166.22 78.84L167.24 78.09C167.53 78.65 167.91 78.86 168.34 78.86C168.99 78.86 169.33 78.52 169.33 77.49V72.6H170.81V77.61C170.81 79 170.11 80.14 168.52 80.14ZM173.854 80.1C172.854 80.1 172.194 79.45 172.194 78.48C172.124 77.11 173.094 76.48 175.414 76.41C175.444 76.17 175.394 75.93 175.284 75.7C175.164 75.53 174.894 75.44 174.464 75.44C173.944 75.44 173.354 75.64 172.844 75.97L172.404 74.92C173.014 74.55 173.854 74.26 174.734 74.26C176.164 74.26 176.884 75.08 176.884 76.73V80H175.684L175.574 79.43H175.544C175.064 79.84 174.494 80.1 173.854 80.1ZM174.304 78.98C174.734 78.97 175.064 78.79 175.414 78.44V77.31C175.064 77.34 174.724 77.37 174.404 77.42C173.764 77.51 173.534 77.83 173.544 78.23C173.554 78.7 173.874 78.98 174.304 78.98ZM179.212 74.4L180.032 77.19C180.182 77.75 180.332 78.32 180.482 78.89H180.532C180.682 78.32 180.832 77.75 180.982 77.19L181.802 74.4H183.212L181.342 80H179.642L177.732 74.4H179.212ZM185.289 80.1C184.289 80.1 183.629 79.45 183.629 78.48C183.559 77.11 184.529 76.48 186.849 76.41C186.879 76.17 186.829 75.93 186.719 75.7C186.599 75.53 186.329 75.44 185.899 75.44C185.379 75.44 184.789 75.64 184.279 75.97L183.839 74.92C184.449 74.55 185.289 74.26 186.169 74.26C187.599 74.26 188.319 75.08 188.319 76.73V80H187.119L187.009 79.43H186.979C186.499 79.84 185.929 80.1 185.289 80.1ZM185.739 78.98C186.169 78.97 186.499 78.79 186.849 78.44V77.31C186.499 77.34 186.159 77.37 185.839 77.42C185.199 77.51 184.969 77.83 184.979 78.23C184.989 78.7 185.309 78.98 185.739 78.98ZM192.147 80.14C191.147 80.14 190.167 79.75 189.447 79.06L190.297 78.04C190.827 78.53 191.527 78.86 192.177 78.86C192.947 78.86 193.357 78.53 193.357 78.01C193.357 77.45 192.917 77.3 192.247 77.01L191.257 76.59C190.507 76.27 189.757 75.68 189.757 74.6C189.757 73.39 190.827 72.46 192.317 72.46C193.197 72.46 194.037 72.8 194.637 73.41L193.887 74.34C193.417 73.95 192.927 73.73 192.317 73.73C191.667 73.73 191.247 74.02 191.247 74.51C191.247 75.01 191.777 75.24 192.407 75.48L193.377 75.89C194.297 76.26 194.867 76.82 194.867 77.9C194.867 79.11 193.857 80.14 192.147 80.14ZM198.438 80.14C196.888 80.14 195.708 79.05 195.708 77.21C195.708 75.34 197.048 74.26 198.568 74.26C199.258 74.26 199.788 74.53 200.198 74.88L199.498 75.83C199.218 75.59 198.958 75.46 198.638 75.46C197.788 75.46 197.208 76.13 197.208 77.21C197.208 78.06 197.628 78.94 198.598 78.94C198.998 78.94 199.378 78.76 199.688 78.49L200.268 79.46C199.738 79.93 199.078 80.14 198.438 80.14ZM202.531 74.4L202.631 75.39H202.671C203.081 74.66 203.661 74.26 204.261 74.26C204.571 74.26 204.751 74.31 204.921 74.38L204.661 75.65C204.471 75.58 204.311 75.56 204.081 75.56C203.641 75.56 203.111 75.85 202.791 76.66V80H201.331V74.4H202.531ZM205.556 73.5V72.08H207.016V73.5H205.556ZM205.546 74.4H207.006V80H205.546V74.4ZM209.65 74.4L209.75 74.98H209.79C210.26 74.58 210.84 74.26 211.44 74.26C212.82 74.26 213.64 75.39 213.64 77.11C213.64 79.03 212.49 80.14 211.26 80.14C210.77 80.14 210.3 79.92 209.87 79.53L209.91 80.45V82.15H208.45V74.4H209.65ZM210.93 78.93C211.61 78.93 212.13 78.37 212.13 77.13C212.13 76.05 211.79 75.47 211.02 75.47C210.63 75.47 210.3 75.66 209.91 76.05V78.51C210.27 78.82 210.62 78.93 210.93 78.93ZM216.653 80.14C215.323 80.14 214.813 79.3 214.813 78.04V75.56H214.023V74.47L214.883 74.4L215.053 72.9H216.283V74.4H217.663V75.56H216.283V78.04C216.283 78.67 216.533 78.98 217.043 78.98C217.233 78.98 217.443 78.93 217.593 78.86L217.833 79.93C217.523 80.04 217.143 80.14 216.653 80.14ZM228.377 80.85H227.047V71.64H228.377V80.85ZM225.637 72.6C225.637 75.41 224.687 77.73 221.417 79.3L220.727 78.26C223.077 77.14 224.097 75.69 224.287 73.65H221.217V72.6H225.637ZM230.177 76.24C232.277 76 233.287 74.95 233.397 73.95H230.627V72.9H233.417V71.77H234.737V72.9H237.527V73.95H234.757C234.867 74.95 235.877 76 237.977 76.24L237.507 77.28C235.777 77.05 234.687 76.4 234.077 75.44C233.467 76.4 232.377 77.05 230.647 77.28L230.177 76.24ZM238.247 79.81H229.907V78.74H233.417V76.96H234.737V78.74H238.247V79.81Z" fill="#D5D5D5"/>
<path d="M6.2 75.15C6.41 74.31 6.44 73.71 6.44 73.1H1.38V72.06H7.76V72.82C7.76 73.55 7.75 74.32 7.5 75.28L6.2 75.15ZM8.74 76.81H0.45V75.77H3.52V74.16H4.84V75.77H8.74V76.81ZM4.54 77.39C6.53 77.39 7.81 78.05 7.81 79.13C7.81 80.2 6.53 80.86 4.54 80.86C2.56 80.86 1.28 80.2 1.28 79.13C1.28 78.05 2.56 77.39 4.54 77.39ZM4.54 79.87C5.79 79.87 6.5 79.62 6.5 79.13C6.5 78.62 5.79 78.38 4.54 78.38C3.29 78.38 2.59 78.62 2.59 79.13C2.59 79.62 3.29 79.87 4.54 79.87ZM17.9492 77.43H9.61922V76.4H13.1192V75.83H10.6592V71.89H16.9992V72.89H11.9692V73.37H16.7892V74.33H11.9692V74.83H17.0692V75.83H14.4392V76.4H17.9492V77.43ZM13.7692 77.84C15.8792 77.84 16.9692 78.35 16.9692 79.35C16.9692 80.35 15.8792 80.86 13.7692 80.86C11.6792 80.86 10.5792 80.35 10.5792 79.35C10.5792 78.35 11.6792 77.84 13.7692 77.84ZM13.7692 79.9C15.0592 79.9 15.6392 79.74 15.6392 79.35C15.6392 78.96 15.0592 78.81 13.7692 78.81C12.4792 78.81 11.9092 78.96 11.9092 79.35C11.9092 79.74 12.4792 79.9 13.7692 79.9ZM26.7284 80.86H25.4784V71.65H26.7284V80.86ZM24.8384 71.8V80.45H23.6084V75.83H22.4584V74.76H23.6084V71.8H24.8384ZM21.7684 73.95C21.7684 75.44 22.1684 76.97 23.4184 77.8L22.6984 78.82C21.8984 78.34 21.4284 77.56 21.1384 76.63C20.8184 77.67 20.2884 78.52 19.4484 79.03L18.6584 78.04C20.0084 77.22 20.4984 75.57 20.4984 74V72.45H21.7684V73.95ZM32.8777 75.68V74.62H34.4077V73.9H32.8777V72.85H34.4077V71.65H35.7277V78.47H34.4077V75.68H32.8777ZM32.7977 77.33C31.8377 76.94 31.1977 76.24 30.8077 75.36C30.4177 76.32 29.7177 77.05 28.6677 77.44L27.9777 76.41C29.4977 75.88 30.1277 74.56 30.1277 73.24V72.17H31.4677V73.24C31.4677 74.52 32.0577 75.75 33.5277 76.31L32.7977 77.33ZM35.9277 80.7H29.6477V77.85H30.9677V79.65H35.9277V80.7Z" fill="#D5D5D5"/>
<path d="M6.03633 95.97V96.67H2.73633V95.97H6.03633ZM12.6495 100.13C10.7195 100.13 9.34953 98.71 9.34953 96.34C9.34953 93.97 10.7595 92.53 12.7095 92.53C13.7295 92.53 14.3895 92.99 14.8195 93.44L14.3195 94.04C13.9495 93.65 13.4895 93.34 12.7295 93.34C11.2595 93.34 10.2995 94.47 10.2995 96.31C10.2995 98.16 11.1695 99.32 12.7395 99.32C13.2695 99.32 13.7795 99.16 14.0695 98.89V96.97H12.5195V96.2H14.9195V99.28C14.4495 99.77 13.6495 100.13 12.6495 100.13ZM16.4141 94.57H17.3241V100H16.4141V94.57ZM16.4241 93.45V92.51H17.3341V93.45H16.4241ZM20.7062 100.13C19.5462 100.13 19.1562 99.41 19.1562 98.32V95.31H18.3462V94.62L19.1962 94.57L19.3062 93.05H20.0662V94.57H21.5362V95.31H20.0662V98.34C20.0662 99.02 20.2662 99.39 20.9062 99.39C21.0962 99.39 21.3362 99.32 21.5262 99.25L21.7062 99.93C21.3962 100.04 21.0362 100.13 20.7062 100.13ZM29.632 99.93L28.842 99.08C28.272 99.64 27.532 99.96 26.602 100C25.232 100 24.482 99.27 24.392 98.14V98.01C24.392 97.13 24.932 96.42 25.892 95.98L25.832 95.9C25.472 95.49 25.112 94.99 25.082 94.39C25.082 93.32 25.622 92.77 26.692 92.73H26.742C27.612 92.73 28.282 93.28 28.312 94.2C28.312 95.1 27.692 95.72 26.932 96.12L28.802 98.07C29.012 97.82 29.252 97.33 29.422 96.45H30.192C29.962 97.52 29.582 98.15 29.272 98.56L30.622 99.93H29.632ZM26.692 93.37C26.122 93.42 25.762 93.74 25.762 94.31C25.762 94.62 25.902 94.91 26.342 95.48L26.492 95.64C27.002 95.32 27.582 94.89 27.582 94.23C27.552 93.72 27.232 93.37 26.742 93.37H26.692ZM26.342 96.5C25.692 96.85 25.142 97.35 25.142 98.14C25.142 98.81 25.762 99.29 26.612 99.29C27.342 99.26 27.882 98.99 28.332 98.55L26.342 96.5ZM36.7804 100.13C34.8504 100.13 33.4804 98.71 33.4804 96.34C33.4804 93.97 34.8904 92.53 36.8404 92.53C37.8604 92.53 38.5204 92.99 38.9504 93.44L38.4504 94.04C38.0804 93.65 37.6204 93.34 36.8604 93.34C35.3904 93.34 34.4304 94.47 34.4304 96.31C34.4304 98.16 35.3004 99.32 36.8704 99.32C37.4004 99.32 37.9104 99.16 38.2004 98.89V96.97H36.6504V96.2H39.0504V99.28C38.5804 99.77 37.7804 100.13 36.7804 100.13ZM40.5449 94.57H41.4549V100H40.5449V94.57ZM40.5549 93.45V92.51H41.4649V93.45H40.5549ZM44.837 100.13C43.677 100.13 43.287 99.41 43.287 98.32V95.31H42.477V94.62L43.327 94.57L43.437 93.05H44.197V94.57H45.667V95.31H44.197V98.34C44.197 99.02 44.397 99.39 45.037 99.39C45.227 99.39 45.467 99.32 45.657 99.25L45.837 99.93C45.527 100.04 45.167 100.13 44.837 100.13ZM47.9066 92.67V95.74H51.3266V92.67H52.2466V100H51.3266V96.54H47.9066V100H46.9766V92.67H47.9066ZM55.752 100.13C54.582 100.13 54.102 99.42 54.102 98.01V94.57H55.012V97.9C55.012 98.91 55.312 99.34 56.032 99.34C56.592 99.34 56.982 99.07 57.502 98.42V94.57H58.412V100H57.652L57.582 99.15H57.552C57.042 99.74 56.502 100.13 55.752 100.13ZM62.6362 100.13C62.1262 100.13 61.5662 99.88 61.0862 99.44H61.0562L60.9762 100H60.2462V92.04H61.1562V94.22L61.1262 95.2C61.6162 94.77 62.2262 94.43 62.8262 94.43C64.2362 94.43 64.9962 95.54 64.9962 97.19C64.9962 99.07 63.8762 100.13 62.6362 100.13ZM62.4862 99.37C63.3962 99.37 64.0462 98.56 64.0462 97.21C64.0462 96.01 63.6462 95.2 62.6162 95.2C62.1462 95.2 61.6762 95.46 61.1562 95.95V98.8C61.6362 99.23 62.1262 99.37 62.4862 99.37ZM73.2941 99.93L72.5041 99.08C71.9341 99.64 71.1941 99.96 70.2641 100C68.8941 100 68.1441 99.27 68.0541 98.14V98.01C68.0541 97.13 68.5941 96.42 69.5541 95.98L69.4941 95.9C69.1341 95.49 68.7741 94.99 68.7441 94.39C68.7441 93.32 69.2841 92.77 70.3541 92.73H70.4041C71.2741 92.73 71.9441 93.28 71.9741 94.2C71.9741 95.1 71.3541 95.72 70.5941 96.12L72.4641 98.07C72.6741 97.82 72.9141 97.33 73.0841 96.45H73.8541C73.6241 97.52 73.2441 98.15 72.9341 98.56L74.2841 99.93H73.2941ZM70.3541 93.37C69.7841 93.42 69.4241 93.74 69.4241 94.31C69.4241 94.62 69.5641 94.91 70.0041 95.48L70.1541 95.64C70.6641 95.32 71.2441 94.89 71.2441 94.23C71.2141 93.72 70.8941 93.37 70.4041 93.37H70.3541ZM70.0041 96.5C69.3541 96.85 68.8041 97.35 68.8041 98.14C68.8041 98.81 69.4241 99.29 70.2741 99.29C71.0041 99.26 71.5441 98.99 71.9941 98.55L70.0041 96.5ZM84.6425 97.32H83.8625V91.78H84.6425V97.32ZM82.2425 91.93H83.0125V97.3H82.2425V96.8H80.6725V96.21H82.2425V91.93ZM79.4525 94.75C78.2925 94.75 77.5125 94.24 77.5125 93.41C77.5125 92.58 78.2925 92.08 79.4525 92.08C80.6225 92.08 81.4025 92.57 81.4025 93.41C81.4025 94.25 80.6225 94.75 79.4525 94.75ZM79.4525 92.66C78.7225 92.66 78.2525 92.94 78.2525 93.41C78.2525 93.88 78.7225 94.16 79.4525 94.16C80.1825 94.16 80.6625 93.88 80.6625 93.41C80.6625 92.94 80.1825 92.66 79.4525 92.66ZM79.0825 95.85C78.3625 95.89 77.6925 95.89 77.1325 95.89L77.0325 95.25C78.2825 95.25 80.2625 95.23 81.7625 94.99L81.8225 95.56C81.2125 95.68 80.5425 95.76 79.8625 95.81V97.3H79.0825V95.85ZM84.6425 97.65V100.62H78.6125V97.65H79.4225V98.49H83.8425V97.65H84.6425ZM79.4225 99.12V99.97H83.8425V99.12H79.4225ZM95.888 100.74H95.068V91.77H95.888V100.74ZM93.258 92.74C93.258 95.33 92.078 97.6 89.088 99.07L88.648 98.4C91.058 97.25 92.258 95.53 92.428 93.4H89.058V92.74H93.258ZM98.1773 96.56C99.9173 96.29 101.377 95.23 101.377 93.85H98.4873V93.19H101.377V91.97H102.207V93.19H105.087V93.85H102.207C102.207 95.23 103.667 96.29 105.407 96.56L105.087 97.21C103.647 96.94 102.357 96.23 101.797 95.13C101.237 96.23 99.9373 96.94 98.4973 97.21L98.1773 96.56ZM105.867 99.61H97.7273V98.93H101.377V96.89H102.207V98.93H105.867V99.61ZM116.503 100.74H115.683V91.78H116.503V100.74ZM112.363 94.51C112.363 96.03 113.443 97.58 114.763 98.14L114.303 98.8C113.263 98.32 112.383 97.29 111.953 96.06C111.553 97.36 110.643 98.52 109.643 99.02L109.163 98.36C110.453 97.74 111.543 96.06 111.543 94.51V93.37H109.463V92.69H114.473V93.37H112.363V94.51ZM125.722 97.17H124.902V91.78H125.722V97.17ZM123.362 96.64C122.322 96.27 121.522 95.51 121.122 94.51C120.732 95.59 119.912 96.4 118.862 96.8L118.442 96.15C119.792 95.67 120.702 94.39 120.702 93.07V92.19H121.522V93.07C121.522 94.36 122.442 95.54 123.772 95.99L123.362 96.64ZM125.722 97.63V100.75H124.902V98.29H119.722V97.63H125.722Z" fill="#AAAAAA"/>
<path d="M169.42 235.2H168.39V238H166.91V230.6H169.49C171.05 230.6 172.27 231.13 172.27 232.84C172.27 233.97 171.71 234.64 170.86 234.97L172.59 238H170.94L169.42 235.2ZM169.35 234.03C170.31 234.03 170.82 233.64 170.82 232.84C170.82 232.04 170.31 231.77 169.35 231.77H168.39V234.03H169.35ZM175.946 238.14C174.546 238.14 173.256 237.05 173.256 235.21C173.256 233.34 174.546 232.26 175.946 232.26C177.346 232.26 178.636 233.34 178.636 235.21C178.636 237.05 177.346 238.14 175.946 238.14ZM175.946 236.94C176.706 236.94 177.136 236.26 177.136 235.21C177.136 234.13 176.706 233.46 175.946 233.46C175.186 233.46 174.756 234.13 174.756 235.21C174.756 236.26 175.186 236.94 175.946 236.94ZM181.526 238.14C180.326 238.14 179.806 237.3 179.806 235.9V232.4H181.276V235.71C181.276 236.59 181.496 236.88 182.056 236.88C182.526 236.88 182.806 236.69 183.196 236.18V232.4H184.666V238H183.466L183.356 237.2H183.316C182.836 237.77 182.296 238.14 181.526 238.14ZM188.283 238.14C186.953 238.14 186.443 237.3 186.443 236.04V233.56H185.653V232.47L186.513 232.4L186.683 230.9H187.913V232.4H189.293V233.56H187.913V236.04C187.913 236.67 188.163 236.98 188.673 236.98C188.863 236.98 189.073 236.93 189.223 236.86L189.463 237.93C189.153 238.04 188.773 238.14 188.283 238.14ZM192.677 238.14C191.117 238.14 189.897 237.05 189.897 235.21C189.897 233.4 191.177 232.26 192.507 232.26C194.047 232.26 194.847 233.39 194.847 234.94C194.847 235.21 194.817 235.48 194.777 235.61H191.327C191.447 236.53 192.037 237.01 192.877 237.01C193.347 237.01 193.737 236.87 194.137 236.62L194.637 237.52C194.077 237.91 193.397 238.14 192.677 238.14ZM193.587 234.64C193.587 233.88 193.247 233.4 192.527 233.4C191.937 233.4 191.417 233.83 191.307 234.64H193.587ZM197.258 232.4L197.358 233.39H197.398C197.808 232.66 198.388 232.26 198.988 232.26C199.298 232.26 199.478 232.31 199.648 232.38L199.388 233.65C199.198 233.58 199.038 233.56 198.808 233.56C198.368 233.56 197.838 233.85 197.518 234.66V238H196.058V232.4H197.258ZM204.229 239.62C203.279 238.07 202.739 236.45 202.739 234.44C202.739 232.44 203.279 230.82 204.229 229.27L205.149 229.66C204.309 231.15 203.929 232.73 203.929 234.44C203.929 236.17 204.309 237.74 205.149 239.23L204.229 239.62ZM209.088 235.2H208.058V238H206.578V230.6H209.158C210.718 230.6 211.938 231.13 211.938 232.84C211.938 233.97 211.378 234.64 210.528 234.97L212.258 238H210.608L209.088 235.2ZM209.018 234.03C209.978 234.03 210.488 233.64 210.488 232.84C210.488 232.04 209.978 231.77 209.018 231.77H208.058V234.03H209.018ZM215.704 238.14C214.144 238.14 212.924 237.05 212.924 235.21C212.924 233.4 214.204 232.26 215.534 232.26C217.074 232.26 217.874 233.39 217.874 234.94C217.874 235.21 217.844 235.48 217.804 235.61H214.354C214.474 236.53 215.064 237.01 215.904 237.01C216.374 237.01 216.764 236.87 217.164 236.62L217.664 237.52C217.104 237.91 216.424 238.14 215.704 238.14ZM216.614 234.64C216.614 233.88 216.274 233.4 215.554 233.4C214.964 233.4 214.444 233.83 214.334 234.64H216.614ZM220.465 238.1C219.465 238.1 218.805 237.45 218.805 236.48C218.735 235.11 219.705 234.48 222.025 234.41C222.055 234.17 222.005 233.93 221.895 233.7C221.775 233.53 221.505 233.44 221.075 233.44C220.555 233.44 219.965 233.64 219.455 233.97L219.015 232.92C219.625 232.55 220.465 232.26 221.345 232.26C222.775 232.26 223.495 233.08 223.495 234.73V238H222.295L222.185 237.43H222.155C221.675 237.84 221.105 238.1 220.465 238.1ZM220.915 236.98C221.345 236.97 221.675 236.79 222.025 236.44V235.31C221.675 235.34 221.335 235.37 221.015 235.42C220.375 235.51 220.145 235.83 220.155 236.23C220.165 236.7 220.485 236.98 220.915 236.98ZM227.373 238.14C225.823 238.14 224.643 237.05 224.643 235.21C224.643 233.34 225.983 232.26 227.503 232.26C228.193 232.26 228.723 232.53 229.133 232.88L228.433 233.83C228.153 233.59 227.893 233.46 227.573 233.46C226.723 233.46 226.143 234.13 226.143 235.21C226.143 236.06 226.563 236.94 227.533 236.94C227.933 236.94 228.313 236.76 228.623 236.49L229.203 237.46C228.673 237.93 228.013 238.14 227.373 238.14ZM232.317 238.14C230.987 238.14 230.477 237.3 230.477 236.04V233.56H229.687V232.47L230.547 232.4L230.717 230.9H231.947V232.4H233.327V233.56H231.947V236.04C231.947 236.67 232.197 236.98 232.707 236.98C232.897 236.98 233.107 236.93 233.257 236.86L233.497 237.93C233.187 238.04 232.807 238.14 232.317 238.14ZM239.361 235.2H238.331V238H236.851V230.6H239.431C240.991 230.6 242.211 231.13 242.211 232.84C242.211 233.97 241.651 234.64 240.801 234.97L242.531 238H240.881L239.361 235.2ZM239.291 234.03C240.251 234.03 240.761 233.64 240.761 232.84C240.761 232.04 240.251 231.77 239.291 231.77H238.331V234.03H239.291ZM245.888 238.14C244.488 238.14 243.198 237.05 243.198 235.21C243.198 233.34 244.488 232.26 245.888 232.26C247.288 232.26 248.578 233.34 248.578 235.21C248.578 237.05 247.288 238.14 245.888 238.14ZM245.888 236.94C246.648 236.94 247.078 236.26 247.078 235.21C247.078 234.13 246.648 233.46 245.888 233.46C245.128 233.46 244.698 234.13 244.698 235.21C244.698 236.26 245.128 236.94 245.888 236.94ZM251.468 238.14C250.268 238.14 249.748 237.3 249.748 235.9V232.4H251.218V235.71C251.218 236.59 251.438 236.88 251.998 236.88C252.468 236.88 252.748 236.69 253.138 236.18V232.4H254.608V238H253.408L253.298 237.2H253.258C252.778 237.77 252.238 238.14 251.468 238.14ZM258.225 238.14C256.895 238.14 256.385 237.3 256.385 236.04V233.56H255.595V232.47L256.455 232.4L256.625 230.9H257.855V232.4H259.235V233.56H257.855V236.04C257.855 236.67 258.105 236.98 258.615 236.98C258.805 236.98 259.015 236.93 259.165 236.86L259.405 237.93C259.095 238.04 258.715 238.14 258.225 238.14ZM262.618 238.14C261.058 238.14 259.838 237.05 259.838 235.21C259.838 233.4 261.118 232.26 262.448 232.26C263.988 232.26 264.788 233.39 264.788 234.94C264.788 235.21 264.758 235.48 264.718 235.61H261.268C261.388 236.53 261.978 237.01 262.818 237.01C263.288 237.01 263.678 236.87 264.078 236.62L264.578 237.52C264.018 237.91 263.338 238.14 262.618 238.14ZM263.528 234.64C263.528 233.88 263.188 233.4 262.468 233.4C261.878 233.4 261.358 233.83 261.248 234.64H263.528ZM267.199 232.4L267.299 233.39H267.339C267.749 232.66 268.329 232.26 268.929 232.26C269.239 232.26 269.419 232.31 269.589 232.38L269.329 233.65C269.139 233.58 268.979 233.56 268.749 233.56C268.309 233.56 267.779 233.85 267.459 234.66V238H265.999V232.4H267.199ZM273.45 232.4L274.27 235.19C274.42 235.75 274.57 236.32 274.72 236.89H274.77C274.92 236.32 275.07 235.75 275.22 235.19L276.04 232.4H277.45L275.58 238H273.88L271.97 232.4H273.45ZM281.012 233.35C282.172 233.35 283.262 234.1 283.262 235.63C283.262 237.04 282.182 238.19 280.572 238.19C278.952 238.19 277.942 237.11 277.942 235.5C277.942 234.82 278.262 234.05 278.832 233.25L280.862 230.51H282.542C281.782 231.44 281.072 232.35 280.342 233.28L280.092 233.52L280.202 233.47C280.432 233.39 280.702 233.35 281.012 233.35ZM279.262 235.7C279.262 236.55 279.782 237.06 280.552 237.06C281.312 237.06 281.922 236.52 281.922 235.71C281.922 234.83 281.372 234.39 280.562 234.39C279.762 234.39 279.262 234.9 279.262 235.7ZM284.069 239.23C284.909 237.74 285.289 236.17 285.289 234.44C285.289 232.73 284.909 231.15 284.069 229.66L284.979 229.27C285.939 230.82 286.479 232.44 286.479 234.44C286.479 236.45 285.929 238.07 284.979 239.62L284.069 239.23Z" fill="#D5D5D5"/>
<path d="M172.81 308.65H174.13V315.37H172.81V312.1H171.37V311.03H172.81V308.65ZM171.34 314.18C170.33 313.85 169.64 313.2 169.25 312.36C168.84 313.28 168.12 314 167.04 314.36L166.38 313.31C167.9 312.83 168.55 311.6 168.55 310.45V310.32H166.74V309.27H171.69V310.32H169.9V310.44C169.9 311.53 170.53 312.67 171.98 313.15L171.34 314.18ZM174.34 317.7H168.06V314.81H169.38V316.65H174.34V317.7ZM183.329 314.1H182.009V312.94H180.009C179.569 313.41 178.929 313.7 178.169 313.7C176.809 313.7 175.749 312.74 175.749 311.41C175.749 310.09 176.809 309.13 178.169 309.13C178.929 309.13 179.579 309.42 180.019 309.89H182.009V308.65H183.329V314.1ZM178.169 312.57C178.849 312.57 179.349 312.14 179.349 311.41C179.349 310.69 178.849 310.26 178.169 310.26C177.489 310.26 176.999 310.69 176.999 311.41C176.999 312.14 177.489 312.57 178.169 312.57ZM182.009 310.94H180.549C180.579 311.09 180.599 311.24 180.599 311.41C180.599 311.57 180.579 311.73 180.549 311.89H182.009V310.94ZM183.329 314.52V317.87H182.009V315.56H177.059V314.52H183.329ZM193.298 311.88H192.078V314.1H190.758V308.66H192.078V310.79H193.298V311.88ZM189.568 313.75C188.598 313.43 187.928 312.83 187.538 312.03C187.138 312.95 186.428 313.65 185.378 314.01L184.688 312.97C186.238 312.46 186.848 311.23 186.848 309.98V309.15H188.188V310.09C188.188 311.2 188.808 312.27 190.258 312.73L189.568 313.75ZM189.068 314.31C190.988 314.31 192.178 314.97 192.178 316.08C192.178 317.2 190.988 317.86 189.068 317.86C187.138 317.86 185.948 317.2 185.948 316.08C185.948 314.97 187.138 314.31 189.068 314.31ZM189.068 316.84C190.238 316.84 190.868 316.6 190.868 316.08C190.868 315.57 190.238 315.33 189.068 315.33C187.858 315.33 187.258 315.58 187.258 316.08C187.258 316.59 187.858 316.84 189.068 316.84ZM201.928 317.86H200.678V313.27H199.938V317.45H198.708V308.79H199.938V312.21H200.678V308.64H201.928V317.86ZM195.588 314.68C196.598 314.68 197.348 314.63 198.208 314.5L198.328 315.56C197.258 315.75 196.368 315.76 194.978 315.76H194.338V309.6H198.058V310.65H195.588V312.01H197.868V313.03H195.588V314.68ZM211.677 312.54H210.577V315.54H209.257V308.64H210.577V311.45H211.677V312.54ZM206.857 312.45C207.007 311.57 207.047 310.93 207.057 310.37H203.627V309.32H208.357V309.89C208.357 310.53 208.357 311.43 208.147 312.6L206.857 312.45ZM208.837 313.91C206.947 314.26 204.787 314.31 203.217 314.31L203.097 313.26C203.607 313.26 204.177 313.26 204.777 313.25V311.46H206.067V313.2C206.987 313.16 207.877 313.09 208.757 312.97L208.837 313.91ZM210.867 316.65V317.7H204.437V314.93H205.757V316.65H210.867ZM220.086 317.88H218.766V308.64H220.086V317.88ZM214.266 314.65C215.666 314.65 216.836 314.56 218.126 314.35L218.266 315.42C216.746 315.69 215.426 315.74 213.746 315.74H212.916V311.95H215.906V310.48H212.906V309.43H217.256V312.99H214.266V314.65Z" fill="#D5D5D5"/>
<path d="M167.69 388.6L168.28 392.21C168.39 393.01 168.51 393.77 168.62 394.57H168.66C168.81 393.77 168.97 392.98 169.13 392.21L169.99 388.6H171.25L172.11 392.21C172.27 392.97 172.42 393.77 172.58 394.57H172.63C172.74 393.77 172.85 392.98 172.96 392.21L173.54 388.6H174.95L173.58 396H171.74L170.91 392.34C170.79 391.74 170.68 391.19 170.59 390.63H170.55C170.44 391.19 170.35 391.74 170.23 392.34L169.42 396H167.61L166.18 388.6H167.69ZM180.6 388.6V389.83H177.54V391.54H180.14V392.78H177.54V394.76H180.71V396H176.06V388.6H180.6ZM184.663 388.6C186.183 388.6 187.343 389.03 187.343 390.42C187.343 391.08 186.963 391.81 186.333 392.02V392.07C187.133 392.26 187.723 392.82 187.723 393.82C187.723 395.31 186.483 396 184.853 396H182.213V388.6H184.663ZM184.553 391.61C185.513 391.61 185.903 391.24 185.903 390.64C185.903 389.99 185.463 389.73 184.573 389.73H183.693V391.61H184.553ZM184.723 394.86C185.733 394.86 186.283 394.5 186.283 393.73C186.283 393.01 185.763 392.71 184.723 392.71H183.693V394.86H184.723ZM192.149 391.74V392.79H188.599V391.74H192.149ZM195.751 396.14C194.751 396.14 193.771 395.75 193.051 395.06L193.901 394.04C194.431 394.53 195.131 394.86 195.781 394.86C196.551 394.86 196.961 394.53 196.961 394.01C196.961 393.45 196.521 393.3 195.851 393.01L194.861 392.59C194.111 392.27 193.361 391.68 193.361 390.6C193.361 389.39 194.431 388.46 195.921 388.46C196.801 388.46 197.641 388.8 198.241 389.41L197.491 390.34C197.021 389.95 196.531 389.73 195.921 389.73C195.271 389.73 194.851 390.02 194.851 390.51C194.851 391.01 195.381 391.24 196.011 391.48L196.981 391.89C197.901 392.26 198.471 392.82 198.471 393.9C198.471 395.11 197.461 396.14 195.751 396.14ZM204.321 388.6V389.83H201.261V391.54H203.861V392.78H201.261V394.76H204.431V396H199.781V388.6H204.321ZM208.443 393.2H207.413V396H205.933V388.6H208.513C210.073 388.6 211.293 389.13 211.293 390.84C211.293 391.97 210.733 392.64 209.883 392.97L211.613 396H209.963L208.443 393.2ZM208.373 392.03C209.333 392.03 209.843 391.64 209.843 390.84C209.843 390.04 209.333 389.77 208.373 389.77H207.413V392.03H208.373ZM213.34 388.6L214.32 392.2C214.55 393.04 214.7 393.75 214.94 394.59H214.99C215.22 393.75 215.39 393.04 215.62 392.2L216.58 388.6H218.08L215.81 396H214.05L211.79 388.6H213.34ZM223.471 388.6V389.83H220.411V391.54H223.011V392.78H220.411V394.76H223.581V396H218.931V388.6H223.471ZM227.594 393.2H226.564V396H225.084V388.6H227.664C229.224 388.6 230.444 389.13 230.444 390.84C230.444 391.97 229.884 392.64 229.034 392.97L230.764 396H229.114L227.594 393.2ZM227.524 392.03C228.484 392.03 228.994 391.64 228.994 390.84C228.994 390.04 228.484 389.77 227.524 389.77H226.564V392.03H227.524ZM239.856 390.99C239.886 390.48 239.876 390 239.876 389.53V389.51H234.626V388.46H241.176V389.53C241.176 390.89 241.176 392.13 240.746 394.14L239.446 394.01C239.636 393.25 239.716 392.61 239.786 391.97L234.526 392.24L234.366 391.17L239.856 390.99ZM242.016 395.77H233.696V394.69H242.016V395.77ZM251.225 395.85H242.885V394.77H246.385V393.4H243.845V390.28H248.985V389.29H243.835V388.24H250.285V391.31H245.155V392.34H250.495V393.4H247.705V394.77H251.225V395.85ZM259.574 393.09C257.964 392.77 256.804 391.88 256.204 390.71C255.604 391.88 254.454 392.78 252.844 393.09L252.284 391.99C254.364 391.64 255.504 390.16 255.504 388.85V388.19H256.914V388.85C256.914 390.18 258.054 391.64 260.134 391.99L259.574 393.09ZM260.424 395.74H252.084V394.67H260.424V395.74ZM269.624 395.79H261.284V394.72H264.784V393.16C263.154 392.97 262.014 392.02 262.014 390.66C262.014 389.11 263.484 388.12 265.444 388.12C267.414 388.12 268.884 389.11 268.884 390.66C268.884 392.02 267.734 392.97 266.104 393.16V394.72H269.624V395.79ZM263.314 390.66C263.314 391.6 264.184 392.15 265.444 392.15C266.714 392.15 267.584 391.6 267.584 390.66C267.584 389.72 266.714 389.17 265.444 389.17C264.184 389.17 263.314 389.72 263.314 390.66ZM278.213 396.88H276.893V391.94H275.243V394.71H270.823V388.37H272.133V390.59H273.943V388.37H275.243V390.88H276.893V387.64H278.213V396.88ZM272.133 391.62V393.66H273.943V391.62H272.133ZM283.908 397.43C282.988 395.94 282.438 394.32 282.438 392.35C282.438 390.39 282.988 388.77 283.908 387.28L284.478 387.54C283.598 388.99 283.198 390.6 283.198 392.35C283.198 394.1 283.598 395.71 284.478 397.16L283.908 397.43ZM290.156 396H286.196V395.26H287.826V389.98C287.826 389.89 287.826 389.8 287.836 389.73L286.506 390.92L286.016 390.33L287.986 388.63H288.716V395.26H290.156V396ZM294.624 387.57L291.634 397.29H290.964L293.964 387.57H294.624ZM300.22 396H295.3V395.36L297.83 392.93C298.6 392.11 299.16 391.48 299.16 390.62C299.13 389.74 298.57 389.33 297.81 389.33C296.97 389.33 296.35 389.93 296.35 390.77L295.45 390.62C295.64 389.27 296.61 388.54 297.86 388.54C299.11 388.54 300.08 389.3 300.08 390.6C300.08 391.69 299.38 392.45 298.55 393.28L296.5 395.31C296.78 395.23 297.08 395.19 297.33 395.19H300.22V396ZM301.157 397.1C302.037 395.65 302.437 394.04 302.437 392.29C302.437 390.54 302.037 388.93 301.157 387.48L301.717 387.22C302.647 388.71 303.197 390.33 303.197 392.29C303.197 394.26 302.647 395.88 301.717 397.37L301.157 397.1Z" fill="#D5D5D5"/>
<path d="M1.69 468.6L2.28 472.21C2.39 473.01 2.51 473.77 2.62 474.57H2.66C2.81 473.77 2.97 472.98 3.13 472.21L3.99 468.6H5.25L6.11 472.21C6.27 472.97 6.42 473.77 6.58 474.57H6.63C6.74 473.77 6.85 472.98 6.96 472.21L7.54 468.6H8.95L7.58 476H5.74L4.91 472.34C4.79 471.74 4.68 471.19 4.59 470.63H4.55C4.44 471.19 4.35 471.74 4.23 472.34L3.42 476H1.61L0.18 468.6H1.69ZM14.6004 468.6V469.83H11.5404V471.54H14.1404V472.78H11.5404V474.76H14.7104V476H10.0604V468.6H14.6004ZM18.6627 468.6C20.1827 468.6 21.3427 469.03 21.3427 470.42C21.3427 471.08 20.9627 471.81 20.3327 472.02V472.07C21.1327 472.26 21.7227 472.82 21.7227 473.82C21.7227 475.31 20.4827 476 18.8527 476H16.2127V468.6H18.6627ZM18.5527 471.61C19.5127 471.61 19.9027 471.24 19.9027 470.64C19.9027 469.99 19.4627 469.73 18.5727 469.73H17.6927V471.61H18.5527ZM18.7227 474.86C19.7327 474.86 20.2827 474.5 20.2827 473.73C20.2827 473.01 19.7627 472.71 18.7227 472.71H17.6927V474.86H18.7227ZM26.1494 471.74V472.79H22.5994V471.74H26.1494ZM29.7509 476.14C28.7509 476.14 27.7709 475.75 27.0509 475.06L27.9009 474.04C28.4309 474.53 29.1309 474.86 29.7809 474.86C30.5509 474.86 30.9609 474.53 30.9609 474.01C30.9609 473.45 30.5209 473.3 29.8509 473.01L28.8609 472.59C28.1109 472.27 27.3609 471.68 27.3609 470.6C27.3609 469.39 28.4309 468.46 29.9209 468.46C30.8009 468.46 31.6409 468.8 32.2409 469.41L31.4909 470.34C31.0209 469.95 30.5309 469.73 29.9209 469.73C29.2709 469.73 28.8509 470.02 28.8509 470.51C28.8509 471.01 29.3809 471.24 30.0109 471.48L30.9809 471.89C31.9009 472.26 32.4709 472.82 32.4709 473.9C32.4709 475.11 31.4609 476.14 29.7509 476.14ZM38.3211 468.6V469.83H35.2611V471.54H37.8611V472.78H35.2611V474.76H38.4311V476H33.7811V468.6H38.3211ZM42.4434 473.2H41.4134V476H39.9334V468.6H42.5134C44.0734 468.6 45.2934 469.13 45.2934 470.84C45.2934 471.97 44.7334 472.64 43.8834 472.97L45.6134 476H43.9634L42.4434 473.2ZM42.3734 472.03C43.3334 472.03 43.8434 471.64 43.8434 470.84C43.8434 470.04 43.3334 469.77 42.3734 469.77H41.4134V472.03H42.3734ZM47.3398 468.6L48.3198 472.2C48.5498 473.04 48.6998 473.75 48.9398 474.59H48.9898C49.2198 473.75 49.3898 473.04 49.6198 472.2L50.5798 468.6H52.0798L49.8098 476H48.0498L45.7898 468.6H47.3398ZM57.4715 468.6V469.83H54.4115V471.54H57.0115V472.78H54.4115V474.76H57.5815V476H52.9315V468.6H57.4715ZM61.5938 473.2H60.5638V476H59.0838V468.6H61.6638C63.2238 468.6 64.4438 469.13 64.4438 470.84C64.4438 471.97 63.8838 472.64 63.0338 472.97L64.7638 476H63.1138L61.5938 473.2ZM61.5238 472.03C62.4838 472.03 62.9938 471.64 62.9938 470.84C62.9938 470.04 62.4838 469.77 61.5238 469.77H60.5638V472.03H61.5238ZM73.8559 470.99C73.8859 470.48 73.8759 470 73.8759 469.53V469.51H68.6259V468.46H75.1759V469.53C75.1759 470.89 75.1759 472.13 74.7459 474.14L73.4459 474.01C73.6359 473.25 73.7159 472.61 73.7859 471.97L68.5259 472.24L68.3659 471.17L73.8559 470.99ZM76.0159 475.77H67.6959V474.69H76.0159V475.77ZM85.2251 475.85H76.8851V474.77H80.3851V473.4H77.8451V470.28H82.9851V469.29H77.8351V468.24H84.2851V471.31H79.1551V472.34H84.4951V473.4H81.7051V474.77H85.2251V475.85ZM93.5743 473.09C91.9643 472.77 90.8043 471.88 90.2043 470.71C89.6043 471.88 88.4543 472.78 86.8443 473.09L86.2843 471.99C88.3643 471.64 89.5043 470.16 89.5043 468.85V468.19H90.9143V468.85C90.9143 470.18 92.0543 471.64 94.1343 471.99L93.5743 473.09ZM94.4243 475.74H86.0843V474.67H94.4243V475.74ZM103.624 475.79H95.2835V474.72H98.7835V473.16C97.1535 472.97 96.0135 472.02 96.0135 470.66C96.0135 469.11 97.4835 468.12 99.4435 468.12C101.414 468.12 102.884 469.11 102.884 470.66C102.884 472.02 101.734 472.97 100.104 473.16V474.72H103.624V475.79ZM97.3135 470.66C97.3135 471.6 98.1835 472.15 99.4435 472.15C100.714 472.15 101.584 471.6 101.584 470.66C101.584 469.72 100.714 469.17 99.4435 469.17C98.1835 469.17 97.3135 469.72 97.3135 470.66ZM112.213 476.88H110.893V471.94H109.243V474.71H104.823V468.37H106.133V470.59H107.943V468.37H109.243V470.88H110.893V467.64H112.213V476.88ZM106.133 471.62V473.66H107.943V471.62H106.133ZM117.938 477.33C117.018 475.85 116.478 474.28 116.478 472.32C116.478 470.36 117.018 468.78 117.938 467.3L118.298 467.49C117.418 468.9 116.978 470.56 116.978 472.32C116.978 474.08 117.418 475.74 118.298 477.15L117.938 477.33ZM123.842 476H119.132V475.69L121.722 473.06C122.552 472.23 123.152 471.52 123.152 470.58C123.152 469.52 122.412 469.06 121.562 469.06C120.642 469.06 120.042 469.65 119.852 470.44L119.822 470.67L119.302 470.59C119.492 469.3 120.372 468.58 121.582 468.58C122.712 468.58 123.712 469.25 123.712 470.57C123.712 471.67 122.942 472.47 122.112 473.35L119.952 475.56C120.132 475.51 120.342 475.49 120.592 475.49H123.842V476ZM128.431 467.68L125.131 477.31H124.661L127.951 467.68H128.431ZM133.666 476H128.956V475.69L131.546 473.06C132.376 472.23 132.976 471.52 132.976 470.58C132.976 469.52 132.236 469.06 131.386 469.06C130.466 469.06 129.866 469.65 129.676 470.44L129.646 470.67L129.126 470.59C129.316 469.3 130.196 468.58 131.406 468.58C132.536 468.58 133.536 469.25 133.536 470.57C133.536 471.67 132.766 472.47 131.936 473.35L129.776 475.56C129.956 475.51 130.166 475.49 130.416 475.49H133.666V476ZM134.755 477.15C135.635 475.74 136.075 474.08 136.075 472.32C136.075 470.56 135.635 468.9 134.755 467.49L135.115 467.3C136.035 468.78 136.575 470.36 136.575 472.32C136.575 474.28 136.035 475.85 135.115 477.33L134.755 477.15Z" fill="#D5D5D5"/>
<path d="M0 111H152" stroke="#464647"/>
<path d="M0 190H152" stroke="#464647"/>
<path d="M0 269H152" stroke="#464647"/>
<path d="M0 348H152" stroke="#464647"/>
<path d="M0 427H152" stroke="#464647"/>
<path d="M166 111H318" stroke="#464647"/>
<path d="M166 190H318" stroke="#464647"/>
<path d="M166 269H318" stroke="#464647"/>
<path d="M166 348H318" stroke="#464647"/>
<path d="M166 427H318" stroke="#464647"/>
<path d="M15.12 18.176H12.852V7.97H15.12V18.176ZM9.702 8.258H11.916V18.14H9.702V17.636H7.254V16.088H9.702V8.258ZM4.968 13.496C2.808 13.496 1.35 12.542 1.35 11.012C1.35 9.482 2.808 8.528 4.968 8.528C7.128 8.528 8.586 9.482 8.586 11.012C8.586 12.542 7.128 13.496 4.968 13.496ZM4.968 10.13C4.05 10.13 3.456 10.418 3.456 11.012C3.456 11.606 4.05 11.876 4.968 11.876C5.904 11.876 6.48 11.606 6.48 11.012C6.48 10.418 5.904 10.13 4.968 10.13ZM3.924 15.818C2.772 15.872 1.728 15.872 0.864 15.872L0.666 14.108C2.826 14.108 6.372 14.09 9.018 13.658L9.18 15.224C8.244 15.44 7.2 15.584 6.174 15.674V18.068H3.924V15.818ZM15.12 18.716V24.35H3.312V18.716H5.67V19.796H12.762V18.716H15.12ZM5.67 21.542V22.532H12.762V21.542H5.67Z" fill="#F48096"/>
</svg>
