<svg width="56" height="56" viewBox="0 0 56 56" fill="none" xmlns="http://www.w3.org/2000/svg">
<circle cx="28" cy="28" r="28" fill="#2F2F2F"/>
<path d="M30.178 27.655C30.178 32.9871 25.8848 37.3097 20.5892 37.3097C15.2935 37.3097 11 32.9871 11 27.655C11 22.3229 15.2932 18 20.5892 18C25.8852 18 30.178 22.3229 30.178 27.655Z" fill="#AAAAAA"/>
<path d="M40.6971 27.6549C40.6971 32.6739 38.5505 36.7443 35.9025 36.7443C33.2545 36.7443 31.1079 32.6739 31.1079 27.6549C31.1079 22.6358 33.2542 18.5654 35.9022 18.5654C38.5502 18.5654 40.6968 22.6345 40.6968 27.6549" fill="#AAAAAA"/>
<path d="M45.0001 27.6549C45.0001 32.1508 44.2453 35.7976 43.3139 35.7976C42.3825 35.7976 41.6279 32.1517 41.6279 27.6549C41.6279 23.1581 42.3828 19.5122 43.3139 19.5122C44.245 19.5122 45.0001 23.1578 45.0001 27.6549Z" fill="#AAAAAA"/>
</svg>
