<svg width="144" height="108" viewBox="0 0 144 108" fill="none" xmlns="http://www.w3.org/2000/svg">
<rect width="144" height="108" rx="12" fill="white"/>
<path d="M0 12C0 5.37259 5.37258 0 12 0H132C138.627 0 144 5.37258 144 12V18.72H0V12Z" fill="#AAAAAA"/>
<ellipse cx="10.7999" cy="9.35998" rx="2.88" ry="2.88" fill="#FF847C"/>
<ellipse cx="20.88" cy="9.35998" rx="2.88" ry="2.88" fill="#FAD17B"/>
<ellipse cx="30.9598" cy="9.35998" rx="2.88" ry="2.88" fill="#97E17E"/>
<path fill-rule="evenodd" clip-rule="evenodd" d="M78.1408 43.3075C78.3234 43.8577 78.7577 44.2841 79.3001 44.4886C79.9048 44.7166 80.4967 44.9708 81.0743 45.2499C81.6116 45.5096 82.2397 45.5237 82.7732 45.2561L89.9064 41.6781C90.6115 41.3244 91.4639 41.4622 92.0216 42.0199L94.7801 44.7784C95.3379 45.3362 95.4757 46.1886 95.122 46.8937L91.4412 54.2319C91.1819 54.7488 91.1867 55.3558 91.4241 55.8831C91.6351 56.3518 91.8299 56.8294 92.0078 57.3151C92.2094 57.8654 92.6387 58.3071 93.195 58.4917L100.986 61.0777C101.735 61.3262 102.24 62.0263 102.24 62.8151V66.7162C102.24 67.505 101.735 68.2052 100.986 68.4537L93.195 71.0396C92.6387 71.2243 92.2094 71.6659 92.0078 72.2162C91.8257 72.7134 91.6259 73.2021 91.4091 73.6814C91.1704 74.2094 91.165 74.8176 91.4248 75.3356L95.122 82.7064C95.4757 83.4115 95.3379 84.2639 94.7801 84.8217L92.0216 87.5802C91.4639 88.138 90.6115 88.2757 89.9064 87.922L82.7033 84.309C82.1719 84.0424 81.5463 84.0553 81.0102 84.3123C80.4606 84.5756 79.8981 84.8165 79.324 85.0337C78.7826 85.2385 78.3492 85.6646 78.1669 86.214L75.6536 93.7861C75.4051 94.5348 74.705 95.0401 73.9162 95.0401H70.015C69.2262 95.0401 68.5261 94.5348 68.2776 93.7861L65.8468 86.4626C65.6577 85.8929 65.1995 85.4572 64.6316 85.2625C63.9491 85.0285 63.282 84.7614 62.6322 84.463C62.1021 84.2197 61.4894 84.2124 60.968 84.4739L54.0936 87.922C53.3885 88.2757 52.5362 88.138 51.9784 87.5802L49.2199 84.8217C48.6621 84.2639 48.5243 83.4115 48.878 82.7064L52.226 76.0318C52.4958 75.4939 52.4792 74.8601 52.2134 74.3202C51.8414 73.5646 51.5122 72.7841 51.2289 71.9819C51.0311 71.4218 50.5981 70.971 50.0344 70.7838L43.014 68.4537C42.2653 68.2052 41.76 67.505 41.76 66.7162V62.8151C41.76 62.0263 42.2653 61.3262 43.014 61.0777L50.0344 58.7475C50.5981 58.5604 51.0311 58.1095 51.2289 57.5494C51.5082 56.7585 51.8322 55.9887 52.1978 55.2429C52.4621 54.7036 52.4782 54.0711 52.2089 53.5343L48.878 46.8937C48.5243 46.1886 48.6621 45.3362 49.2199 44.7784L51.9784 42.0199C52.5362 41.4622 53.3885 41.3244 54.0936 41.6781L60.8966 45.0904C61.4201 45.353 62.0354 45.3446 62.5668 45.0985C63.2447 44.7845 63.9416 44.5045 64.6552 44.2608C65.2241 44.0665 65.6832 43.6304 65.8726 43.0599L68.2776 35.814C68.5261 35.0654 69.2262 34.5601 70.015 34.5601H73.9162C74.705 34.5601 75.4051 35.0654 75.6536 35.814L78.1408 43.3075ZM71.6605 76.0546C78.0637 76.0546 83.2546 70.8638 83.2546 64.4606C83.2546 58.0573 78.0637 52.8665 71.6605 52.8665C65.2573 52.8665 60.0664 58.0573 60.0664 64.4606C60.0664 70.8638 65.2573 76.0546 71.6605 76.0546Z" fill="#DB627B"/>
</svg>
