<svg width="74" height="86" viewBox="0 0 74 86" fill="none" xmlns="http://www.w3.org/2000/svg">
<g clip-path="url(#clip0_1455_8275)">
<path opacity="0.3" d="M36 31L61.9808 71.5H10.0192L36 31Z" stroke="#547AFF" stroke-width="2" stroke-linecap="round" stroke-linejoin="round" stroke-dasharray="7 7"/>
<circle cx="36" cy="35" r="15" fill="url(#paint0_radial_1455_8275)"/>
<ellipse cx="16.5" cy="70" rx="13.5" ry="15" fill="url(#paint1_radial_1455_8275)"/>
<ellipse cx="59" cy="69.5" rx="14" ry="13.5" fill="url(#paint2_radial_1455_8275)"/>
<ellipse cx="61.2641" cy="71.7421" rx="3.69267" ry="6.97504" transform="rotate(-39.09 61.2641 71.7421)" fill="#1C1B1A"/>
<path fill-rule="evenodd" clip-rule="evenodd" d="M16.0384 61.6159C16.1138 61.8433 16.2933 62.0195 16.5176 62.1041C16.7675 62.1983 17.0122 62.3034 17.2509 62.4188C17.4731 62.5261 17.7327 62.5319 17.9532 62.4213L20.9018 60.9423C21.1932 60.7961 21.5456 60.8531 21.7761 61.0836L22.9164 62.2239C23.147 62.4544 23.2039 62.8068 23.0577 63.0982L21.5362 66.1316C21.429 66.3452 21.431 66.5961 21.5291 66.8141C21.6163 67.0078 21.6969 67.2052 21.7704 67.406C21.8537 67.6335 22.0312 67.8161 22.2611 67.8924L25.4817 68.9613C25.7911 69.064 26 69.3534 26 69.6795V71.2921C26 71.6181 25.7911 71.9075 25.4817 72.0103L22.2611 73.0792C22.0312 73.1555 21.8537 73.3381 21.7704 73.5655C21.6951 73.7711 21.6125 73.973 21.5229 74.1712C21.4243 74.3894 21.422 74.6409 21.5294 74.8549L23.0577 77.9018C23.2039 78.1932 23.147 78.5456 22.9164 78.7761L21.7761 79.9164C21.5456 80.1469 21.1932 80.2039 20.9018 80.0577L17.9243 78.5642C17.7046 78.454 17.4461 78.4594 17.2244 78.5656C16.9972 78.6744 16.7648 78.774 16.5274 78.8638C16.3036 78.9484 16.1245 79.1246 16.0491 79.3517L15.0102 82.4817C14.9075 82.7911 14.6181 83 14.2921 83H12.6795C12.3534 83 12.064 82.7911 11.9613 82.4817L10.9565 79.4544C10.8784 79.2189 10.6889 79.0388 10.4542 78.9583C10.1721 78.8616 9.89634 78.7512 9.62773 78.6279C9.4086 78.5273 9.15532 78.5243 8.93979 78.6324L6.09822 80.0577C5.80676 80.2039 5.45443 80.1469 5.22386 79.9164L4.08361 78.7761C3.85304 78.5456 3.7961 78.1932 3.94229 77.9018L5.32622 75.1427C5.43775 74.9204 5.43087 74.6584 5.32102 74.4353C5.16726 74.1229 5.03117 73.8003 4.91406 73.4687C4.83229 73.2372 4.65333 73.0508 4.42029 72.9735L1.51834 72.0103C1.20887 71.9075 1 71.6181 1 71.2921V69.6795C1 69.3534 1.20887 69.064 1.51834 68.9613L4.42029 67.9981C4.65333 67.9208 4.83229 67.7344 4.91406 67.5029C5.02953 67.176 5.16344 66.8577 5.31455 66.5495C5.42383 66.3265 5.43047 66.0651 5.31915 65.8432L3.94229 63.0982C3.7961 62.8068 3.85304 62.4544 4.08361 62.2239L5.22386 61.0836C5.45443 60.8531 5.80676 60.7961 6.09822 60.9423L8.91031 62.3528C9.12668 62.4614 9.38103 62.4579 9.60068 62.3562C9.8809 62.2264 10.169 62.1106 10.464 62.0099C10.6991 61.9296 10.8889 61.7493 10.9672 61.5135L11.9613 58.5183C12.064 58.2089 12.3534 58 12.6795 58H14.2921C14.6181 58 14.9075 58.2089 15.0102 58.5183L16.0384 61.6159ZM13.3597 75.1522C16.0065 75.1522 18.1522 73.0065 18.1522 70.3597C18.1522 67.7128 16.0065 65.5671 13.3597 65.5671C10.7128 65.5671 8.56714 67.7128 8.56714 70.3597C8.56714 73.0065 10.7128 75.1522 13.3597 75.1522Z" fill="#547AFF"/>
<path fill-rule="evenodd" clip-rule="evenodd" d="M27.5144 24.4846C28.2333 25.1599 28.2705 26.2922 27.5975 27.0137L22.2008 32.799L27.5975 38.5843C28.2705 39.3057 28.2333 40.438 27.5144 41.1134C26.7956 41.7888 25.6673 41.7515 24.9944 41.03L18.4569 34.0219C17.8151 33.3338 17.8151 32.2641 18.4569 31.5761L24.9944 24.5679C25.6673 23.8465 26.7956 23.8092 27.5144 24.4846Z" fill="#547AFF"/>
<path fill-rule="evenodd" clip-rule="evenodd" d="M43.2023 24.4846C42.4835 25.1599 42.4463 26.2922 43.1193 27.0137L48.516 32.799L43.1193 38.5843C42.4463 39.3057 42.4835 40.438 43.2023 41.1134C43.9212 41.7888 45.0495 41.7515 45.7224 41.03L52.2599 34.0219C52.9017 33.3338 52.9017 32.2641 52.2599 31.5761L45.7224 24.5679C45.0495 23.8465 43.9212 23.8092 43.2023 24.4846Z" fill="#547AFF"/>
<path fill-rule="evenodd" clip-rule="evenodd" d="M38.85 24.1309C39.7629 24.5013 40.2038 25.5442 39.8348 26.4604L34.1888 40.4768C33.8198 41.393 32.7805 41.8355 31.8676 41.4651C30.9547 41.0947 30.5138 40.0517 30.8829 39.1356L36.5288 25.1192C36.8979 24.203 37.9371 23.7605 38.85 24.1309Z" fill="#547AFF"/>
<path fill-rule="evenodd" clip-rule="evenodd" d="M57.3467 70.0152C57.4078 69.5632 57.3732 69.0623 57.0506 68.7398L49.8811 61.5702C49.1514 60.8405 47.9287 61.5601 48.2126 62.5524L50.3226 69.9287C51.3375 73.8391 55.5168 79.6971 62.1413 78.6092C62.477 78.554 62.8244 78.652 63.0649 78.8925L66.155 81.9827C66.5455 82.3732 67.1787 82.3732 67.5692 81.9827L70.9827 78.5692C71.3732 78.1787 71.3732 77.5455 70.9827 77.155L67.8911 74.0634C67.6506 73.8229 67.5526 73.4756 67.6078 73.1399C68.6957 66.5154 62.8377 62.3361 58.9273 61.3212L51.5526 59.2117C50.5603 58.9279 49.8407 60.1505 50.5705 60.8802L57.7397 68.0494C58.0624 68.3722 58.5636 68.4067 59.0159 68.3453C59.5989 68.2662 60.2109 68.4507 60.659 68.8988C61.4208 69.6606 61.4208 70.8957 60.659 71.6575C59.8972 72.4193 58.6621 72.4193 57.9003 71.6575C57.4524 71.2095 57.2679 70.598 57.3467 70.0152Z" fill="#547AFF"/>
</g>
<defs>
<radialGradient id="paint0_radial_1455_8275" cx="0" cy="0" r="1" gradientUnits="userSpaceOnUse" gradientTransform="translate(36 35) rotate(90) scale(15)">
<stop stop-color="#1C1B1A"/>
<stop offset="0.661458" stop-color="#1C1B1A"/>
<stop offset="1" stop-color="#1C1B1A" stop-opacity="0"/>
</radialGradient>
<radialGradient id="paint1_radial_1455_8275" cx="0" cy="0" r="1" gradientUnits="userSpaceOnUse" gradientTransform="translate(16.5 70) rotate(90) scale(15 13.5)">
<stop stop-color="#1C1B1A"/>
<stop offset="0.661458" stop-color="#1C1B1A"/>
<stop offset="1" stop-color="#1C1B1A" stop-opacity="0"/>
</radialGradient>
<radialGradient id="paint2_radial_1455_8275" cx="0" cy="0" r="1" gradientUnits="userSpaceOnUse" gradientTransform="translate(59 69.5) rotate(90) scale(13.5 14)">
<stop stop-color="#1C1B1A"/>
<stop offset="0.661458" stop-color="#1C1B1A"/>
<stop offset="1" stop-color="#1C1B1A" stop-opacity="0"/>
</radialGradient>
<clipPath id="clip0_1455_8275">
<rect width="74" height="86" fill="white"/>
</clipPath>
</defs>
</svg>
