<svg width="74" height="86" viewBox="0 0 74 86" fill="none" xmlns="http://www.w3.org/2000/svg">
<ellipse cx="36.8028" cy="82.7072" rx="4.88627" ry="3.25751" fill="#949BB7"/>
<path d="M27.8447 80.6713C27.8447 79.9966 28.3916 79.4497 29.0663 79.4497H44.5395C45.2141 79.4497 45.761 79.9966 45.761 80.6713C45.761 81.7957 44.8495 82.7072 43.7251 82.7072H29.8807C28.7563 82.7072 27.8447 81.7957 27.8447 80.6713Z" fill="#949BB7"/>
<rect x="27.8447" y="73.749" width="17.9163" height="4.07189" rx="2.03594" fill="#949BB7"/>
<path fill-rule="evenodd" clip-rule="evenodd" d="M52.4275 62.7407C54.8889 59.4659 56.348 55.3925 56.348 50.9778C56.348 40.166 47.5973 31.4014 36.8029 31.4014C26.0084 31.4014 17.2578 40.166 17.2578 50.9778C17.2578 55.3925 18.7168 59.4659 21.1782 62.7407C21.9017 63.8232 22.7358 64.6466 23.5548 65.3709C23.9011 65.6909 24.259 65.9984 24.6277 66.2929C26.0308 67.4933 27.2049 68.604 27.4212 70.5542C27.4212 71.4191 28.1213 72.1203 28.9849 72.1203H44.6209C45.4845 72.1203 46.1845 71.4191 46.1845 70.5542C46.4009 68.604 47.575 67.4933 48.9781 66.2929C49.3468 65.9984 49.7047 65.6909 50.051 65.371C50.87 64.6466 51.7041 63.8232 52.4275 62.7407Z" fill="#BCC7E4"/>
<rect x="35.9487" y="20" width="2.44313" height="7.3294" rx="1.22157" fill="#9DA7CB"/>
<rect x="58.2725" y="28.1436" width="2.44313" height="7.3294" rx="1.22157" transform="rotate(45 58.2725 28.1436)" fill="#9DA7CB"/>
<rect width="2.44313" height="7.3294" rx="1.22157" transform="matrix(-0.707107 0.707107 0.707107 0.707107 15.7275 28.1436)" fill="#9DA7CB"/>
<path d="M35.8142 54.4755C35.856 55.2154 36.4682 55.794 37.2094 55.794C37.9505 55.794 38.5627 55.2155 38.6046 54.4756L39.1082 45.5815L39.1451 44.8362C39.1998 43.7298 38.3175 42.8027 37.2098 42.8027C36.102 42.8027 35.2197 43.7298 35.2745 44.8362L35.3114 45.5815L35.8142 54.4755ZM35.2284 59.5252C35.2284 60.6344 36.1276 61.5336 37.2368 61.5336C38.346 61.5336 39.2452 60.6344 39.2452 59.5252V59.4817C39.2452 58.3725 38.346 57.4733 37.2368 57.4733C36.1276 57.4733 35.2284 58.3725 35.2284 59.4817V59.5252Z" fill="#547AFF"/>
<path d="M30.288 36.2876C28.7949 36.8305 25.4017 38.8122 23.7729 42.3954" stroke="#E8EDFF" stroke-width="2" stroke-linecap="round" stroke-linejoin="round"/>
<circle cx="21.7367" cy="46.4672" r="0.721567" fill="#E8EDFF" stroke="#E8EDFF"/>
</svg>
