<svg width="74" height="86" viewBox="0 0 74 86" fill="none" xmlns="http://www.w3.org/2000/svg">
<g clip-path="url(#clip0_1463_7913)">
<rect x="4" y="21" width="55" height="48" rx="4" fill="#BBC4DC"/>
<path d="M14 30.2286C14 28.9978 15.0063 28 16.2477 28H46.5923C47.8337 28 48.84 28.9978 48.84 30.2286V51.7714C48.84 53.0022 47.8337 54 46.5923 54H16.2477C15.0063 54 14 53.0022 14 51.7714V30.2286Z" fill="#E8EDF9"/>
<path d="M14 30.3143C14 29.0361 15.0063 28 16.2477 28H46.5923C47.8337 28 48.84 29.0361 48.84 30.3143V32.68H14V30.3143Z" fill="#838BA7"/>
<path d="M17.1201 30.3401C17.1201 30.7708 16.7708 31.1201 16.3401 31.1201C15.9093 31.1201 15.5601 30.7708 15.5601 30.3401C15.5601 29.9093 15.9093 29.5601 16.3401 29.5601C16.7708 29.5601 17.1201 29.9093 17.1201 30.3401Z" fill="#FF847C"/>
<path d="M19.7202 30.3401C19.7202 30.7708 19.3709 31.1201 18.9402 31.1201C18.5094 31.1201 18.1602 30.7708 18.1602 30.3401C18.1602 29.9093 18.5094 29.5601 18.9402 29.5601C19.3709 29.5601 19.7202 29.9093 19.7202 30.3401Z" fill="#FAD17B"/>
<path d="M22.3203 30.3401C22.3203 30.7708 21.971 31.1201 21.5403 31.1201C21.1095 31.1201 20.7603 30.7708 20.7603 30.3401C20.7603 29.9093 21.1095 29.5601 21.5403 29.5601C21.971 29.5601 22.3203 29.9093 22.3203 30.3401Z" fill="#97E17E"/>
<rect y="64" width="65" height="6" rx="2" fill="#3A3F4C"/>
<path d="M33 50.1538C33 50.7061 32.3284 51.1538 31.5 51.1538C30.6716 51.1538 30 50.7061 30 50.1538C30 49.6015 30.6716 49.1538 31.5 49.1538C32.3284 49.1538 33 49.6015 33 50.1538Z" fill="#949BB7"/>
<path d="M29 49.5288C29 49.3217 29.1526 49.1538 29.3409 49.1538H33.6591C33.8474 49.1538 34 49.3217 34 49.5288C34 49.874 33.7456 50.1538 33.4318 50.1538H29.5682C29.2544 50.1538 29 49.874 29 49.5288Z" fill="#949BB7"/>
<path d="M29 48.0769C29 47.7583 29.2563 47.5 29.5726 47.5H33.466C33.7822 47.5 34.0386 47.7583 34.0386 48.0769C34.0386 48.3955 33.7822 48.6538 33.466 48.6538H29.5726C29.2563 48.6538 29 48.3955 29 48.0769Z" fill="#949BB7"/>
<path fill-rule="evenodd" clip-rule="evenodd" d="M35.8968 44.4662C36.5894 43.5815 37 42.4811 37 41.2885C37 38.3677 34.5376 36 31.5 36C28.4624 36 26 38.3677 26 41.2885C26 42.4811 26.4106 43.5815 27.1032 44.4662C27.3068 44.7586 27.5415 44.981 27.772 45.1767C27.8694 45.2631 27.9701 45.3462 28.0739 45.4258C28.4687 45.7501 28.7991 46.0501 28.86 46.5769C28.86 46.8106 29.057 47 29.3 47H33.7C33.943 47 34.14 46.8106 34.14 46.5769C34.2009 46.0501 34.5313 45.75 34.9261 45.4258C35.0299 45.3462 35.1306 45.2631 35.228 45.1767C35.4585 44.981 35.6932 44.7586 35.8968 44.4662Z" fill="#BCC7E4"/>
<path fill-rule="evenodd" clip-rule="evenodd" d="M30.2576 37.3412C30.3073 37.489 30.2369 37.6522 30.1004 37.706C29.7505 37.8437 28.9267 38.3658 28.5366 39.2946C28.4765 39.4377 28.3206 39.501 28.1884 39.4359C28.0562 39.3709 27.9977 39.2021 28.0578 39.0591C28.5244 37.9482 29.4853 37.3423 29.9206 37.171C30.0571 37.1173 30.208 37.1935 30.2576 37.3412Z" fill="#E8EDFF"/>
<path d="M28.034 40.3268C28.034 40.4861 27.9086 40.6153 27.754 40.6153C27.5994 40.6153 27.4741 40.4861 27.4741 40.3268C27.4741 40.1675 27.5994 40.0383 27.754 40.0383C27.9086 40.0383 28.034 40.1675 28.034 40.3268Z" fill="#E8EDFF"/>
<path fill-rule="evenodd" clip-rule="evenodd" d="M27.754 40.3791C27.7821 40.3791 27.8048 40.3557 27.8048 40.3268C27.8048 40.2979 27.7821 40.2745 27.754 40.2745C27.726 40.2745 27.7033 40.2979 27.7033 40.3268C27.7033 40.3557 27.726 40.3791 27.754 40.3791ZM27.754 40.6153C27.9086 40.6153 28.034 40.4861 28.034 40.3268C28.034 40.1675 27.9086 40.0383 27.754 40.0383C27.5994 40.0383 27.4741 40.1675 27.4741 40.3268C27.4741 40.4861 27.5994 40.6153 27.754 40.6153Z" fill="#E8EDFF"/>
<g filter="url(#filter0_d_1463_7913)">
<path fill-rule="evenodd" clip-rule="evenodd" d="M67 49C67 53.4777 64.0571 57.2679 60 58.5422V61H60.5C67.4036 61 73 66.5964 73 73.5V82C73 84.2091 71.2091 86 69 86H49C45.8 86 45 83.3334 45 82V74L40.1323 76.6367L39.9795 76.7339C38.0396 77.9677 35.4668 77.395 34.2332 75.4551C34.1539 75.3306 34.0822 75.2034 34.0177 75.0741L25.9891 63.045C25.5032 62.317 25.558 61.386 26.0588 60.7258C25.64 60.5482 25.3163 60.2953 25.1422 60H22C21.4478 60 21 59.5522 21 59C21 58.4478 21.4478 58 22 58H27.5H29.9659C30.8602 57.5322 31.9817 57.8048 32.5546 58.6631L38.6113 67.7378L44.0841 64.2574C46.3052 62.2339 49.2585 61 52.5 61H54V58.5422C49.9429 57.2679 47 53.4777 47 49C47 48.3154 47.069 47.646 47.2001 47C48.1263 42.4351 52.1617 39 57 39C61.9188 39 66.0081 42.5514 66.8438 47.2299C66.9464 47.8044 67 48.396 67 49Z" fill="#547AFF"/>
</g>
<rect x="54" y="54" width="6" height="13" fill="#D5BA85"/>
<circle cx="57" cy="49" r="10" fill="#6C7492"/>
<path fill-rule="evenodd" clip-rule="evenodd" d="M47.2 47C47.0689 47.6462 47 48.3151 47 49C47 54.5228 51.4772 59 57 59C62.5228 59 67 54.5228 67 49C67 48.3151 66.9311 47.6462 66.8 47H47.2Z" fill="#FFEBC4"/>
<rect x="21" y="58" width="10" height="2" rx="1" fill="#FFEBC3"/>
<ellipse cx="27.5" cy="59.5" rx="2.5" ry="1.5" fill="#FFEBC3"/>
<path d="M25.9892 63.0451C25.376 62.1264 25.6237 60.8845 26.5424 60.2713L29.7808 58.1099C30.6996 57.4967 31.9414 57.7444 32.5546 58.6631L41.3645 71.8627C41.9777 72.7814 41.73 74.0233 40.8113 74.6365L38.4046 76.2428C37.0265 77.1626 35.1637 76.791 34.2439 75.413L25.9892 63.0451Z" fill="#547AFF"/>
<rect width="8.32545" height="20.3915" rx="4.16273" transform="matrix(-0.536612 -0.843829 -0.843829 0.536612 53.6738 68.0254)" fill="#547AFF"/>
<path fill-rule="evenodd" clip-rule="evenodd" d="M52.5 61C45.5964 61 40 66.5964 40 73.5V76.7083L45 74V86H69C71.2091 86 73 84.2091 73 82V73.5C73 66.5964 67.4036 61 60.5 61H52.5Z" fill="#547AFF"/>
<path d="M49 86C45.8 86 45 83.3333 45 82V86H49Z" fill="#1C1B1A"/>
</g>
<defs>
<filter id="filter0_d_1463_7913" x="16" y="34" width="62" height="57" filterUnits="userSpaceOnUse" color-interpolation-filters="sRGB">
<feFlood flood-opacity="0" result="BackgroundImageFix"/>
<feColorMatrix in="SourceAlpha" type="matrix" values="0 0 0 0 0 0 0 0 0 0 0 0 0 0 0 0 0 0 127 0" result="hardAlpha"/>
<feOffset/>
<feGaussianBlur stdDeviation="2.5"/>
<feComposite in2="hardAlpha" operator="out"/>
<feColorMatrix type="matrix" values="0 0 0 0 0.109804 0 0 0 0 0.105882 0 0 0 0 0.101961 0 0 0 0.49 0"/>
<feBlend mode="normal" in2="BackgroundImageFix" result="effect1_dropShadow_1463_7913"/>
<feBlend mode="normal" in="SourceGraphic" in2="effect1_dropShadow_1463_7913" result="shape"/>
</filter>
<clipPath id="clip0_1463_7913">
<rect width="74" height="86" fill="white"/>
</clipPath>
</defs>
</svg>
