<svg width="102" height="116" viewBox="0 0 102 116" fill="none" xmlns="http://www.w3.org/2000/svg">
<path fill-rule="evenodd" clip-rule="evenodd" d="M50.776 26.8143C56.0386 23.7756 69.2284 19.7566 82.0248 26.9639C83.7185 27.9815 86.2929 30.5253 83.041 32.5604C81.8206 33.3242 81.333 33.6293 81.372 33.8339C81.4628 34.3106 84.414 34.2407 87.614 38.1569C92.187 43.7534 98.2843 59.5254 95.7438 70.7184C94.0927 77.9927 93.3 75.3821 92.3895 72.3832C91.899 70.7677 91.3743 69.0395 90.6627 68.6833C89.972 68.3375 90.0442 69.4607 90.1812 71.5936C90.4474 75.7368 90.9585 83.6901 86.5978 92.0869C79.9924 104.806 72.8788 107.35 72.8788 102.262C72.8788 99.1898 72.1376 100.571 70.9908 102.707C70.2387 104.108 69.3121 105.834 68.3058 106.841C65.8126 109.338 59.894 115.264 51.0301 115.965V115.999C50.9451 115.994 50.8604 115.989 50.776 115.984C50.6916 115.989 50.6069 115.994 50.5219 115.999V115.965C41.6581 115.264 35.7394 109.338 33.2462 106.841C32.24 105.834 31.3134 104.108 30.5613 102.707C29.4145 100.571 28.6732 99.1898 28.6732 102.262C28.6732 107.35 21.5597 104.806 14.9542 92.0869C10.5936 83.6901 11.1046 75.7368 11.3709 71.5936C11.5079 69.4607 11.5801 68.3375 10.8894 68.6833C10.1778 69.0396 9.65308 70.7677 9.16258 72.3832C8.25204 75.3821 7.4594 77.9927 5.80829 70.7184C3.26774 59.5254 9.36507 43.7534 13.9381 38.1569C17.1381 34.2407 20.0892 34.3106 20.1801 33.8339C20.2191 33.6293 19.7315 33.3242 18.511 32.5604C15.2591 30.5253 17.8336 27.9815 19.5273 26.964C32.3236 19.7566 45.5134 23.7756 50.776 26.8143Z" fill="#FF872D"/>
<path fill-rule="evenodd" clip-rule="evenodd" d="M50.7765 43.6309C46.2136 40.7654 35.8983 37.0085 29.0881 43.7941C20.4514 52.3996 12.8264 92.2494 50.5214 92.6053V92.6077C50.607 92.6077 50.6923 92.6075 50.7774 92.6071C50.8619 92.6075 50.9467 92.6077 51.0317 92.6077V92.6053C88.7267 92.2494 81.1016 52.3996 72.465 43.7941C65.6548 37.0085 55.3395 40.7654 50.7765 43.6309Z" fill="#FAD17B"/>
<path d="M45.9026 56.9105C45.9026 58.3236 44.7572 59.469 43.3441 59.469C41.9311 59.469 40.7856 58.3236 40.7856 56.9105C40.7856 55.4975 41.9311 54.3521 43.3441 54.3521C44.7572 54.3521 45.9026 55.4975 45.9026 56.9105Z" fill="#482B14"/>
<path d="M60.0352 56.9105C60.0352 58.3236 58.8897 59.469 57.4767 59.469C56.0637 59.469 54.9182 58.3236 54.9182 56.9105C54.9182 55.4975 56.0637 54.3521 57.4767 54.3521C58.8897 54.3521 60.0352 55.4975 60.0352 56.9105Z" fill="#482B14"/>
<path fill-rule="evenodd" clip-rule="evenodd" d="M50.4105 63.623C53.2452 63.5264 58.0863 64.0163 58.0863 66.7303C58.0863 70.328 52.4718 72.3838 50.4302 72.3838C50.4238 72.3838 50.4175 72.3837 50.4112 72.3835C50.4047 72.3837 50.3981 72.3838 50.3915 72.3838C48.3499 72.3838 42.7354 70.328 42.7354 66.7303C42.7354 64.0165 47.5757 63.5265 50.4105 63.623Z" fill="#985B2D"/>
<path fill-rule="evenodd" clip-rule="evenodd" d="M50.4107 70.1895C51.0163 70.1895 51.5072 70.6791 51.5072 71.2832V76.4057C51.5072 77.0098 51.0163 77.4994 50.4107 77.4994C49.8051 77.4994 49.3142 77.0098 49.3142 76.4057V71.2832C49.3142 70.6791 49.8051 70.1895 50.4107 70.1895Z" fill="#985B2D"/>
<path fill-rule="evenodd" clip-rule="evenodd" d="M95.0003 47.3039H6.16064C6.16074 22.7716 26.0481 2.88428 50.5805 2.88428C75.1128 2.88428 95.0002 22.7716 95.0003 47.3039Z" fill="#E29F09"/>
<path fill-rule="evenodd" clip-rule="evenodd" d="M75.6559 10.6342C72.5128 24.1123 70.745 38.1386 70.1954 44.4198L60.9653 16.4411L63.0743 4.66595C59.1111 3.50658 54.9184 2.88477 50.5805 2.88477C46.2433 2.88477 42.0512 3.50638 38.0886 4.66537L40.1977 16.4411L30.9676 44.4198C30.418 38.1384 28.6501 24.1114 25.5069 10.6329C13.825 18.6356 6.1607 32.0749 6.16064 47.3044H95.0003C95.0002 32.0757 87.3367 18.637 75.6559 10.6342Z" fill="#FFC537"/>
<path fill-rule="evenodd" clip-rule="evenodd" d="M94.2054 38.8223H70.7752C70.6555 39.8272 70.55 40.7661 70.4586 41.6287H94.6499C94.5311 40.6837 94.3826 39.7479 94.2054 38.8223ZM6.50854 41.6287H30.702C30.6106 40.7661 30.5051 39.8272 30.3854 38.8223H6.95304C6.77582 39.7479 6.62734 40.6837 6.50854 41.6287ZM68.374 38.8223H32.7866L31.8607 41.6287H69.2999L68.374 38.8223Z" fill="#E29F09"/>
<path fill-rule="evenodd" clip-rule="evenodd" d="M36.9676 44.4196C33.6539 44.4196 30.9676 41.7334 30.9676 38.4196V8.28524C30.9676 6.0003 32.2532 3.88033 34.3806 3.04668C39.3998 1.07984 44.8641 0 50.5807 0C56.2981 0 61.7632 1.08018 66.783 3.04759C68.9103 3.88133 70.1957 6.0012 70.1957 8.28603V38.4196C70.1957 41.7333 67.5094 44.4196 64.1957 44.4196H36.9676Z" fill="#FFCA51"/>
<rect x="1" y="41.6287" width="99.1611" height="10.2903" rx="5" fill="#FFB619"/>
<rect x="26.7251" y="40.2251" width="45.3709" height="1.40322" fill="#E29F09"/>
</svg>
