<svg width="80" height="16" viewBox="0 0 80 16" fill="none" xmlns="http://www.w3.org/2000/svg">
<path d="M21.7525 11.1995V14.7585H11.0371V6.00539L3 1.00464H12.4663V11.1995H21.7525Z" fill="#FF872D"/>
<path fill-rule="evenodd" clip-rule="evenodd" d="M21.7524 6.00539L29.7896 1.00464H21.7524V6.00539Z" fill="white"/>
<path d="M35.0457 14.764V1H37.6924L43.5784 10.7135H42.176L47.9632 1H50.5902L50.6297 14.764H47.6275L47.6077 5.58146H48.1608L43.5389 13.309H42.097L37.3763 5.58146H38.0479V14.764H35.0457Z" fill="white"/>
<path d="M56.458 15C55.5231 15 54.6606 14.8296 53.8705 14.4888C53.0936 14.1348 52.455 13.6367 51.9546 12.9944L53.7323 10.8708C54.1141 11.3689 54.5157 11.7491 54.9371 12.0112C55.3585 12.2603 55.8128 12.3848 56.3 12.3848C57.6036 12.3848 58.2554 11.6245 58.2554 10.1039V3.55618H53.3965V1H61.4354V9.92697C61.4354 11.6311 61.014 12.9026 60.1713 13.7416C59.3286 14.5805 58.0908 15 56.458 15Z" fill="white"/>
<path d="M70.7388 15C68.7768 15 67.2427 14.456 66.1366 13.368C65.0305 12.28 64.4775 10.7266 64.4775 8.70787V1H67.6772V8.58989C67.6772 9.90075 67.9472 10.8446 68.4871 11.4213C69.027 11.9981 69.7841 12.2865 70.7585 12.2865C71.7329 12.2865 72.4901 11.9981 73.0299 11.4213C73.5698 10.8446 73.8398 9.90075 73.8398 8.58989V1H77V8.70787C77 10.7266 76.447 12.28 75.3409 13.368C74.2348 14.456 72.7008 15 70.7388 15Z" fill="white"/>
</svg>
