<svg width="278" height="32" viewBox="0 0 278 32" fill="none" xmlns="http://www.w3.org/2000/svg">
<g clip-path="url(#clip0_1465_9877)">
<path d="M89.8305 24.2687L87.3667 22.1997L95.2289 11.9913L98.7279 14.9296L89.8305 24.2687ZM83.8739 25.1522C84.4126 24.5238 84.96 24.2316 85.5158 24.2754C86.0834 24.3057 86.6157 24.5294 87.1126 24.9467C87.5957 25.3524 87.8985 25.8298 88.021 26.3792C88.1553 26.9148 87.953 27.4968 87.4143 28.1252C86.899 28.7262 86.3517 29.0185 85.7724 29.0019C85.2048 28.9717 84.6794 28.7537 84.1963 28.348C83.6994 27.9308 83.3897 27.4475 83.2672 26.8982C83.1563 26.3352 83.3586 25.7532 83.8739 25.1522Z" fill="#FF872D"/>
<path d="M93.6989 9.81872L86.6764 22.2107L89.8445 24.9152L100.965 16.0354L93.6989 9.81872Z" fill="#FF872D"/>
<rect width="4.6047" height="1.68407" transform="matrix(-0.126437 0.991975 -0.992298 -0.123876 98.2539 0.208496)" fill="#FFF7D9"/>
<rect width="4.6225" height="1.67767" transform="matrix(-0.62412 0.781329 -0.787599 -0.616188 103.57 7.15576)" fill="#FFF7D9"/>
<rect width="4.65102" height="1.6673" transform="matrix(-0.98952 0.144399 -0.147366 -0.989082 109.287 12.5854)" fill="#FFF7D9"/>
<ellipse cx="101.731" cy="2.30898" rx="1.06066" ry="1.0497" fill="#FF872D"/>
<ellipse cx="108.942" cy="15.7445" rx="1.06066" ry="1.0497" fill="#FF872D"/>
<ellipse cx="108.096" cy="7.34608" rx="1.06066" ry="1.0497" fill="#FF872D"/>
<path d="M91.7601 13.2267L98.9723 17.6354L95.7907 20.1547L90.6993 15.1162L91.7601 13.2267Z" fill="#FFBA87"/>
<path d="M89.0039 18.0562L93.4579 22.0442L92.3972 22.884L87.9423 19.9448L89.0039 18.0562Z" fill="#FFBA87"/>
</g>
<defs>
<clipPath id="clip0_1465_9877">
<rect width="278" height="32" fill="white"/>
</clipPath>
</defs>
</svg>
