<svg width="568" height="176" viewBox="0 0 568 176" fill="none" xmlns="http://www.w3.org/2000/svg">
<path fill-rule="evenodd" clip-rule="evenodd" d="M-3.46409e-07 46L359 46L359 47.9812L359 48.9624L359 49.6517L359 49.7643L359 49.9333L344.88 65L342.248 62.1981L353.708 49.9624L0 49.9625L-3.46409e-07 46Z" fill="white"/>
<path fill-rule="evenodd" clip-rule="evenodd" d="M568 142L325 142L325 143.773L325 144.651L325 145.267L325 145.368L325 145.519L339.09 159L341.717 156.493L330.281 145.545L568 145.545L568 142Z" fill="white"/>
<path d="M261.717 24.89V35.4007H254.851V24.8053L243.365 5.7334H250.655L258.58 18.9142L266.506 5.7334H273.244L261.717 24.89Z" fill="white"/>
<path d="M223.721 11.3278H214.227V5.7334H240.08V11.3278H230.586V35.4007H223.721V11.3278Z" fill="white"/>
<path d="M176.812 5.7334H183.678V29.8063H198.554V35.4007H176.812V5.7334Z" fill="white"/>
<path d="M155.552 19.9737C157.247 20.5106 158.575 21.4147 159.536 22.6862C160.496 23.9294 160.977 25.4692 160.977 27.3058C160.977 29.9052 159.96 31.9113 157.925 33.324C155.919 34.7085 152.981 35.4007 149.11 35.4007H133.768V5.7334H148.262C151.879 5.7334 154.648 6.42564 156.569 7.81011C158.519 9.19459 159.493 11.0735 159.493 13.4469C159.493 14.8879 159.14 16.1735 158.434 17.3037C157.756 18.4338 156.795 19.3239 155.552 19.9737ZM140.591 10.904V17.897H147.415C149.11 17.897 150.395 17.6003 151.271 17.007C152.147 16.4136 152.585 15.5378 152.585 14.3793C152.585 13.2209 152.147 12.3591 151.271 11.794C150.395 11.2007 149.11 10.904 147.415 10.904H140.591ZM148.601 30.2302C150.41 30.2302 151.766 29.9335 152.67 29.3401C153.602 28.7468 154.069 27.8285 154.069 26.5853C154.069 24.1272 152.246 22.8981 148.601 22.8981H140.591V30.2302H148.601Z" fill="white"/>
<path d="M122.179 5.7334H129.045V35.4007H122.179V5.7334Z" fill="white"/>
<path d="M164.951 5.7334H171.817V35.4007H164.951V5.7334Z" fill="white"/>
<path d="M202.97 5.7334H209.836V35.4007H202.97V5.7334Z" fill="white"/>
<path d="M76.4365 36.0869C74.0914 36.0869 71.8169 35.7761 69.613 35.1545C67.4374 34.5046 65.6856 33.6711 64.3577 32.6539L66.6887 27.4833C67.9601 28.4157 69.4718 29.1645 71.2235 29.7296C72.9753 30.2947 74.7271 30.5772 76.4789 30.5772C78.4285 30.5772 79.8694 30.2947 80.8019 29.7296C81.7343 29.1362 82.2005 28.3592 82.2005 27.3986C82.2005 26.6922 81.9179 26.113 81.3528 25.6609C80.816 25.1806 80.1096 24.7991 79.2337 24.5166C78.3861 24.234 77.2276 23.9232 75.7584 23.5842C73.498 23.0473 71.6474 22.5105 70.2064 21.9737C68.7654 21.4368 67.5222 20.5751 66.4768 19.3884C65.4596 18.2017 64.951 16.6194 64.951 14.6416C64.951 12.9181 65.4172 11.3641 66.3496 9.97959C67.282 8.56686 68.6806 7.4508 70.5454 6.63142C72.4385 5.81204 74.7412 5.40234 77.4537 5.40234C79.3467 5.40234 81.1974 5.62838 83.0057 6.08045C84.814 6.53253 86.3963 7.18238 87.7525 8.03002L85.6334 13.243C82.8927 11.689 80.152 10.912 77.4113 10.912C75.49 10.912 74.0631 11.2228 73.1307 11.8444C72.2266 12.466 71.7745 13.2854 71.7745 14.3025C71.7745 15.3197 72.2972 16.0826 73.3426 16.5912C74.4163 17.0715 76.0409 17.5518 78.2166 18.0322C80.4769 18.569 82.3276 19.1058 83.7686 19.6427C85.2096 20.1795 86.4386 21.0271 87.4558 22.1856C88.5012 23.344 89.0239 24.9122 89.0239 26.89C89.0239 28.5853 88.5436 30.1393 87.583 31.552C86.6506 32.9365 85.2378 34.0384 83.3448 34.8578C81.4517 35.6772 79.149 36.0869 76.4365 36.0869Z" fill="white"/>
<path d="M104.745 36.0869C102.399 36.0869 100.125 35.7761 97.9211 35.1545C95.7455 34.5046 93.9937 33.6711 92.6658 32.6539L94.9968 27.4833C96.2682 28.4157 97.7799 29.1645 99.5316 29.7296C101.283 30.2947 103.035 30.5772 104.787 30.5772C106.737 30.5772 108.178 30.2947 109.11 29.7296C110.042 29.1362 110.509 28.3592 110.509 27.3986C110.509 26.6922 110.226 26.113 109.661 25.6609C109.124 25.1806 108.418 24.7991 107.542 24.5166C106.694 24.234 105.536 23.9232 104.067 23.5842C101.806 23.0473 99.9555 22.5105 98.5145 21.9737C97.0735 21.4368 95.8303 20.5751 94.7849 19.3884C93.7677 18.2017 93.2591 16.6194 93.2591 14.6416C93.2591 12.9181 93.7253 11.3641 94.6577 9.97959C95.5901 8.56686 96.9887 7.4508 98.8535 6.63142C100.747 5.81204 103.049 5.40234 105.762 5.40234C107.655 5.40234 109.506 5.62838 111.314 6.08045C113.122 6.53253 114.704 7.18238 116.061 8.03002L113.941 13.243C111.201 11.689 108.46 10.912 105.719 10.912C103.798 10.912 102.371 11.2228 101.439 11.8444C100.535 12.466 100.083 13.2854 100.083 14.3025C100.083 15.3197 100.605 16.0826 101.651 16.5912C102.724 17.0715 104.349 17.5518 106.525 18.0322C108.785 18.569 110.636 19.1058 112.077 19.6427C113.518 20.1795 114.747 21.0271 115.764 22.1856C116.809 23.344 117.332 24.9122 117.332 26.89C117.332 28.5853 116.852 30.1393 115.891 31.552C114.959 32.9365 113.546 34.0384 111.653 34.8578C109.76 35.6772 107.457 36.0869 104.745 36.0869Z" fill="white"/>
<path d="M45.2696 36.0869C42.1899 36.0869 39.4068 35.4229 36.9204 34.0949C34.4622 32.7669 32.5268 30.9445 31.1141 28.6276C29.7296 26.2825 29.0374 23.6548 29.0374 20.7446C29.0374 17.8344 29.7296 15.2208 31.1141 12.9039C32.5268 10.5588 34.4622 8.72226 36.9204 7.39429C39.4068 6.06633 42.1899 5.40234 45.2696 5.40234C48.3494 5.40234 51.1183 6.06633 53.5765 7.39429C56.0346 8.72226 57.9701 10.5588 59.3828 12.9039C60.7955 15.2208 61.5019 17.8344 61.5019 20.7446C61.5019 23.6548 60.7955 26.2825 59.3828 28.6276C57.9701 30.9445 56.0346 32.7669 53.5765 34.0949C51.1183 35.4229 48.3494 36.0869 45.2696 36.0869ZM45.2696 30.2381C47.0214 30.2381 48.6037 29.8426 50.0164 29.0515C51.4291 28.2321 52.5311 27.1019 53.3222 25.6609C54.1416 24.2199 54.5513 22.5811 54.5513 20.7446C54.5513 18.908 54.1416 17.2693 53.3222 15.8283C52.5311 14.3873 51.4291 13.2713 50.0164 12.4801C48.6037 11.6607 47.0214 11.251 45.2696 11.251C43.5178 11.251 41.9356 11.6607 40.5229 12.4801C39.1101 13.2713 37.9941 14.3873 37.1747 15.8283C36.3836 17.2693 35.988 18.908 35.988 20.7446C35.988 22.5811 36.3836 24.2199 37.1747 25.6609C37.9941 27.1019 39.1101 28.2321 40.5229 29.0515C41.9356 29.8426 43.5178 30.2381 45.2696 30.2381Z" fill="white"/>
<path d="M12.8417 5.7334C15.4694 5.7334 17.7439 6.17135 19.6652 7.04724C21.6148 7.92313 23.1123 9.16634 24.1577 10.7768C25.2031 12.3874 25.7258 14.2945 25.7258 16.4984C25.7258 18.674 25.2031 20.5812 24.1577 22.22C23.1123 23.8305 21.6148 25.0737 19.6652 25.9496C17.7439 26.7972 15.4694 27.221 12.8417 27.221H6.86587V35.4007H0V5.7334H12.8417ZM12.4603 21.6266C14.5229 21.6266 16.091 21.1887 17.1647 20.3128C18.2384 19.4086 18.7752 18.1372 18.7752 16.4984C18.7752 14.8314 18.2384 13.5599 17.1647 12.684C16.091 11.7799 14.5229 11.3278 12.4603 11.3278H6.86587V21.6266H12.4603Z" fill="white"/>
<path d="M458.725 124.076H444.951L442.323 130.433H435.288L448.511 100.766H455.292L468.558 130.433H461.353L458.725 124.076ZM456.564 118.863L451.859 107.504L447.155 118.863H456.564Z" fill="white"/>
<path d="M432.764 124.923V130.433H409.793V100.766H432.213V106.275H416.617V112.717H430.391V118.057H416.617V124.923H432.764Z" fill="white"/>
<path d="M397.902 130.433L392.181 122.168H391.842H385.866V130.433H379V100.766H391.842C394.469 100.766 396.744 101.204 398.665 102.079C400.615 102.955 402.112 104.199 403.158 105.809C404.203 107.42 404.726 109.327 404.726 111.531C404.726 113.734 404.189 115.642 403.115 117.252C402.07 118.834 400.572 120.049 398.623 120.897L405.277 130.433H397.902ZM397.775 111.531C397.775 109.864 397.238 108.592 396.165 107.716C395.091 106.812 393.523 106.36 391.46 106.36H385.866V116.701H391.46C393.523 116.701 395.091 116.249 396.165 115.345C397.238 114.441 397.775 113.169 397.775 111.531Z" fill="white"/>
<path d="M555.892 119.922V130.433H549.026V119.837L537.54 100.766H544.83L552.755 113.946L560.681 100.766H567.42L555.892 119.922Z" fill="white"/>
<path d="M517.869 106.36H508.376V100.766H534.229V106.36H524.735V130.433H517.869V106.36Z" fill="white"/>
<path d="M471.049 100.766H477.915V124.839H492.791V130.433H471.049V100.766Z" fill="white"/>
<path d="M497.206 100.766H504.072V130.433H497.206V100.766Z" fill="white"/>
<path d="M388.241 51.4945H379V46H404.164V51.4945H394.924V75.1376H388.241V51.4945Z" fill="white"/>
<path d="M422.044 76.1309C419.029 76.1309 416.304 75.4789 413.869 74.1749C411.462 72.8709 409.567 71.0813 408.184 68.8063C406.829 66.5034 406.151 63.9232 406.151 61.0654C406.151 58.2077 406.829 55.6413 408.184 53.3663C409.567 51.0634 411.462 49.26 413.869 47.956C416.304 46.652 419.029 46 422.044 46C425.06 46 427.771 46.652 430.177 47.956C432.584 49.26 434.479 51.0634 435.862 53.3663C437.246 55.6413 437.937 58.2077 437.937 61.0654C437.937 63.9232 437.246 66.5034 435.862 68.8063C434.479 71.0813 432.584 72.8709 430.177 74.1749C427.771 75.4789 425.06 76.1309 422.044 76.1309ZM422.044 70.3877C423.759 70.3877 425.309 69.9993 426.692 69.2224C428.075 68.4178 429.154 67.308 429.928 65.893C430.731 64.4781 431.132 62.8689 431.132 61.0654C431.132 59.262 430.731 57.6528 429.928 56.2378C429.154 54.8229 428.075 53.7269 426.692 52.9501C425.309 52.1455 423.759 51.7432 422.044 51.7432C420.329 51.7432 418.78 52.1455 417.396 52.9501C416.013 53.7269 414.921 54.8229 414.118 56.2378C413.344 57.6528 412.956 59.262 412.956 61.0654C412.956 62.8689 413.344 64.4781 414.118 65.893C414.921 67.308 416.013 68.4178 417.396 69.2224C418.78 69.9993 420.329 70.3877 422.044 70.3877Z" fill="white"/>
<g clip-path="url(#clip0_1476_11254)">
<path d="M263.115 172.697C270.229 172.697 273.98 169.033 273.98 161.574V142H256.432V147.605H267.038V161.962C267.038 165.282 265.572 166.963 262.77 166.963C260.614 166.963 258.803 165.842 257.165 163.643L253.285 168.3C255.484 171.145 259.062 172.697 263.115 172.697Z" fill="#1C1B1A"/>
<path d="M291.342 172.697C299.922 172.697 305.01 167.782 305.01 158.901V142H298.111V158.642C298.111 164.376 295.654 166.748 291.385 166.748C287.16 166.748 284.66 164.376 284.66 158.642V142H277.675V158.901C277.675 167.782 282.763 172.697 291.342 172.697Z" fill="#1C1B1A"/>
<path d="M249.589 172.18L249.503 142H243.769L232.645 160.755L221.349 142H215.572V172.18H222.125V154.46L230.964 168.99H234.111L242.993 154.072L243.036 172.18H249.589Z" fill="#1C1B1A"/>
<path d="M96.0527 172.18H118.17V166.489H103.037V142H96.0527V172.18Z" fill="#1C1B1A"/>
<path d="M149.059 173.215C158.544 173.215 165.572 166.618 165.572 157.607C165.572 148.597 158.544 142 149.059 142C139.53 142 132.546 148.64 132.546 157.607C132.546 166.575 139.53 173.215 149.059 173.215ZM149.059 167.265C143.669 167.265 139.617 163.342 139.617 157.607C139.617 151.873 143.669 147.95 149.059 147.95C154.448 147.95 158.501 151.873 158.501 157.607C158.501 163.342 154.448 167.265 149.059 167.265Z" fill="#1C1B1A"/>
<path d="M121.866 172.18H128.85V142H121.866V172.18Z" fill="#1C1B1A"/>
<path d="M190.048 142V160.324L175.044 142H169.267V172.18H176.165V153.856L191.212 172.18H196.947V142H190.048Z" fill="#1C1B1A"/>
<path d="M75.9307 166.575V159.591H89.9428V154.158H75.9307V147.605H91.7968V142H68.9893V172.18H92.3573V166.575H75.9307Z" fill="#1C1B1A"/>
<path d="M57.145 172.18H65.2936L52.0575 155.452L64.5606 142H56.8L43.4346 156.098V142H36.4932V172.18H43.4346V164.549L47.4873 160.324L57.145 172.18Z" fill="#1C1B1A"/>
<path d="M25.813 172.18H32.7975V142H25.813V172.18Z" fill="#1C1B1A"/>
<path d="M0 172.18H22.1177V166.489H6.98453V142H0V172.18Z" fill="#1C1B1A"/>
</g>
<defs>
<clipPath id="clip0_1476_11254">
<rect width="305" height="34" fill="white" transform="translate(0 142)"/>
</clipPath>
</defs>
</svg>
