<svg width="1200" height="370" viewBox="0 0 1200 370" fill="none" xmlns="http://www.w3.org/2000/svg">
<rect width="1200" height="370" fill="#DB627B"/>
<path d="M81.208 57.256C85.6453 57.256 89.6773 58.024 93.304 59.56C96.9733 61.096 100.024 63.1867 102.456 65.832C104.931 68.4773 106.68 71.4427 107.704 74.728H94.904C93.752 72.7227 91.9813 71.1013 89.592 69.864C87.2453 68.584 84.536 67.944 81.464 67.944C78.3493 67.944 75.5333 68.6693 73.016 70.12C70.4987 71.528 68.5147 73.512 67.064 76.072C65.656 78.5893 64.952 81.448 64.952 84.648C64.952 87.848 65.656 90.7493 67.064 93.352C68.5147 95.912 70.4987 97.9173 73.016 99.368C75.5333 100.819 78.3493 101.544 81.464 101.544C84.0667 101.544 86.4347 101.075 88.568 100.136C90.7013 99.1973 92.4293 97.96 93.752 96.424C95.1173 94.8453 96.0133 93.1813 96.44 91.432H80.504V81.576H108.856V84.648C108.856 89.8533 107.64 94.5467 105.208 98.728C102.819 102.867 99.512 106.109 95.288 108.456C91.1067 110.845 86.4133 112.04 81.208 112.04C75.9173 112.04 71.1387 110.845 66.872 108.456C62.648 106.109 59.32 102.867 56.888 98.728C54.4987 94.5467 53.304 89.8533 53.304 84.648C53.304 79.4427 54.4987 74.7707 56.888 70.632C59.32 66.4507 62.648 63.1867 66.872 60.84C71.1387 58.4507 75.9173 57.256 81.208 57.256ZM146.836 110.76L136.724 94.312H127.444V110.76H115.796V58.6H136.788C141.14 58.6 144.894 59.3467 148.052 60.84C151.209 62.2907 153.62 64.36 155.284 67.048C156.948 69.736 157.78 72.872 157.78 76.456C157.78 80.04 156.948 83.176 155.284 85.864C153.662 88.5093 151.316 90.5573 148.244 92.008L160.34 110.76H146.836ZM127.444 84.008H136.276C139.39 84.008 141.801 83.368 143.507 82.088C145.257 80.7653 146.132 78.888 146.132 76.456C146.132 74.024 145.257 72.168 143.507 70.888C141.801 69.5653 139.39 68.904 136.276 68.904H127.444V84.008ZM191.027 112.04C185.693 112.04 180.872 110.845 176.562 108.456C172.296 106.109 168.947 102.867 166.515 98.728C164.083 94.5467 162.867 89.8533 162.867 84.648C162.867 79.4427 164.083 74.7707 166.515 70.632C168.947 66.4507 172.296 63.1867 176.562 60.84C180.872 58.4507 185.693 57.256 191.027 57.256C196.36 57.256 201.16 58.4507 205.427 60.84C209.736 63.1867 213.107 66.4507 215.539 70.632C217.971 74.7707 219.187 79.4427 219.187 84.648C219.187 89.8533 217.971 94.5467 215.539 98.728C213.107 102.867 209.736 106.109 205.427 108.456C201.16 110.845 196.36 112.04 191.027 112.04ZM191.027 101.544C194.141 101.544 196.957 100.819 199.475 99.368C201.992 97.9173 203.955 95.912 205.363 93.352C206.813 90.7493 207.539 87.848 207.539 84.648C207.539 81.4053 206.813 78.504 205.363 75.944C203.955 73.384 201.992 71.3787 199.475 69.928C196.957 68.4773 194.141 67.752 191.027 67.752C187.912 67.752 185.096 68.4773 182.579 69.928C180.061 71.3787 178.077 73.384 176.627 75.944C175.219 78.504 174.515 81.4053 174.515 84.648C174.515 87.848 175.219 90.7493 176.627 93.352C178.077 95.912 180.061 97.9173 182.579 99.368C185.096 100.819 187.912 101.544 191.027 101.544ZM293.216 58.6L278.176 110.76H266.4L257.056 78.056L247.712 110.76H235.936L220.896 58.6H233.376L242.336 92.712L251.296 58.6H263.392L272.288 92.584L281.312 58.6H293.216ZM310.381 58.6V100.456H336.429V110.76H298.733V58.6H310.381Z" fill="white"/>
<path d="M65.732 256.95V294.882H89.338V304.22H55.176V256.95H65.732ZM105.211 256.95V304.22H94.6545V256.95H105.211ZM130.566 286.182L124.128 293.606V304.22H113.572V256.95H124.128V279.222L143.036 256.95H155.97L137.41 278.352L156.956 304.22H143.79L130.566 286.182ZM161.49 256.95H196.638V266.114H172.046V275.742H194.608V284.906H172.046V295.056H197.16V304.22H161.49V256.95ZM214.81 256.95V294.882H238.416V304.22H204.254V256.95H214.81ZM254.289 256.95V304.22H243.733V256.95H254.289ZM286.083 305.38C281.249 305.38 276.88 304.297 272.975 302.132C269.108 300.005 266.073 297.067 263.869 293.316C261.665 289.527 260.563 285.273 260.563 280.556C260.563 275.839 261.665 271.605 263.869 267.854C266.073 264.065 269.108 261.107 272.975 258.98C276.88 256.815 281.249 255.732 286.083 255.732C290.916 255.732 295.266 256.815 299.133 258.98C303.038 261.107 306.093 264.065 308.297 267.854C310.501 271.605 311.603 275.839 311.603 280.556C311.603 285.273 310.501 289.527 308.297 293.316C306.093 297.067 303.038 300.005 299.133 302.132C295.266 304.297 290.916 305.38 286.083 305.38ZM286.083 295.868C288.905 295.868 291.457 295.211 293.739 293.896C296.02 292.581 297.799 290.764 299.075 288.444C300.389 286.085 301.047 283.456 301.047 280.556C301.047 277.617 300.389 274.988 299.075 272.668C297.799 270.348 296.02 268.531 293.739 267.216C291.457 265.901 288.905 265.244 286.083 265.244C283.26 265.244 280.708 265.901 278.427 267.216C276.145 268.531 274.347 270.348 273.033 272.668C271.757 274.988 271.119 277.617 271.119 280.556C271.119 283.456 271.757 286.085 273.033 288.444C274.347 290.764 276.145 292.581 278.427 293.896C280.708 295.211 283.26 295.868 286.083 295.868ZM317.875 256.95H326.691L350.297 285.37V256.37H360.853V303.64H352.037L328.431 275.22V304.22H317.875V256.95ZM385.447 256.95H393.857L410.155 283.398L426.453 256.95H434.863V304.22H424.307V278.294L413.345 296.448H406.965L396.003 278.294V304.22H385.447V256.95ZM450.297 288.502C450.297 289.701 450.606 290.88 451.225 292.04C451.882 293.161 452.81 294.089 454.009 294.824C455.208 295.52 456.638 295.868 458.301 295.868C460.892 295.868 462.922 295.037 464.391 293.374C465.899 291.711 466.653 289.507 466.653 286.762V256.95H477.209V286.762C477.209 290.474 476.416 293.741 474.831 296.564C473.284 299.387 471.08 301.552 468.219 303.06C465.358 304.607 462.052 305.38 458.301 305.38C454.589 305.38 451.341 304.626 448.557 303.118C445.773 301.649 443.608 299.638 442.061 297.086C440.553 294.495 439.78 291.634 439.741 288.502H450.297ZM484.272 256.95H494.828V283.282C494.828 287.071 495.814 290.126 497.786 292.446C499.796 294.727 502.503 295.868 505.906 295.868C509.308 295.868 511.996 294.727 513.968 292.446C515.978 290.126 516.984 287.071 516.984 283.282V256.95H527.54V283.282C527.54 287.69 526.631 291.576 524.814 294.94C523.035 298.265 520.502 300.837 517.216 302.654C513.968 304.471 510.198 305.38 505.906 305.38C501.614 305.38 497.824 304.471 494.538 302.654C491.29 300.837 488.757 298.265 486.94 294.94C485.161 291.576 484.272 287.69 484.272 283.282V256.95Z" fill="black"/>
<path d="M939.216 198.6L924.176 250.76H912.4L903.056 218.056L893.712 250.76H881.936L866.896 198.6H879.376L888.336 232.712L897.296 198.6H909.392L918.288 232.584L927.312 198.6H939.216ZM969.089 252.04C963.756 252.04 958.934 250.845 954.625 248.456C950.358 246.109 947.009 242.867 944.577 238.728C942.145 234.547 940.929 229.853 940.929 224.648C940.929 219.443 942.145 214.771 944.577 210.632C947.009 206.451 950.358 203.187 954.625 200.84C958.934 198.451 963.756 197.256 969.089 197.256C974.422 197.256 979.222 198.451 983.489 200.84C987.798 203.187 991.169 206.451 993.601 210.632C996.033 214.771 997.249 219.443 997.249 224.648C997.249 229.853 996.033 234.547 993.601 238.728C991.169 242.867 987.798 246.109 983.489 248.456C979.222 250.845 974.422 252.04 969.089 252.04ZM969.089 241.544C972.204 241.544 975.02 240.819 977.537 239.368C980.054 237.917 982.017 235.912 983.425 233.352C984.876 230.749 985.601 227.848 985.601 224.648C985.601 221.405 984.876 218.504 983.425 215.944C982.017 213.384 980.054 211.379 977.537 209.928C975.02 208.477 972.204 207.752 969.089 207.752C965.974 207.752 963.158 208.477 960.641 209.928C958.124 211.379 956.14 213.384 954.689 215.944C953.281 218.504 952.577 221.405 952.577 224.648C952.577 227.848 953.281 230.749 954.689 233.352C956.14 235.912 958.124 237.917 960.641 239.368C963.158 240.819 965.974 241.544 969.089 241.544ZM1035.21 250.76L1025.1 234.312H1015.82V250.76H1004.17V198.6H1025.16C1029.51 198.6 1033.27 199.347 1036.43 200.84C1039.58 202.291 1041.99 204.36 1043.66 207.048C1045.32 209.736 1046.15 212.872 1046.15 216.456C1046.15 220.04 1045.32 223.176 1043.66 225.864C1042.04 228.509 1039.69 230.557 1036.62 232.008L1048.71 250.76H1035.21ZM1015.82 224.008H1024.65C1027.77 224.008 1030.18 223.368 1031.88 222.088C1033.63 220.765 1034.51 218.888 1034.51 216.456C1034.51 214.024 1033.63 212.168 1031.88 210.888C1030.18 209.565 1027.77 208.904 1024.65 208.904H1015.82V224.008ZM1065.76 198.6V240.456H1091.8V250.76H1054.11V198.6H1065.76ZM1097.67 198.6H1117.89C1123.57 198.6 1128.52 199.709 1132.74 201.928C1136.97 204.104 1140.21 207.176 1142.47 211.144C1144.73 215.069 1145.86 219.592 1145.86 224.712C1145.86 229.832 1144.73 234.376 1142.47 238.344C1140.21 242.269 1136.97 245.32 1132.74 247.496C1128.52 249.672 1123.57 250.76 1117.89 250.76H1097.67V198.6ZM1118.09 240.456C1123.12 240.456 1127.07 239.091 1129.93 236.36C1132.79 233.587 1134.21 229.704 1134.21 224.712C1134.21 219.72 1132.79 215.837 1129.93 213.064C1127.07 210.291 1123.12 208.904 1118.09 208.904H1109.32V240.456H1118.09Z" fill="white"/>
<path d="M913.232 120.904H896.272V162.76H884.624V120.904H867.664V110.6H913.232V120.904ZM942.964 164.04C937.631 164.04 932.809 162.845 928.5 160.456C924.233 158.109 920.884 154.867 918.452 150.728C916.02 146.547 914.804 141.853 914.804 136.648C914.804 131.443 916.02 126.771 918.452 122.632C920.884 118.451 924.233 115.187 928.5 112.84C932.809 110.451 937.631 109.256 942.964 109.256C948.297 109.256 953.097 110.451 957.364 112.84C961.673 115.187 965.044 118.451 967.476 122.632C969.908 126.771 971.124 131.443 971.124 136.648C971.124 141.853 969.908 146.547 967.476 150.728C965.044 154.867 961.673 158.109 957.364 160.456C953.097 162.845 948.297 164.04 942.964 164.04ZM942.964 153.544C946.079 153.544 948.895 152.819 951.412 151.368C953.929 149.917 955.892 147.912 957.3 145.352C958.751 142.749 959.476 139.848 959.476 136.648C959.476 133.405 958.751 130.504 957.3 127.944C955.892 125.384 953.929 123.379 951.412 121.928C948.895 120.477 946.079 119.752 942.964 119.752C939.849 119.752 937.033 120.477 934.516 121.928C931.999 123.379 930.015 125.384 928.564 127.944C927.156 130.504 926.452 133.405 926.452 136.648C926.452 139.848 927.156 142.749 928.564 145.352C930.015 147.912 931.999 149.917 934.516 151.368C937.033 152.819 939.849 153.544 942.964 153.544Z" fill="white"/>
<path d="M833 129.822V135L51 135V129.822L822.652 129.822L810.333 117.452L816.246 114L833 129.822Z" fill="white"/>
<path d="M547 286.671V281H1149V286.671H554.966L564.449 300.219L559.897 304L547 286.671Z" fill="white"/>
</svg>
