<svg width="318" height="100" viewBox="0 0 318 100" fill="none" xmlns="http://www.w3.org/2000/svg">
<path fill-rule="evenodd" clip-rule="evenodd" d="M0 25L202 25L202 26.147L202 26.7151L202 27.1141L202 27.1793L202 27.2772L194.094 36L192.621 34.3779L199.037 27.294L2.00553e-07 27.2941L0 25Z" fill="white"/>
<path fill-rule="evenodd" clip-rule="evenodd" d="M318 79L181 79L181 79.9385L181 80.4033L181 80.7297L181 80.7831L181 80.8631L188.886 88L190.356 86.6728L183.956 80.877L318 80.877L318 79Z" fill="white"/>
<g clip-path="url(#clip0_1481_13153)">
<path d="M147.458 95.7585C151.445 95.7585 153.547 93.7047 153.547 89.5245V78.5547H143.713V81.6958H149.657V89.742C149.657 91.6025 148.835 92.5449 147.265 92.5449C146.056 92.5449 145.042 91.9166 144.123 90.6844L141.949 93.2939C143.181 94.8887 145.187 95.7585 147.458 95.7585Z" fill="#1C1B1A"/>
<path d="M163.278 95.7585C168.086 95.7585 170.937 93.004 170.937 88.0265V78.5547H167.071V87.8815C167.071 91.0951 165.694 92.4241 163.302 92.4241C160.934 92.4241 159.533 91.0951 159.533 87.8815V78.5547H155.618V88.0265C155.618 93.004 158.469 95.7585 163.278 95.7585Z" fill="#1C1B1A"/>
<path d="M139.878 95.4686L139.83 78.5547H136.616L130.382 89.0655L124.051 78.5547H120.813V95.4686H124.486V85.5377L129.44 93.6805H131.203L136.181 85.3202L136.205 95.4686H139.878Z" fill="#1C1B1A"/>
<path d="M53.8311 95.4686H66.2265V92.2791H57.7454V78.5547H53.8311V95.4686Z" fill="#1C1B1A"/>
<path d="M83.5373 96.0485C88.8531 96.0485 92.7916 92.3516 92.7916 87.3016C92.7916 82.2516 88.8531 78.5547 83.5373 78.5547C78.1973 78.5547 74.283 82.2757 74.283 87.3016C74.283 92.3274 78.1973 96.0485 83.5373 96.0485ZM83.5373 92.714C80.5169 92.714 78.2456 90.5152 78.2456 87.3016C78.2456 84.0879 80.5169 81.8891 83.5373 81.8891C86.5576 81.8891 88.8289 84.0879 88.8289 87.3016C88.8289 90.5152 86.5576 92.714 83.5373 92.714Z" fill="#1C1B1A"/>
<path d="M68.2974 95.4686H72.2117V78.5547H68.2974V95.4686Z" fill="#1C1B1A"/>
<path d="M106.509 78.5547V88.8238L98.1006 78.5547H94.8628V95.4686H98.7288V85.1994L107.162 95.4686H110.375V78.5547H106.509Z" fill="#1C1B1A"/>
<path d="M42.554 92.3274V88.4131H50.4069V85.3686H42.554V81.6958H51.4459V78.5547H38.6638V95.4686H51.76V92.3274H42.554Z" fill="#1C1B1A"/>
<path d="M32.0258 95.4686H36.5926L29.1746 86.0934L36.1818 78.5547H31.8325L24.3421 86.4559V78.5547H20.4519V95.4686H24.3421V91.1918L26.6134 88.8238L32.0258 95.4686Z" fill="#1C1B1A"/>
<path d="M14.4666 95.4686H18.3809V78.5547H14.4666V95.4686Z" fill="#1C1B1A"/>
<path d="M0 95.4686H12.3955V92.2791H3.91435V78.5547H0V95.4686Z" fill="#1C1B1A"/>
</g>
<path d="M257.084 68.7532H249.365L247.892 72.316H243.949L251.36 55.6895H255.16L262.595 72.316H258.557L257.084 68.7532ZM255.873 65.8316L253.236 59.4661L250.6 65.8316H255.873Z" fill="white"/>
<path d="M242.535 69.2282V72.316H229.661V55.6895H242.226V58.7772H233.485V62.3876H241.205V65.3803H233.485V69.2282H242.535Z" fill="white"/>
<path d="M222.997 72.316L219.79 67.6843H219.6H216.251V72.316H212.404V55.6895H219.6C221.073 55.6895 222.348 55.9349 223.425 56.4258C224.517 56.9166 225.356 57.6134 225.942 58.516C226.528 59.4185 226.821 60.4874 226.821 61.7225C226.821 62.9576 226.52 64.0265 225.919 64.9291C225.333 65.8158 224.493 66.4967 223.401 66.9717L227.13 72.316H222.997ZM222.926 61.7225C222.926 60.7883 222.625 60.0757 222.023 59.5848C221.421 59.0781 220.543 58.8247 219.387 58.8247H216.251V64.6203H219.387C220.543 64.6203 221.421 64.3669 222.023 63.8602C222.625 63.3535 222.926 62.6409 222.926 61.7225Z" fill="white"/>
<path d="M311.539 66.4254V72.316H307.691V66.3779L301.255 55.6895H305.34L309.782 63.0764L314.223 55.6895H318L311.539 66.4254Z" fill="white"/>
<path d="M290.23 58.8247H284.91V55.6895H299.399V58.8247H294.078V72.316H290.23V58.8247Z" fill="white"/>
<path d="M263.991 55.6895H267.839V69.1807H276.176V72.316H263.991V55.6895Z" fill="white"/>
<path d="M278.65 55.6895H282.498V72.316H278.65V55.6895Z" fill="white"/>
<path d="M217.582 28.0793H212.404V25H226.506V28.0793H221.328V41.3296H217.582V28.0793Z" fill="white"/>
<path d="M236.527 41.8863C234.837 41.8863 233.31 41.5209 231.945 40.7901C230.597 40.0593 229.535 39.0564 228.759 37.7814C228 36.4908 227.62 35.0447 227.62 33.4432C227.62 31.8416 228 30.4033 228.759 29.1283C229.535 27.8377 230.597 26.827 231.945 26.0962C233.31 25.3654 234.837 25 236.527 25C238.217 25 239.736 25.3654 241.085 26.0962C242.434 26.827 243.496 27.8377 244.271 29.1283C245.046 30.4033 245.434 31.8416 245.434 33.4432C245.434 35.0447 245.046 36.4908 244.271 37.7814C243.496 39.0564 242.434 40.0593 241.085 40.7901C239.736 41.5209 238.217 41.8863 236.527 41.8863ZM236.527 38.6677C237.488 38.6677 238.356 38.45 239.132 38.0146C239.907 37.5637 240.511 36.9417 240.946 36.1487C241.395 35.3557 241.62 34.4538 241.62 33.4432C241.62 32.4325 241.395 31.5306 240.946 30.7376C240.511 29.9446 239.907 29.3304 239.132 28.895C238.356 28.4441 237.488 28.2187 236.527 28.2187C235.566 28.2187 234.697 28.4441 233.922 28.895C233.147 29.3304 232.535 29.9446 232.085 30.7376C231.651 31.5306 231.434 32.4325 231.434 33.4432C231.434 34.4538 231.651 35.3557 232.085 36.1487C232.535 36.9417 233.147 37.5637 233.922 38.0146C234.697 38.45 235.566 38.6677 236.527 38.6677Z" fill="white"/>
<g clip-path="url(#clip1_1481_13153)">
<path d="M146.674 10.923V16.8135H142.826V10.8755L136.39 0.187012H140.475L144.917 7.57394L149.358 0.187012H153.135L146.674 10.923Z" fill="white"/>
<path d="M125.38 3.3223H120.06V0.187012H134.549V3.3223H129.228V16.8135H125.38V3.3223Z" fill="white"/>
<path d="M99.0913 0.187012H102.939V13.6783H111.276V16.8135H99.0913V0.187012Z" fill="white"/>
<path d="M87.1764 8.16774C88.1265 8.46861 88.8707 8.97532 89.4091 9.68788C89.9475 10.3846 90.2167 11.2476 90.2167 12.2769C90.2167 13.7337 89.6466 14.8579 88.5065 15.6497C87.3822 16.4256 85.7354 16.8135 83.5661 16.8135H74.9678V0.187012H83.091C85.1179 0.187012 86.6697 0.574964 87.7464 1.35087C88.839 2.12677 89.3853 3.17979 89.3853 4.50991C89.3853 5.31748 89.1874 6.03797 88.7915 6.67136C88.4115 7.30475 87.8731 7.80354 87.1764 8.16774ZM78.7919 3.08478V7.00389H82.616C83.5661 7.00389 84.2865 6.83762 84.7774 6.50509C85.2683 6.17256 85.5137 5.68168 85.5137 5.03246C85.5137 4.38323 85.2683 3.90027 84.7774 3.58357C84.2865 3.25104 83.5661 3.08478 82.616 3.08478H78.7919ZM83.281 13.9158C84.2945 13.9158 85.0545 13.7495 85.5612 13.417C86.0838 13.0844 86.3451 12.5698 86.3451 11.8731C86.3451 10.4955 85.3237 9.80664 83.281 9.80664H78.7919V13.9158H83.281Z" fill="white"/>
<path d="M68.4731 0.187012H72.321V16.8135H68.4731V0.187012Z" fill="white"/>
<path d="M92.4438 0.187012H96.2917V16.8135H92.4438V0.187012Z" fill="white"/>
<path d="M113.751 0.187012H117.599V16.8135H113.751V0.187012Z" fill="white"/>
<path d="M42.8375 17.1966C41.5232 17.1966 40.2485 17.0224 39.0134 16.674C37.7941 16.3098 36.8124 15.8427 36.0681 15.2726L37.3745 12.3749C38.0871 12.8974 38.9342 13.3171 39.916 13.6337C40.8977 13.9504 41.8795 14.1088 42.8612 14.1088C43.9538 14.1088 44.7614 13.9504 45.284 13.6337C45.8065 13.3012 46.0678 12.8658 46.0678 12.3274C46.0678 11.9315 45.9094 11.6069 45.5927 11.3535C45.2919 11.0843 44.896 10.8706 44.4051 10.7122C43.9301 10.5539 43.2809 10.3797 42.4575 10.1897C41.1907 9.88882 40.1535 9.58796 39.3459 9.2871C38.5383 8.98624 37.8416 8.50328 37.2557 7.83822C36.6857 7.17316 36.4006 6.28641 36.4006 5.17797C36.4006 4.21205 36.6619 3.34114 37.1845 2.56523C37.707 1.7735 38.4908 1.14802 39.5359 0.688813C40.5969 0.229604 41.8874 0 43.4075 0C44.4685 0 45.5056 0.126678 46.5191 0.380034C47.5325 0.633391 48.4192 0.997591 49.1793 1.47263L47.9917 4.39415C46.4557 3.52324 44.9198 3.08778 43.3838 3.08778C42.307 3.08778 41.5074 3.26197 40.9848 3.61033C40.4781 3.9587 40.2247 4.4179 40.2247 4.98796C40.2247 5.55801 40.5177 5.98555 41.1036 6.27057C41.7053 6.53977 42.6158 6.80896 43.8351 7.07815C45.1019 7.37901 46.139 7.67987 46.9466 7.98073C47.7542 8.28159 48.443 8.75664 49.0131 9.40586C49.5989 10.0551 49.8919 10.9339 49.8919 12.0424C49.8919 12.9924 49.6227 13.8634 49.0843 14.6551C48.5618 15.431 47.77 16.0486 46.7091 16.5078C45.6482 16.967 44.3576 17.1966 42.8375 17.1966Z" fill="white"/>
<path d="M58.7022 17.1966C57.3879 17.1966 56.1132 17.0224 54.8781 16.674C53.6589 16.3098 52.6771 15.8427 51.9329 15.2726L53.2392 12.3749C53.9518 12.8974 54.799 13.3171 55.7807 13.6337C56.7625 13.9504 57.7442 14.1088 58.726 14.1088C59.8186 14.1088 60.6262 13.9504 61.1487 13.6337C61.6713 13.3012 61.9325 12.8658 61.9325 12.3274C61.9325 11.9315 61.7742 11.6069 61.4575 11.3535C61.1566 11.0843 60.7608 10.8706 60.2699 10.7122C59.7948 10.5539 59.1456 10.3797 58.3222 10.1897C57.0554 9.88882 56.0182 9.58796 55.2107 9.2871C54.4031 8.98624 53.7064 8.50328 53.1205 7.83822C52.5504 7.17316 52.2654 6.28641 52.2654 5.17797C52.2654 4.21205 52.5267 3.34114 53.0492 2.56523C53.5718 1.7735 54.3556 1.14802 55.4007 0.688813C56.4616 0.229604 57.7521 0 59.2723 0C60.3332 0 61.3704 0.126678 62.3838 0.380034C63.3972 0.633391 64.284 0.997591 65.0441 1.47263L63.8565 4.39415C62.3205 3.52324 60.7845 3.08778 59.2485 3.08778C58.1718 3.08778 57.3721 3.26197 56.8496 3.61033C56.3428 3.9587 56.0895 4.4179 56.0895 4.98796C56.0895 5.55801 56.3824 5.98555 56.9683 6.27057C57.57 6.53977 58.4805 6.80896 59.6998 7.07815C60.9666 7.37901 62.0038 7.67987 62.8114 7.98073C63.6189 8.28159 64.3077 8.75664 64.8778 9.40586C65.4637 10.0551 65.7566 10.9339 65.7566 12.0424C65.7566 12.9924 65.4874 13.8634 64.9491 14.6551C64.4265 15.431 63.6348 16.0486 62.5738 16.5078C61.5129 16.967 60.2224 17.1966 58.7022 17.1966Z" fill="white"/>
<path d="M25.3705 17.1966C23.6445 17.1966 22.0848 16.8245 20.6913 16.0802C19.3137 15.336 18.229 14.3146 17.4373 13.0162C16.6614 11.7019 16.2734 10.2293 16.2734 8.59829C16.2734 6.96731 16.6614 5.50259 17.4373 4.20413C18.229 2.88985 19.3137 1.86059 20.6913 1.11635C22.0848 0.372117 23.6445 0 25.3705 0C27.0965 0 28.6483 0.372117 30.026 1.11635C31.4036 1.86059 32.4883 2.88985 33.28 4.20413C34.0717 5.50259 34.4676 6.96731 34.4676 8.59829C34.4676 10.2293 34.0717 11.7019 33.28 13.0162C32.4883 14.3146 31.4036 15.336 30.026 16.0802C28.6483 16.8245 27.0965 17.1966 25.3705 17.1966ZM25.3705 13.9188C26.3523 13.9188 27.239 13.6971 28.0308 13.2537C28.8225 12.7945 29.4401 12.1611 29.8834 11.3535C30.3426 10.546 30.5723 9.62755 30.5723 8.59829C30.5723 7.56903 30.3426 6.65061 29.8834 5.84304C29.4401 5.03546 28.8225 4.40999 28.0308 3.96661C27.239 3.5074 26.3523 3.2778 25.3705 3.2778C24.3888 3.2778 23.502 3.5074 22.7103 3.96661C21.9185 4.40999 21.2931 5.03546 20.8339 5.84304C20.3905 6.65061 20.1688 7.56903 20.1688 8.59829C20.1688 9.62755 20.3905 10.546 20.8339 11.3535C21.2931 12.1611 21.9185 12.7945 22.7103 13.2537C23.502 13.6971 24.3888 13.9188 25.3705 13.9188Z" fill="white"/>
<path d="M7.19691 0.187012C8.66955 0.187012 9.94425 0.432451 11.021 0.92333C12.1136 1.41421 12.9529 2.11094 13.5387 3.01352C14.1246 3.9161 14.4176 4.98495 14.4176 6.22007C14.4176 7.43934 14.1246 8.50819 13.5387 9.42661C12.9529 10.3292 12.1136 11.0259 11.021 11.5168C9.94425 11.9918 8.66955 12.2294 7.19691 12.2294H3.84785V16.8135H0V0.187012H7.19691ZM6.98314 9.09408C8.13908 9.09408 9.01791 8.84864 9.61963 8.35776C10.2214 7.85105 10.5222 7.13848 10.5222 6.22007C10.5222 5.28581 10.2214 4.57325 9.61963 4.08237C9.01791 3.57566 8.13908 3.3223 6.98314 3.3223H3.84785V9.09408H6.98314Z" fill="white"/>
</g>
<defs>
<clipPath id="clip0_1481_13153">
<rect width="171" height="21" fill="white" transform="translate(0 79)"/>
</clipPath>
<clipPath id="clip1_1481_13153">
<rect width="153" height="25" fill="white"/>
</clipPath>
</defs>
</svg>
