<svg width="33" height="34" viewBox="0 0 33 34" fill="none" xmlns="http://www.w3.org/2000/svg">
<rect x="14.3221" y="13" width="4" height="21" fill="#AAAAAA"/>
<path d="M13.7392 1.44089C14.8872 -0.480296 17.7571 -0.480297 18.9051 1.44089L29.9181 19.8717C31.0661 21.7929 29.6311 24.1944 27.3352 24.1944H5.30912C3.01317 24.1944 1.5782 21.7929 2.72618 19.8717L13.7392 1.44089Z" fill="#FFC700"/>
<path fill-rule="evenodd" clip-rule="evenodd" d="M28.1194 20.2926L17.5724 2.64173C16.9984 1.68114 15.5634 1.68114 14.9894 2.64173L4.44242 20.2926C3.86844 21.2532 4.58592 22.454 5.7339 22.454H26.8279C27.9759 22.454 28.6934 21.2532 28.1194 20.2926ZM18.4334 2.16143C17.4767 0.560445 15.0851 0.560447 14.1285 2.16144L3.58144 19.8123C2.6248 21.4133 3.82061 23.4146 5.7339 23.4146H26.8279C28.7412 23.4146 29.937 21.4133 28.9804 19.8123L18.4334 2.16143Z" fill="#FFF7D9"/>
<path d="M15.2971 15.4546C15.3264 15.9994 15.7767 16.4262 16.3223 16.4262C16.8679 16.4262 17.3182 15.9994 17.3474 15.4546L17.7209 8.49955L17.7659 7.3046C17.7967 6.48604 17.1414 5.80566 16.3223 5.80566C15.5031 5.80566 14.8479 6.48604 14.8787 7.3046L14.9236 8.49955L15.2971 15.4546ZM14.8628 19.4301C14.8628 20.1901 15.4789 20.8062 16.2388 20.8062H16.4463C17.2062 20.8062 17.8223 20.1901 17.8223 19.4301C17.8223 18.6702 17.2062 18.0541 16.4463 18.0541H16.2388C15.4789 18.0541 14.8628 18.6702 14.8628 19.4301Z" fill="#FFF7D9"/>
</svg>
