<svg width="160" height="185" viewBox="0 0 160 185" fill="none" xmlns="http://www.w3.org/2000/svg">
<g clip-path="url(#clip0_1465_10390)">
<path fill-rule="evenodd" clip-rule="evenodd" d="M80.3842 42.7656C88.7771 37.9193 109.813 31.5097 130.221 43.0042C132.922 44.627 137.028 48.684 131.841 51.9296C129.895 53.1477 129.117 53.6344 129.18 53.9606C129.324 54.7208 134.031 54.6094 139.135 60.8551C146.428 69.7806 156.152 94.9342 152.1 112.785C149.467 124.386 148.203 120.223 146.751 115.44C145.968 112.864 145.131 110.108 143.997 109.54C142.895 108.988 143.01 110.779 143.229 114.181C143.653 120.789 144.468 133.473 137.514 146.864C126.979 167.149 115.634 171.206 115.634 163.092C115.634 158.192 114.452 160.394 112.623 163.801C111.424 166.035 109.946 168.788 108.341 170.395C104.365 174.376 94.9258 183.828 80.7894 184.946V185C80.6539 184.993 80.5188 184.984 80.3841 184.975C80.2495 184.984 80.1144 184.993 79.979 185V184.946C65.8426 183.828 56.4034 174.376 52.4272 170.395C50.8223 168.788 49.3446 166.035 48.1451 163.801C46.3162 160.394 45.134 158.192 45.134 163.092C45.134 171.206 33.7891 167.149 23.2545 146.864C16.3001 133.473 17.1151 120.789 17.5396 114.181C17.7582 110.779 17.8733 108.988 16.7717 109.54C15.6369 110.108 14.8001 112.864 14.0178 115.44C12.5657 120.223 11.3015 124.386 8.6683 112.785C4.61655 94.9342 14.3408 69.7806 21.6339 60.8551C26.7374 54.6094 31.444 54.7208 31.5889 53.9606C31.651 53.6344 30.8734 53.1477 28.927 51.9297C23.7408 48.684 27.8465 44.627 30.5477 43.0042C50.9558 31.5097 71.9913 37.9193 80.3842 42.7656Z" fill="#FF872D"/>
<path fill-rule="evenodd" clip-rule="evenodd" d="M80.3848 69.5851C73.1077 65.015 56.6565 59.0234 45.7954 69.8454C32.0214 83.5696 19.8607 147.123 79.9779 147.691V147.695C80.1144 147.695 80.2505 147.694 80.3862 147.694C80.521 147.694 80.6562 147.695 80.7917 147.695V147.691C140.909 147.123 128.748 83.5696 114.974 69.8454C104.113 59.0234 87.662 65.015 80.3848 69.5851Z" fill="#FAD17B"/>
<path d="M72.6119 90.764C72.6119 93.0175 70.7851 94.8443 68.5315 94.8443C66.278 94.8443 64.4512 93.0175 64.4512 90.764C64.4512 88.5104 66.278 86.6836 68.5315 86.6836C70.7851 86.6836 72.6119 88.5104 72.6119 90.764Z" fill="#482B14"/>
<path d="M95.151 90.764C95.151 93.0175 93.3241 94.8443 91.0706 94.8443C88.8171 94.8443 86.9902 93.0175 86.9902 90.764C86.9902 88.5104 88.8171 86.6836 91.0706 86.6836C93.3241 86.6836 95.151 88.5104 95.151 90.764Z" fill="#482B14"/>
<path fill-rule="evenodd" clip-rule="evenodd" d="M79.8011 101.469C84.3219 101.315 92.0427 102.096 92.0427 106.425C92.0427 112.162 83.0885 115.441 79.8324 115.441C79.8223 115.441 79.8123 115.441 79.8023 115.441C79.7919 115.441 79.7814 115.441 79.7708 115.441C76.5148 115.441 67.5605 112.162 67.5605 106.425C67.5605 102.097 75.2801 101.315 79.8011 101.469Z" fill="#985B2D"/>
<path fill-rule="evenodd" clip-rule="evenodd" d="M79.8015 111.941C80.7673 111.941 81.5502 112.722 81.5502 113.686V121.855C81.5502 122.819 80.7673 123.6 79.8015 123.6C78.8357 123.6 78.0527 122.819 78.0527 121.855V113.686C78.0527 112.722 78.8357 111.941 79.8015 111.941Z" fill="#985B2D"/>
<path fill-rule="evenodd" clip-rule="evenodd" d="M150.915 75.4414H9.23047C9.23062 36.3165 40.9476 4.59961 80.0725 4.59961C119.197 4.59961 150.914 36.3165 150.915 75.4414Z" fill="#E29F09"/>
<path fill-rule="evenodd" clip-rule="evenodd" d="M120.064 16.9586C115.051 38.4538 112.232 60.8233 111.355 70.8406L96.6346 26.2193L99.998 7.44028C93.6774 5.5913 86.9908 4.59961 80.0725 4.59961C73.1555 4.59961 66.4699 5.59097 60.1503 7.43935L63.5138 26.2193L48.7934 70.8406C47.9169 60.823 45.0974 38.4524 40.0845 16.9566C21.4538 29.7194 9.23056 51.153 9.23047 75.4414H150.915C150.915 51.1542 138.693 29.7217 120.064 16.9586Z" fill="#FFC537"/>
<path fill-rule="evenodd" clip-rule="evenodd" d="M149.647 61.9141H112.28C112.089 63.5168 111.921 65.0141 111.775 66.3899H150.356C150.166 64.8827 149.93 63.3902 149.647 61.9141ZM9.78531 66.3899H48.3697C48.2239 65.0141 48.0557 63.5168 47.8648 61.9141H10.4942C10.2116 63.3902 9.97477 64.8827 9.78531 66.3899ZM108.45 61.9141H51.6944L50.2179 66.3899H109.927L108.45 61.9141Z" fill="#E29F09"/>
<path fill-rule="evenodd" clip-rule="evenodd" d="M54.7931 70.8418C51.4794 70.8418 48.7931 68.1555 48.7931 64.8418V10.9937C48.7931 8.70876 50.0824 6.60164 52.1825 5.70131C60.7418 2.03182 70.1699 0 80.0725 0C89.9766 0 99.4059 2.0324 107.966 5.70288C110.066 6.60328 111.355 8.71032 111.355 10.9951V64.8418C111.355 68.1555 108.669 70.8418 105.355 70.8418H54.7931Z" fill="#FFCA51"/>
<rect x="1" y="66.3906" width="158.145" height="16.4113" rx="5" fill="#FFB619"/>
<rect x="42.0273" y="64.1523" width="72.3589" height="2.2379" fill="#E29F09"/>
</g>
<defs>
<clipPath id="clip0_1465_10390">
<rect width="160" height="185" fill="white"/>
</clipPath>
</defs>
</svg>
